<svg xmlns="http://www.w3.org/2000/svg" xml:space="preserve" style="fill-rule:evenodd;clip-rule:evenodd;stroke-linejoin:round;stroke-miterlimit:2" viewBox="0 0 163 216"><path d="M162.999 8.938a7.949 7.949 0 0 0-7.945-7.945H7.945A7.949 7.949 0 0 0 0 8.938v200.117A7.949 7.949 0 0 0 7.945 217h147.109a7.949 7.949 0 0 0 7.945-7.945V8.938Z" style="fill:#191c20" transform="translate(-.376 -1)"/><path d="M155.024.993c4.406 0 7.975 3.555 7.975 7.945v200.117c0 4.39-3.569 7.945-7.975 7.945H7.975C3.569 217 0 213.445 0 209.055V8.938C0 4.55 3.57.993 7.975.993h147.049Z" style="fill:url(#a);fill-rule:nonzero" transform="translate(-.376 -1)"/><defs><radialGradient id="a" cx="0" cy="0" r="1" gradientTransform="matrix(149.787 383.413 -399.656 156.133 -8.724 -35.826)" gradientUnits="userSpaceOnUse"><stop offset="0" style="stop-color:white;stop-opacity:.25"/><stop offset=".54" style="stop-color:white;stop-opacity:0"/><stop offset="1" style="stop-color:white;stop-opacity:0"/></radialGradient></defs></svg>