<svg xmlns="http://www.w3.org/2000/svg" width="163" height="217" fill="none"><mask id="a" width="163" height="217" x="0" y="0" maskUnits="userSpaceOnUse" style="mask-type:alpha"><rect width="162.999" height="216.007" y=".993" fill="#191C20" rx="7.945"/></mask><g mask="url(#a)"><g filter="url(#b)"><rect width="162.999" height="216.007" y=".993" fill="#191C20" rx="7.945"/></g><g filter="url(#c)" opacity=".5"><ellipse cx="132.626" cy="133.066" fill="#0300FF" rx="132.626" ry="133.066" transform="rotate(-74.945 203.453 279.847) skewX(.109)"/></g><g filter="url(#d)"><circle cx="132.548" cy="132.548" r="132.548" fill="#BE00FF" transform="scale(-1.0019 -.99809) rotate(-45 -38.948 432.444)"/></g></g><path fill="#191C20" d="M155.024.993H7.975C3.57.993 0 4.55 0 8.938v200.117C0 213.445 3.569 217 7.975 217h147.049c4.406 0 7.975-3.555 7.975-7.945V8.938c0-4.39-3.569-7.945-7.975-7.945ZM4.486 207.565H3.49v-.993h.997v.993Zm0-5.959H3.49v-.993h.997v.993Zm0-5.958H3.49v-.994h.997v.994Zm0-5.959H3.49v-.993h.997v.993Zm0-5.959H3.49v-.993h.997v.993Zm0-5.959H3.49v-.993h.997v.993Zm0-5.959H3.49v-.993h.997v.993Zm0-5.958H3.49v-.994h.997v.994Zm0-5.959H3.49v-.993h.997v.993Zm0-5.959H3.49v-.993h.997v.993Zm0-5.959H3.49v-.993h.997v.993Zm0-5.959H3.49v-.993h.997v.993Zm0-5.958H3.49v-.994h.997v.994Zm0-5.959H3.49v-.993h.997v.993Zm0-5.959H3.49v-.993h.997v.993Zm0-5.959H3.49v-.993h.997v.993Zm0-5.959H3.49v-.993h.997v.993Zm0-5.959H3.49v-.993h.997v.993Zm0-5.958H3.49v-.993h.997v.993Zm0-5.96H3.49v-.992h.997v.993Zm0-5.958H3.49v-.993h.997v.993Zm0-5.959H3.49v-.993h.997v.993Zm0-5.959H3.49v-.993h.997v.993Zm0-5.958H3.49v-.994h.997v.994Zm0-5.96H3.49v-.992h.997v.993Zm0-5.958H3.49v-.993h.997v.993Zm0-5.959H3.49v-.993h.997v.993Zm0-5.959H3.49v-.993h.997v.993Zm0-5.958H3.49v-.994h.997v.994Zm0-5.96H3.49v-.992h.997v.993Zm0-5.958H3.49v-.993h.997v.993Zm0-5.959H3.49v-.993h.997v.993Zm0-5.959H3.49v-.993h.997v.993Zm0-5.958H3.49V9.93h.997v.994Zm88.728-6.952h.996v.993h-.996v-.993Zm0 5.958h.996v.994h-.996V9.93Zm0 5.96h.996v.992h-.996v-.993Zm0 5.958h.996v.993h-.996v-.993Zm0 5.959h.996v.993h-.996v-.993Zm0 5.959h.996v.993h-.996v-.993Zm0 5.958h.996v.994h-.996v-.994Zm0 5.96h.996v.992h-.996v-.993Zm0 5.958h.996v.993h-.996v-.993Zm0 5.959h.996v.993h-.996v-.993Zm-5.982-53.63h.997v.994h-.997v-.993Zm0 5.96h.997v.992h-.997v-.993Zm0 5.958h.997v.993h-.997v-.993Zm0 5.959h.997v.993h-.997v-.993Zm0 5.959h.997v.993h-.997v-.993Zm0 5.959h.997v.993h-.997v-.993Zm0 5.958h.997v.994h-.997v-.994Zm0 5.96h.997v.992h-.997v-.993Zm0 5.958h.997v.993h-.997v-.993Zm0 5.959h.997v.993h-.997v-.993ZM81.25 3.972h.997v.994h-.997v-.993Zm0 5.96h.997v.992h-.997v-.993Zm0 5.958h.997v.993h-.997v-.993Zm0 5.959h.997v.993h-.997v-.993Zm0 5.959h.997v.993h-.997v-.993Zm0 5.959h.997v.993h-.997v-.993Zm0 5.958h.997v.994h-.997v-.994Zm0 5.96h.997v.992h-.997v-.993Zm0 5.958h.997v.993h-.997v-.993Zm0 5.959h.997v.993h-.997v-.993ZM75.27 3.972h.997v.994h-.997v-.993Zm0 5.96h.997v.992h-.997v-.993Zm0 5.958h.997v.993h-.997v-.993Zm0 5.959h.997v.993h-.997v-.993Zm0 5.959h.997v.993h-.997v-.993Zm0 5.959h.997v.993h-.997v-.993Zm0 5.958h.997v.994h-.997v-.994Zm0 5.96h.997v.992h-.997v-.993Zm0 5.958h.997v.993h-.997v-.993Zm0 5.959h.997v.993h-.997v-.993Zm-5.982-53.63h.997v.994h-.997v-.993Zm0 5.96h.997v.992h-.997v-.993Zm0 5.958h.997v.993h-.997v-.993Zm0 5.959h.997v.993h-.997v-.993Zm0 5.959h.997v.993h-.997v-.993Zm0 5.959h.997v.993h-.997v-.993Zm0 5.958h.997v.994h-.997v-.994Zm0 5.96h.997v.992h-.997v-.993Zm0 5.958h.997v.993h-.997v-.993Zm0 5.959h.997v.993h-.997v-.993Zm-58.82 155.922h-.996v-.993h.997v.993Zm0-5.959h-.996v-.993h.997v.993Zm0-5.959h-.996v-.993h.997v.993Zm0-5.958h-.996v-.994h.997v.994Zm0-5.959h-.996v-.993h.997v.993Zm0-5.959h-.996v-.993h.997v.993Zm0-5.959h-.996v-.993h.997v.993Zm0-5.959h-.996v-.993h.997v.993Zm0-5.958h-.996v-.994h.997v.994Zm0-5.959h-.996v-.993h.997v.993Zm0-5.959h-.996v-.993h.997v.993Zm0-5.959h-.996v-.993h.997v.993Zm0-5.959h-.996v-.993h.997v.993Zm0-5.958h-.996v-.994h.997v.994Zm0-5.959h-.996v-.993h.997v.993Zm0-5.959h-.996v-.993h.997v.993Zm0-5.959h-.996v-.993h.997v.993Zm0-5.959h-.996v-.993h.997v.993Zm0-5.959h-.996v-.993h.997v.993Zm0-5.958h-.996v-.993h.997v.993Zm0-5.96h-.996v-.992h.997v.993Zm0-5.958h-.996v-.993h.997v.993Zm0-5.959h-.996v-.993h.997v.993Zm0-5.959h-.996v-.993h.997v.993Zm0-5.958h-.996v-.994h.997v.994Zm0-5.96h-.996v-.992h.997v.993Zm0-5.958h-.996v-.993h.997v.993Zm0-5.959h-.996v-.993h.997v.993Zm0-5.959h-.996v-.993h.997v.993Zm0-5.958h-.996v-.994h.997v.994Zm0-5.96h-.996v-.992h.997v.993Zm0-5.958h-.996v-.993h.997v.993Zm0-5.959h-.996v-.993h.997v.993Zm0-5.959h-.996v-.993h.997v.993Zm0-5.958h-.996V9.93h.997v.994Zm0-5.96h-.996v-.992h.997v.993Zm5.982 208.559h-.997v-.993h.998v.993Zm0-5.959h-.997v-.993h.998v.993Zm0-5.959h-.997v-.993h.998v.993Zm0-5.958h-.997v-.994h.998v.994Zm0-5.959h-.997v-.993h.998v.993Zm0-5.959h-.997v-.993h.998v.993Zm0-5.959h-.997v-.993h.998v.993Zm0-5.959h-.997v-.993h.998v.993Zm0-5.958h-.997v-.994h.998v.994Zm0-5.959h-.997v-.993h.998v.993Zm0-5.959h-.997v-.993h.998v.993Zm0-5.959h-.997v-.993h.998v.993Zm0-5.959h-.997v-.993h.998v.993Zm0-5.958h-.997v-.994h.998v.994Zm0-5.959h-.997v-.993h.998v.993Zm0-5.959h-.997v-.993h.998v.993Zm0-5.959h-.997v-.993h.998v.993Zm0-5.959h-.997v-.993h.998v.993Zm0-5.959h-.997v-.993h.998v.993Zm0-5.958h-.997v-.993h.998v.993Zm0-5.96h-.997v-.992h.998v.993Zm0-5.958h-.997v-.993h.998v.993Zm0-5.959h-.997v-.993h.998v.993Zm0-5.959h-.997v-.993h.998v.993Zm0-5.958h-.997v-.994h.998v.994Zm0-5.96h-.997v-.992h.998v.993Zm0-5.958h-.997v-.993h.998v.993Zm0-5.959h-.997v-.993h.998v.993Zm0-5.959h-.997v-.993h.998v.993Zm0-5.958h-.997v-.994h.998v.994Zm0-5.96h-.997v-.992h.998v.993Zm0-5.958h-.997v-.993h.998v.993Zm0-5.959h-.997v-.993h.998v.993Zm0-5.959h-.997v-.993h.998v.993Zm0-5.958h-.997V9.93h.998v.994Zm0-5.96h-.997v-.992h.998v.993Zm5.982 208.559h-.997v-.993h.997v.993Zm0-5.959h-.997v-.993h.997v.993Zm0-5.959h-.997v-.993h.997v.993Zm0-5.958h-.997v-.994h.997v.994Zm0-5.959h-.997v-.993h.997v.993Zm0-5.959h-.997v-.993h.997v.993Zm0-5.959h-.997v-.993h.997v.993Zm0-5.959h-.997v-.993h.997v.993Zm0-5.958h-.997v-.994h.997v.994Zm0-5.959h-.997v-.993h.997v.993Zm0-5.959h-.997v-.993h.997v.993Zm0-5.959h-.997v-.993h.997v.993Zm0-5.959h-.997v-.993h.997v.993Zm0-5.958h-.997v-.994h.997v.994Zm0-5.959h-.997v-.993h.997v.993Zm0-5.959h-.997v-.993h.997v.993Zm0-5.959h-.997v-.993h.997v.993Zm0-5.959h-.997v-.993h.997v.993Zm0-5.959h-.997v-.993h.997v.993Zm0-5.958h-.997v-.993h.997v.993Zm0-5.96h-.997v-.992h.997v.993Zm0-5.958h-.997v-.993h.997v.993Zm0-5.959h-.997v-.993h.997v.993Zm0-5.959h-.997v-.993h.997v.993Zm0-5.958h-.997v-.994h.997v.994Zm0-5.96h-.997v-.992h.997v.993Zm0-5.958h-.997v-.993h.997v.993Zm0-5.959h-.997v-.993h.997v.993Zm0-5.959h-.997v-.993h.997v.993Zm0-5.958h-.997v-.994h.997v.994Zm0-5.96h-.997v-.992h.997v.993Zm0-5.958h-.997v-.993h.997v.993Zm0-5.959h-.997v-.993h.997v.993Zm0-5.959h-.997v-.993h.997v.993Zm0-5.958h-.997V9.93h.997v.994Zm0-5.96h-.997v-.992h.997v.993Zm5.982 208.559h-.997v-.993h.997v.993Zm0-5.959h-.997v-.993h.997v.993Zm0-5.959h-.997v-.993h.997v.993Zm0-5.958h-.997v-.994h.997v.994Zm0-5.959h-.997v-.993h.997v.993Zm0-5.959h-.997v-.993h.997v.993Zm0-5.959h-.997v-.993h.997v.993Zm0-5.959h-.997v-.993h.997v.993Zm0-5.958h-.997v-.994h.997v.994Zm0-5.959h-.997v-.993h.997v.993Zm0-5.959h-.997v-.993h.997v.993Zm0-5.959h-.997v-.993h.997v.993Zm0-5.959h-.997v-.993h.997v.993Zm0-5.958h-.997v-.994h.997v.994Zm0-5.959h-.997v-.993h.997v.993Zm0-5.959h-.997v-.993h.997v.993Zm0-5.959h-.997v-.993h.997v.993Zm0-5.959h-.997v-.993h.997v.993Zm0-5.959h-.997v-.993h.997v.993Zm0-5.958h-.997v-.993h.997v.993Zm0-5.96h-.997v-.992h.997v.993Zm0-5.958h-.997v-.993h.997v.993Zm0-5.959h-.997v-.993h.997v.993Zm0-5.959h-.997v-.993h.997v.993Zm0-5.958h-.997v-.994h.997v.994Zm0-5.96h-.997v-.992h.997v.993Zm0-5.958h-.997v-.993h.997v.993Zm0-5.959h-.997v-.993h.997v.993Zm0-5.959h-.997v-.993h.997v.993Zm0-5.958h-.997v-.994h.997v.994Zm0-5.96h-.997v-.992h.997v.993Zm0-5.958h-.997v-.993h.997v.993Zm0-5.959h-.997v-.993h.997v.993Zm0-5.959h-.997v-.993h.997v.993Zm0-5.958h-.997V9.93h.997v.994Zm0-5.96h-.997v-.992h.997v.993Zm5.981 208.559h-.997v-.993h.997v.993Zm0-5.959h-.997v-.993h.997v.993Zm0-5.959h-.997v-.993h.997v.993Zm0-5.958h-.997v-.994h.997v.994Zm0-5.959h-.997v-.993h.997v.993Zm0-5.959h-.997v-.993h.997v.993Zm0-5.959h-.997v-.993h.997v.993Zm0-5.959h-.997v-.993h.997v.993Zm0-5.958h-.997v-.994h.997v.994Zm0-5.959h-.997v-.993h.997v.993Zm0-5.959h-.997v-.993h.997v.993Zm0-5.959h-.997v-.993h.997v.993Zm0-5.959h-.997v-.993h.997v.993Zm0-5.958h-.997v-.994h.997v.994Zm0-5.959h-.997v-.993h.997v.993Zm0-5.959h-.997v-.993h.997v.993Zm0-5.959h-.997v-.993h.997v.993Zm0-5.959h-.997v-.993h.997v.993Zm0-5.959h-.997v-.993h.997v.993Zm0-5.958h-.997v-.993h.997v.993Zm0-5.96h-.997v-.992h.997v.993Zm0-5.958h-.997v-.993h.997v.993Zm0-5.959h-.997v-.993h.997v.993Zm0-5.959h-.997v-.993h.997v.993Zm0-5.958h-.997v-.994h.997v.994Zm0-5.96h-.997v-.992h.997v.993Zm0-5.958h-.997v-.993h.997v.993Zm0-5.959h-.997v-.993h.997v.993Zm0-5.959h-.997v-.993h.997v.993Zm0-5.958h-.997v-.994h.997v.994Zm0-5.96h-.997v-.992h.997v.993Zm0-5.958h-.997v-.993h.997v.993Zm0-5.959h-.997v-.993h.997v.993Zm0-5.959h-.997v-.993h.997v.993Zm0-5.958h-.997V9.93h.997v.994Zm0-5.96h-.997v-.992h.997v.993Zm5.982 208.559h-.997v-.993h.997v.993Zm0-5.959h-.997v-.993h.997v.993Zm0-5.959h-.997v-.993h.997v.993Zm0-5.958h-.997v-.994h.997v.994Zm0-5.959h-.997v-.993h.997v.993Zm0-5.959h-.997v-.993h.997v.993Zm0-5.959h-.997v-.993h.997v.993Zm0-5.959h-.997v-.993h.997v.993Zm0-5.958h-.997v-.994h.997v.994Zm0-5.959h-.997v-.993h.997v.993Zm0-5.959h-.997v-.993h.997v.993Zm0-5.959h-.997v-.993h.997v.993Zm0-5.959h-.997v-.993h.997v.993Zm0-5.958h-.997v-.994h.997v.994Zm0-5.959h-.997v-.993h.997v.993Zm0-5.959h-.997v-.993h.997v.993Zm0-5.959h-.997v-.993h.997v.993Zm0-5.959h-.997v-.993h.997v.993Zm0-5.959h-.997v-.993h.997v.993Zm0-5.958h-.997v-.993h.997v.993Zm0-5.96h-.997v-.992h.997v.993Zm0-5.958h-.997v-.993h.997v.993Zm0-5.959h-.997v-.993h.997v.993Zm0-5.959h-.997v-.993h.997v.993Zm0-5.958h-.997v-.994h.997v.994Zm0-5.96h-.997v-.992h.997v.993Zm0-5.958h-.997v-.993h.997v.993Zm0-5.959h-.997v-.993h.997v.993Zm0-5.959h-.997v-.993h.997v.993Zm0-5.958h-.997v-.994h.997v.994Zm0-5.96h-.997v-.992h.997v.993Zm0-5.958h-.997v-.993h.997v.993Zm0-5.959h-.997v-.993h.997v.993Zm0-5.959h-.997v-.993h.997v.993Zm0-5.958h-.997V9.93h.997v.994Zm0-5.96h-.997v-.992h.997v.993Zm5.982 208.559h-.997v-.993h.997v.993Zm0-5.959h-.997v-.993h.997v.993Zm0-5.959h-.997v-.993h.997v.993Zm0-5.958h-.997v-.994h.997v.994Zm0-5.959h-.997v-.993h.997v.993Zm0-5.959h-.997v-.993h.997v.993Zm0-5.959h-.997v-.993h.997v.993Zm0-5.959h-.997v-.993h.997v.993Zm0-5.958h-.997v-.994h.997v.994Zm0-5.959h-.997v-.993h.997v.993Zm0-5.959h-.997v-.993h.997v.993Zm0-5.959h-.997v-.993h.997v.993Zm0-5.959h-.997v-.993h.997v.993Zm0-17.876h-.997v-.993h.997v.993Zm0-5.959h-.997v-.993h.997v.993Zm0-5.959h-.997v-.993h.997v.993Zm0-5.959h-.997v-.993h.997v.993Zm0-5.958h-.997v-.993h.997v.993Zm0-5.96h-.997v-.992h.997v.993Zm0-5.958h-.997v-.993h.997v.993Zm0-5.959h-.997v-.993h.997v.993Zm0-5.959h-.997v-.993h.997v.993Zm0-5.958h-.997v-.994h.997v.994Zm0-5.96h-.997v-.992h.997v.993Zm0-5.958h-.997v-.993h.997v.993Zm0-5.959h-.997v-.993h.997v.993Zm0-5.959h-.997v-.993h.997v.993Zm0-5.958h-.997v-.994h.997v.994Zm0-5.96h-.997v-.992h.997v.993Zm0-5.958h-.997v-.993h.997v.993Zm0-5.959h-.997v-.993h.997v.993Zm0-5.959h-.997v-.993h.997v.993Zm0-5.958h-.997V9.93h.997v.994Zm0-5.96h-.997v-.992h.997v.993Zm5.981 208.559h-.997v-.993h.997v.993Zm0-5.959h-.997v-.993h.997v.993Zm0-5.959h-.997v-.993h.997v.993Zm0-5.958h-.997v-.994h.997v.994Zm0-5.959h-.997v-.993h.997v.993Zm0-5.959h-.997v-.993h.997v.993Zm0-5.959h-.997v-.993h.997v.993Zm0-5.959h-.997v-.993h.997v.993Zm0-5.958h-.997v-.994h.997v.994Zm0-5.959h-.997v-.993h.997v.993Zm0-5.959h-.997v-.993h.997v.993Zm0-29.794h-.997v-.993h.997v.993Zm0-5.959h-.997v-.993h.997v.993Zm0-5.959h-.997v-.993h.997v.993Zm0-5.959h-.997v-.993h.997v.993Zm0-5.958h-.997v-.993h.997v.993Zm0-5.96h-.997v-.992h.997v.993Zm0-5.958h-.997v-.993h.997v.993Zm0-5.959h-.997v-.993h.997v.993Zm0-5.959h-.997v-.993h.997v.993Zm0-5.958h-.997v-.994h.997v.994Zm0-5.96h-.997v-.992h.997v.993Zm0-5.958h-.997v-.993h.997v.993Zm0-5.959h-.997v-.993h.997v.993Zm0-5.959h-.997v-.993h.997v.993Zm0-5.958h-.997v-.994h.997v.994Zm0-5.96h-.997v-.992h.997v.993Zm0-5.958h-.997v-.993h.997v.993Zm0-5.959h-.997v-.993h.997v.993Zm0-5.959h-.997v-.993h.997v.993Zm0-5.958h-.997V9.93h.997v.994Zm0-5.96h-.997v-.992h.997v.993Zm5.982 208.559h-.997v-.993h.997v.993Zm0-5.959h-.997v-.993h.997v.993Zm0-5.959h-.997v-.993h.997v.993Zm0-5.958h-.997v-.994h.997v.994Zm0-5.959h-.997v-.993h.997v.993Zm0-5.959h-.997v-.993h.997v.993Zm0-5.959h-.997v-.993h.997v.993Zm0-5.959h-.997v-.993h.997v.993Zm0-5.958h-.997v-.994h.997v.994Zm0-5.959h-.997v-.993h.997v.993Zm0-5.959h-.997v-.993h.997v.993Zm0-29.794h-.997v-.993h.997v.993Zm0-5.959h-.997v-.993h.997v.993Zm0-5.959h-.997v-.993h.997v.993Zm0-5.959h-.997v-.993h.997v.993Zm0-35.752h-.997v-.994h.997v.994Zm0-5.96h-.997v-.992h.997v.993Zm0-5.958h-.997v-.993h.997v.993Zm0-5.959h-.997v-.993h.997v.993Zm0-5.959h-.997v-.993h.997v.993Zm0-5.958h-.997v-.994h.997v.994Zm0-5.96h-.997v-.992h.997v.993Zm0-5.958h-.997v-.993h.997v.993Zm0-5.959h-.997v-.993h.997v.993Zm0-5.959h-.997v-.993h.997v.993Zm0-5.958h-.997V9.93h.997v.994Zm0-5.96h-.997v-.992h.997v.993Zm5.981 208.559h-.997v-.993h.997v.993Zm0-5.959h-.997v-.993h.997v.993Zm0-5.959h-.997v-.993h.997v.993Zm0-5.958h-.997v-.994h.997v.994Zm0-5.959h-.997v-.993h.997v.993Zm0-5.959h-.997v-.993h.997v.993Zm0-5.959h-.997v-.993h.997v.993Zm0-5.959h-.997v-.993h.997v.993Zm0-5.958h-.997v-.994h.997v.994Zm0-5.959h-.997v-.993h.997v.993Zm0-5.959h-.997v-.993h.997v.993Zm0-29.794h-.997v-.993h.997v.993Zm0-5.959h-.997v-.993h.997v.993Zm0-5.959h-.997v-.993h.997v.993Zm0-47.67h-.997v-.993h.997v.993Zm0-5.959h-.997v-.993h.997v.993Zm0-5.959h-.997v-.993h.997v.993Zm0-5.959h-.997v-.993h.997v.993Zm0-5.958h-.997v-.994h.997v.994Zm0-5.96h-.997v-.992h.997v.993Zm0-5.958h-.997v-.993h.997v.993Zm0-5.959h-.997v-.993h.997v.993Zm0-5.959h-.997v-.993h.997v.993Zm0-5.958h-.997V9.93h.997v.994Zm0-5.96h-.997v-.992h.997v.993Zm5.982 208.559h-.997v-.993h.997v.993Zm0-5.959h-.997v-.993h.997v.993Zm0-5.959h-.997v-.993h.997v.993Zm0-5.958h-.997v-.994h.997v.994Zm0-5.959h-.997v-.993h.997v.993Zm0-5.959h-.997v-.993h.997v.993Zm0-5.959h-.997v-.993h.997v.993Zm0-5.959h-.997v-.993h.997v.993Zm0-5.958h-.997v-.994h.997v.994Zm0-5.959h-.997v-.993h.997v.993Zm0-5.959h-.997v-.993h.997v.993Zm0-29.794h-.997v-.993h.997v.993Zm0-5.959h-.997v-.993h.997v.993Zm5.982 95.341h-.997v-.993h.997v.993Zm0-5.959h-.997v-.993h.997v.993Zm0-5.959h-.997v-.993h.997v.993Zm0-5.958h-.997v-.994h.997v.994Zm0-5.959h-.997v-.993h.997v.993Zm0-5.959h-.997v-.993h.997v.993Zm0-5.959h-.997v-.993h.997v.993Zm0-5.959h-.997v-.993h.997v.993Zm0-5.958h-.997v-.994h.997v.994Zm0-5.959h-.997v-.993h.997v.993Zm0-5.959h-.997v-.993h.997v.993Zm0-29.794h-.997v-.993h.997v.993Zm0-5.959h-.997v-.993h.997v.993Zm5.981 95.341h-.997v-.993h.997v.993Zm0-5.959h-.997v-.993h.997v.993Zm0-5.959h-.997v-.993h.997v.993Zm0-5.958h-.997v-.994h.997v.994Zm0-5.959h-.997v-.993h.997v.993Zm0-5.959h-.997v-.993h.997v.993Zm0-5.959h-.997v-.993h.997v.993Zm0-5.959h-.997v-.993h.997v.993Zm0-5.958h-.997v-.994h.997v.994Zm0-5.959h-.997v-.993h.997v.993Zm0-5.959h-.997v-.993h.997v.993Zm0-29.794h-.997v-.993h.997v.993Zm0-5.959h-.997v-.993h.997v.993Zm5.982 95.341h-.997v-.993h.997v.993Zm0-5.959h-.997v-.993h.997v.993Zm0-5.959h-.997v-.993h.997v.993Zm0-5.958h-.997v-.994h.997v.994Zm0-5.959h-.997v-.993h.997v.993Zm0-5.959h-.997v-.993h.997v.993Zm0-5.959h-.997v-.993h.997v.993Zm0-5.959h-.997v-.993h.997v.993Zm0-5.958h-.997v-.994h.997v.994Zm0-5.959h-.997v-.993h.997v.993Zm0-5.959h-.997v-.993h.997v.993Zm0-29.794h-.997v-.993h.997v.993Zm0-5.959h-.997v-.993h.997v.993Zm5.981 95.341h-.996v-.993h.996v.993Zm0-5.959h-.996v-.993h.996v.993Zm0-5.959h-.996v-.993h.996v.993Zm0-5.958h-.996v-.994h.996v.994Zm0-5.959h-.996v-.993h.996v.993Zm0-5.959h-.996v-.993h.996v.993Zm0-5.959h-.996v-.993h.996v.993Zm0-5.959h-.996v-.993h.996v.993Zm0-5.958h-.996v-.994h.996v.994Zm0-5.959h-.996v-.993h.996v.993Zm0-5.959h-.996v-.993h.996v.993Zm0-29.794h-.996v-.993h.996v.993Zm0-5.959h-.996v-.993h.996v.993ZM81.75 102.789c-8.26 0-14.954-6.668-14.954-14.897 0-8.228 6.694-14.896 14.954-14.896 8.26 0 14.954 6.668 14.954 14.897 0 8.228-6.695 14.896-14.954 14.896Zm18.443 110.735h-.997v-.993h.997v.993Zm0-5.959h-.997v-.993h.997v.993Zm0-5.959h-.997v-.993h.997v.993Zm0-5.958h-.997v-.994h.997v.994Zm0-5.959h-.997v-.993h.997v.993Zm0-5.959h-.997v-.993h.997v.993Zm0-5.959h-.997v-.993h.997v.993Zm0-5.959h-.997v-.993h.997v.993Zm0-5.958h-.997v-.994h.997v.994Zm0-5.959h-.997v-.993h.997v.993Zm0-5.959h-.997v-.993h.997v.993Zm0-29.794h-.997v-.993h.997v.993Zm0-5.959h-.997v-.993h.997v.993Zm0-5.959h-.997v-.993h.997v.993Zm0-47.67h-.997v-.993h.997v.993Zm0-5.959h-.997v-.993h.997v.993Zm0-5.959h-.997v-.993h.997v.993Zm0-5.959h-.997v-.993h.997v.993Zm0-5.958h-.997v-.994h.997v.994Zm0-5.96h-.997v-.992h.997v.993Zm0-5.958h-.997v-.993h.997v.993Zm0-5.959h-.997v-.993h.997v.993Zm0-5.959h-.997v-.993h.997v.993Zm0-5.958h-.997V9.93h.997v.994Zm0-5.96h-.997v-.992h.997v.993Zm5.982 208.559h-.997v-.993h.997v.993Zm0-5.959h-.997v-.993h.997v.993Zm0-5.959h-.997v-.993h.997v.993Zm0-5.958h-.997v-.994h.997v.994Zm0-5.959h-.997v-.993h.997v.993Zm0-5.959h-.997v-.993h.997v.993Zm0-5.959h-.997v-.993h.997v.993Zm0-5.959h-.997v-.993h.997v.993Zm0-5.958h-.997v-.994h.997v.994Zm0-5.959h-.997v-.993h.997v.993Zm0-5.959h-.997v-.993h.997v.993Zm0-29.794h-.997v-.993h.997v.993Zm0-5.959h-.997v-.993h.997v.993Zm0-5.959h-.997v-.993h.997v.993Zm0-5.959h-.997v-.993h.997v.993Zm0-35.752h-.997v-.994h.997v.994Zm0-5.96h-.997v-.992h.997v.993Zm0-5.958h-.997v-.993h.997v.993Zm0-5.959h-.997v-.993h.997v.993Zm0-5.959h-.997v-.993h.997v.993Zm0-5.958h-.997v-.994h.997v.994Zm0-5.96h-.997v-.992h.997v.993Zm0-5.958h-.997v-.993h.997v.993Zm0-5.959h-.997v-.993h.997v.993Zm0-5.959h-.997v-.993h.997v.993Zm0-5.958h-.997V9.93h.997v.994Zm0-5.96h-.997v-.992h.997v.993Zm5.981 208.559h-.997v-.993h.997v.993Zm0-5.959h-.997v-.993h.997v.993Zm0-5.959h-.997v-.993h.997v.993Zm0-5.958h-.997v-.994h.997v.994Zm0-5.959h-.997v-.993h.997v.993Zm0-5.959h-.997v-.993h.997v.993Zm0-5.959h-.997v-.993h.997v.993Zm0-5.959h-.997v-.993h.997v.993Zm0-5.958h-.997v-.994h.997v.994Zm0-5.959h-.997v-.993h.997v.993Zm0-5.959h-.997v-.993h.997v.993Zm0-29.794h-.997v-.993h.997v.993Zm0-5.959h-.997v-.993h.997v.993Zm0-5.959h-.997v-.993h.997v.993Zm0-5.959h-.997v-.993h.997v.993Zm0-5.958h-.997v-.993h.997v.993Zm0-5.96h-.997v-.992h.997v.993Zm0-5.958h-.997v-.993h.997v.993Zm0-5.959h-.997v-.993h.997v.993Zm0-5.959h-.997v-.993h.997v.993Zm0-5.958h-.997v-.994h.997v.994Zm0-5.96h-.997v-.992h.997v.993Zm0-5.958h-.997v-.993h.997v.993Zm0-5.959h-.997v-.993h.997v.993Zm0-5.959h-.997v-.993h.997v.993Zm0-5.958h-.997v-.994h.997v.994Zm0-5.96h-.997v-.992h.997v.993Zm0-5.958h-.997v-.993h.997v.993Zm0-5.959h-.997v-.993h.997v.993Zm0-5.959h-.997v-.993h.997v.993Zm0-5.958h-.997V9.93h.997v.994Zm0-5.96h-.997v-.992h.997v.993Zm5.982 208.559h-.997v-.993h.997v.993Zm0-5.959h-.997v-.993h.997v.993Zm0-5.959h-.997v-.993h.997v.993Zm0-5.958h-.997v-.994h.997v.994Zm0-5.959h-.997v-.993h.997v.993Zm0-5.959h-.997v-.993h.997v.993Zm0-5.959h-.997v-.993h.997v.993Zm0-5.959h-.997v-.993h.997v.993Zm0-5.958h-.997v-.994h.997v.994Zm0-5.959h-.997v-.993h.997v.993Zm0-5.959h-.997v-.993h.997v.993Zm0-5.959h-.997v-.993h.997v.993Zm0-5.959h-.997v-.993h.997v.993Zm0-17.876h-.997v-.993h.997v.993Zm0-5.959h-.997v-.993h.997v.993Zm0-5.959h-.997v-.993h.997v.993Zm0-5.959h-.997v-.993h.997v.993Zm0-5.958h-.997v-.993h.997v.993Zm0-5.96h-.997v-.992h.997v.993Zm0-5.958h-.997v-.993h.997v.993Zm0-5.959h-.997v-.993h.997v.993Zm0-5.959h-.997v-.993h.997v.993Zm0-5.958h-.997v-.994h.997v.994Zm0-5.96h-.997v-.992h.997v.993Zm0-5.958h-.997v-.993h.997v.993Zm0-5.959h-.997v-.993h.997v.993Zm0-5.959h-.997v-.993h.997v.993Zm0-5.958h-.997v-.994h.997v.994Zm0-5.96h-.997v-.992h.997v.993Zm0-5.958h-.997v-.993h.997v.993Zm0-5.959h-.997v-.993h.997v.993Zm0-5.959h-.997v-.993h.997v.993Zm0-5.958h-.997V9.93h.997v.994Zm0-5.96h-.997v-.992h.997v.993Zm5.982 208.559h-.997v-.993h.997v.993Zm0-5.959h-.997v-.993h.997v.993Zm0-5.959h-.997v-.993h.997v.993Zm0-5.958h-.997v-.994h.997v.994Zm0-5.959h-.997v-.993h.997v.993Zm0-5.959h-.997v-.993h.997v.993Zm0-5.959h-.997v-.993h.997v.993Zm0-5.959h-.997v-.993h.997v.993Zm0-5.958h-.997v-.994h.997v.994Zm0-5.959h-.997v-.993h.997v.993Zm0-5.959h-.997v-.993h.997v.993Zm0-5.959h-.997v-.993h.997v.993Zm0-5.959h-.997v-.993h.997v.993Zm0-5.958h-.997v-.994h.997v.994Zm0-5.959h-.997v-.993h.997v.993Zm0-5.959h-.997v-.993h.997v.993Zm0-5.959h-.997v-.993h.997v.993Zm0-5.959h-.997v-.993h.997v.993Zm0-5.959h-.997v-.993h.997v.993Zm0-5.958h-.997v-.993h.997v.993Zm0-5.96h-.997v-.992h.997v.993Zm0-5.958h-.997v-.993h.997v.993Zm0-5.959h-.997v-.993h.997v.993Zm0-5.959h-.997v-.993h.997v.993Zm0-5.958h-.997v-.994h.997v.994Zm0-5.96h-.997v-.992h.997v.993Zm0-5.958h-.997v-.993h.997v.993Zm0-5.959h-.997v-.993h.997v.993Zm0-5.959h-.997v-.993h.997v.993Zm0-5.958h-.997v-.994h.997v.994Zm0-5.96h-.997v-.992h.997v.993Zm0-5.958h-.997v-.993h.997v.993Zm0-5.959h-.997v-.993h.997v.993Zm0-5.959h-.997v-.993h.997v.993Zm0-5.958h-.997V9.93h.997v.994Zm0-5.96h-.997v-.992h.997v.993Zm5.981 208.559h-.997v-.993h.997v.993Zm0-5.959h-.997v-.993h.997v.993Zm0-5.959h-.997v-.993h.997v.993Zm0-5.958h-.997v-.994h.997v.994Zm0-5.959h-.997v-.993h.997v.993Zm0-5.959h-.997v-.993h.997v.993Zm0-5.959h-.997v-.993h.997v.993Zm0-5.959h-.997v-.993h.997v.993Zm0-5.958h-.997v-.994h.997v.994Zm0-5.959h-.997v-.993h.997v.993Zm0-5.959h-.997v-.993h.997v.993Zm0-5.959h-.997v-.993h.997v.993Zm0-5.959h-.997v-.993h.997v.993Zm0-5.958h-.997v-.994h.997v.994Zm0-5.959h-.997v-.993h.997v.993Zm0-5.959h-.997v-.993h.997v.993Zm0-5.959h-.997v-.993h.997v.993Zm0-5.959h-.997v-.993h.997v.993Zm0-5.959h-.997v-.993h.997v.993Zm0-5.958h-.997v-.993h.997v.993Zm0-5.96h-.997v-.992h.997v.993Zm0-5.958h-.997v-.993h.997v.993Zm0-5.959h-.997v-.993h.997v.993Zm0-5.959h-.997v-.993h.997v.993Zm0-5.958h-.997v-.994h.997v.994Zm0-5.96h-.997v-.992h.997v.993Zm0-5.958h-.997v-.993h.997v.993Zm0-5.959h-.997v-.993h.997v.993Zm0-5.959h-.997v-.993h.997v.993Zm0-5.958h-.997v-.994h.997v.994Zm0-5.96h-.997v-.992h.997v.993Zm0-5.958h-.997v-.993h.997v.993Zm0-5.959h-.997v-.993h.997v.993Zm0-5.959h-.997v-.993h.997v.993Zm0-5.958h-.997V9.93h.997v.994Zm0-5.96h-.997v-.992h.997v.993Zm5.982 208.559h-.997v-.993h.997v.993Zm0-5.959h-.997v-.993h.997v.993Zm0-5.959h-.997v-.993h.997v.993Zm0-5.958h-.997v-.994h.997v.994Zm0-5.959h-.997v-.993h.997v.993Zm0-5.959h-.997v-.993h.997v.993Zm0-5.959h-.997v-.993h.997v.993Zm0-5.959h-.997v-.993h.997v.993Zm0-5.958h-.997v-.994h.997v.994Zm0-5.959h-.997v-.993h.997v.993Zm0-5.959h-.997v-.993h.997v.993Zm0-5.959h-.997v-.993h.997v.993Zm0-5.959h-.997v-.993h.997v.993Zm0-5.958h-.997v-.994h.997v.994Zm0-5.959h-.997v-.993h.997v.993Zm0-5.959h-.997v-.993h.997v.993Zm0-5.959h-.997v-.993h.997v.993Zm0-5.959h-.997v-.993h.997v.993Zm0-5.959h-.997v-.993h.997v.993Zm0-5.958h-.997v-.993h.997v.993Zm0-5.96h-.997v-.992h.997v.993Zm0-5.958h-.997v-.993h.997v.993Zm0-5.959h-.997v-.993h.997v.993Zm0-5.959h-.997v-.993h.997v.993Zm0-5.958h-.997v-.994h.997v.994Zm0-5.96h-.997v-.992h.997v.993Zm0-5.958h-.997v-.993h.997v.993Zm0-5.959h-.997v-.993h.997v.993Zm0-5.959h-.997v-.993h.997v.993Zm0-5.958h-.997v-.994h.997v.994Zm0-5.96h-.997v-.992h.997v.993Zm0-5.958h-.997v-.993h.997v.993Zm0-5.959h-.997v-.993h.997v.993Zm0-5.959h-.997v-.993h.997v.993Zm0-5.958h-.997V9.93h.997v.994Zm0-5.96h-.997v-.992h.997v.993Zm5.981 208.559h-.996v-.993h.996v.993Zm0-5.959h-.996v-.993h.996v.993Zm0-5.959h-.996v-.993h.996v.993Zm0-5.958h-.996v-.994h.996v.994Zm0-5.959h-.996v-.993h.996v.993Zm0-5.959h-.996v-.993h.996v.993Zm0-5.959h-.996v-.993h.996v.993Zm0-5.959h-.996v-.993h.996v.993Zm0-5.958h-.996v-.994h.996v.994Zm0-5.959h-.996v-.993h.996v.993Zm0-5.959h-.996v-.993h.996v.993Zm0-5.959h-.996v-.993h.996v.993Zm0-5.959h-.996v-.993h.996v.993Zm0-5.958h-.996v-.994h.996v.994Zm0-5.959h-.996v-.993h.996v.993Zm0-5.959h-.996v-.993h.996v.993Zm0-5.959h-.996v-.993h.996v.993Zm0-5.959h-.996v-.993h.996v.993Zm0-5.959h-.996v-.993h.996v.993Zm0-5.958h-.996v-.993h.996v.993Zm0-5.96h-.996v-.992h.996v.993Zm0-5.958h-.996v-.993h.996v.993Zm0-5.959h-.996v-.993h.996v.993Zm0-5.959h-.996v-.993h.996v.993Zm0-5.958h-.996v-.994h.996v.994Zm0-5.96h-.996v-.992h.996v.993Zm0-5.958h-.996v-.993h.996v.993Zm0-5.959h-.996v-.993h.996v.993Zm0-5.959h-.996v-.993h.996v.993Zm0-5.958h-.996v-.994h.996v.994Zm0-5.96h-.996v-.992h.996v.993Zm0-5.958h-.996v-.993h.996v.993Zm0-5.959h-.996v-.993h.996v.993Zm0-5.959h-.996v-.993h.996v.993Zm0-5.958h-.996V9.93h.996v.994Zm0-5.96h-.996v-.992h.996v.993Zm5.982 208.559h-.997v-.993h.997v.993Zm0-5.959h-.997v-.993h.997v.993Zm0-5.959h-.997v-.993h.997v.993Zm0-5.958h-.997v-.994h.997v.994Zm0-5.959h-.997v-.993h.997v.993Zm0-5.959h-.997v-.993h.997v.993Zm0-5.959h-.997v-.993h.997v.993Zm0-5.959h-.997v-.993h.997v.993Zm0-5.958h-.997v-.994h.997v.994Zm0-5.959h-.997v-.993h.997v.993Zm0-5.959h-.997v-.993h.997v.993Zm0-5.959h-.997v-.993h.997v.993Zm0-5.959h-.997v-.993h.997v.993Zm0-5.958h-.997v-.994h.997v.994Zm0-5.959h-.997v-.993h.997v.993Zm0-5.959h-.997v-.993h.997v.993Zm0-5.959h-.997v-.993h.997v.993Zm0-5.959h-.997v-.993h.997v.993Zm0-5.959h-.997v-.993h.997v.993Zm0-5.958h-.997v-.993h.997v.993Zm0-5.96h-.997v-.992h.997v.993Zm0-5.958h-.997v-.993h.997v.993Zm0-5.959h-.997v-.993h.997v.993Zm0-5.959h-.997v-.993h.997v.993Zm0-5.958h-.997v-.994h.997v.994Zm0-5.96h-.997v-.992h.997v.993Zm0-5.958h-.997v-.993h.997v.993Zm0-5.959h-.997v-.993h.997v.993Zm0-5.959h-.997v-.993h.997v.993Zm0-5.958h-.997v-.994h.997v.994Zm0-5.96h-.997v-.992h.997v.993Zm0-5.958h-.997v-.993h.997v.993Zm0-5.959h-.997v-.993h.997v.993Zm0-17.876h-.997v-.993h.997v.993Zm5.982 208.558h-.997v-.993h.997v.993Zm0-5.959h-.997v-.993h.997v.993Zm0-5.959h-.997v-.993h.997v.993Zm0-5.958h-.997v-.994h.997v.994Zm0-5.959h-.997v-.993h.997v.993Zm0-5.959h-.997v-.993h.997v.993Zm0-5.959h-.997v-.993h.997v.993Zm0-5.959h-.997v-.993h.997v.993Zm0-5.958h-.997v-.994h.997v.994Zm0-5.959h-.997v-.993h.997v.993Zm0-5.959h-.997v-.993h.997v.993Zm0-5.959h-.997v-.993h.997v.993Zm0-5.959h-.997v-.993h.997v.993Zm0-5.958h-.997v-.994h.997v.994Zm0-5.959h-.997v-.993h.997v.993Zm0-5.959h-.997v-.993h.997v.993Zm0-5.959h-.997v-.993h.997v.993Zm0-5.959h-.997v-.993h.997v.993Zm0-5.959h-.997v-.993h.997v.993Zm0-5.958h-.997v-.993h.997v.993Zm0-5.96h-.997v-.992h.997v.993Zm0-5.958h-.997v-.993h.997v.993Zm0-5.959h-.997v-.993h.997v.993Zm0-5.959h-.997v-.993h.997v.993Zm0-5.958h-.997v-.994h.997v.994Zm0-5.96h-.997v-.992h.997v.993Zm0-5.958h-.997v-.993h.997v.993Zm0-5.959h-.997v-.993h.997v.993Zm0-5.959h-.997v-.993h.997v.993Zm0-5.958h-.997v-.994h.997v.994Zm0-5.96h-.997v-.992h.997v.993Zm0-5.958h-.997v-.993h.997v.993Zm0-5.959h-.997v-.993h.997v.993Zm0-17.876h-.997v-.993h.997v.993Zm5.981 202.599h-.997v-.993h.997v.993Zm0-5.959h-.997v-.993h.997v.993Zm0-5.958h-.997v-.994h.997v.994Zm0-5.959h-.997v-.993h.997v.993Zm0-5.959h-.997v-.993h.997v.993Zm0-5.959h-.997v-.993h.997v.993Zm0-5.959h-.997v-.993h.997v.993Zm0-5.958h-.997v-.994h.997v.994Zm0-5.959h-.997v-.993h.997v.993Zm0-5.959h-.997v-.993h.997v.993Zm0-5.959h-.997v-.993h.997v.993Zm0-5.959h-.997v-.993h.997v.993Zm0-5.958h-.997v-.994h.997v.994Zm0-5.959h-.997v-.993h.997v.993Zm0-5.959h-.997v-.993h.997v.993Zm0-5.959h-.997v-.993h.997v.993Zm0-5.959h-.997v-.993h.997v.993Zm0-5.959h-.997v-.993h.997v.993Zm0-5.958h-.997v-.993h.997v.993Zm0-5.96h-.997v-.992h.997v.993Zm0-5.958h-.997v-.993h.997v.993Zm0-5.959h-.997v-.993h.997v.993Zm0-5.959h-.997v-.993h.997v.993Zm0-5.958h-.997v-.994h.997v.994Zm0-5.96h-.997v-.992h.997v.993Zm0-5.958h-.997v-.993h.997v.993Zm0-5.959h-.997v-.993h.997v.993Zm0-5.959h-.997v-.993h.997v.993Zm0-5.958h-.997v-.994h.997v.994Zm0-5.96h-.997v-.992h.997v.993Zm0-5.958h-.997v-.993h.997v.993Zm0-5.959h-.997v-.993h.997v.993Zm0-5.959h-.997v-.993h.997v.993Zm0-5.958h-.997V9.93h.997v.994Z"/><path fill="url(#e)" d="M155.024.993H7.975C3.57.993 0 4.55 0 8.938v200.117C0 213.445 3.569 217 7.975 217h147.049c4.406 0 7.975-3.555 7.975-7.945V8.938c0-4.39-3.569-7.945-7.975-7.945ZM4.486 207.565H3.49v-.993h.997v.993Zm0-5.959H3.49v-.993h.997v.993Zm0-5.958H3.49v-.994h.997v.994Zm0-5.959H3.49v-.993h.997v.993Zm0-5.959H3.49v-.993h.997v.993Zm0-5.959H3.49v-.993h.997v.993Zm0-5.959H3.49v-.993h.997v.993Zm0-5.958H3.49v-.994h.997v.994Zm0-5.959H3.49v-.993h.997v.993Zm0-5.959H3.49v-.993h.997v.993Zm0-5.959H3.49v-.993h.997v.993Zm0-5.959H3.49v-.993h.997v.993Zm0-5.958H3.49v-.994h.997v.994Zm0-5.959H3.49v-.993h.997v.993Zm0-5.959H3.49v-.993h.997v.993Zm0-5.959H3.49v-.993h.997v.993Zm0-5.959H3.49v-.993h.997v.993Zm0-5.959H3.49v-.993h.997v.993Zm0-5.958H3.49v-.993h.997v.993Zm0-5.96H3.49v-.992h.997v.993Zm0-5.958H3.49v-.993h.997v.993Zm0-5.959H3.49v-.993h.997v.993Zm0-5.959H3.49v-.993h.997v.993Zm0-5.958H3.49v-.994h.997v.994Zm0-5.96H3.49v-.992h.997v.993Zm0-5.958H3.49v-.993h.997v.993Zm0-5.959H3.49v-.993h.997v.993Zm0-5.959H3.49v-.993h.997v.993Zm0-5.958H3.49v-.994h.997v.994Zm0-5.96H3.49v-.992h.997v.993Zm0-5.958H3.49v-.993h.997v.993Zm0-5.959H3.49v-.993h.997v.993Zm0-5.959H3.49v-.993h.997v.993Zm0-5.958H3.49V9.93h.997v.994Zm88.728-6.952h.996v.993h-.996v-.993Zm0 5.958h.996v.994h-.996V9.93Zm0 5.96h.996v.992h-.996v-.993Zm0 5.958h.996v.993h-.996v-.993Zm0 5.959h.996v.993h-.996v-.993Zm0 5.959h.996v.993h-.996v-.993Zm0 5.958h.996v.994h-.996v-.994Zm0 5.96h.996v.992h-.996v-.993Zm0 5.958h.996v.993h-.996v-.993Zm0 5.959h.996v.993h-.996v-.993Zm-5.982-53.63h.997v.994h-.997v-.993Zm0 5.96h.997v.992h-.997v-.993Zm0 5.958h.997v.993h-.997v-.993Zm0 5.959h.997v.993h-.997v-.993Zm0 5.959h.997v.993h-.997v-.993Zm0 5.959h.997v.993h-.997v-.993Zm0 5.958h.997v.994h-.997v-.994Zm0 5.96h.997v.992h-.997v-.993Zm0 5.958h.997v.993h-.997v-.993Zm0 5.959h.997v.993h-.997v-.993ZM81.25 3.972h.997v.994h-.997v-.993Zm0 5.96h.997v.992h-.997v-.993Zm0 5.958h.997v.993h-.997v-.993Zm0 5.959h.997v.993h-.997v-.993Zm0 5.959h.997v.993h-.997v-.993Zm0 5.959h.997v.993h-.997v-.993Zm0 5.958h.997v.994h-.997v-.994Zm0 5.96h.997v.992h-.997v-.993Zm0 5.958h.997v.993h-.997v-.993Zm0 5.959h.997v.993h-.997v-.993ZM75.27 3.972h.997v.994h-.997v-.993Zm0 5.96h.997v.992h-.997v-.993Zm0 5.958h.997v.993h-.997v-.993Zm0 5.959h.997v.993h-.997v-.993Zm0 5.959h.997v.993h-.997v-.993Zm0 5.959h.997v.993h-.997v-.993Zm0 5.958h.997v.994h-.997v-.994Zm0 5.96h.997v.992h-.997v-.993Zm0 5.958h.997v.993h-.997v-.993Zm0 5.959h.997v.993h-.997v-.993Zm-5.982-53.63h.997v.994h-.997v-.993Zm0 5.96h.997v.992h-.997v-.993Zm0 5.958h.997v.993h-.997v-.993Zm0 5.959h.997v.993h-.997v-.993Zm0 5.959h.997v.993h-.997v-.993Zm0 5.959h.997v.993h-.997v-.993Zm0 5.958h.997v.994h-.997v-.994Zm0 5.96h.997v.992h-.997v-.993Zm0 5.958h.997v.993h-.997v-.993Zm0 5.959h.997v.993h-.997v-.993Zm-58.82 155.922h-.996v-.993h.997v.993Zm0-5.959h-.996v-.993h.997v.993Zm0-5.959h-.996v-.993h.997v.993Zm0-5.958h-.996v-.994h.997v.994Zm0-5.959h-.996v-.993h.997v.993Zm0-5.959h-.996v-.993h.997v.993Zm0-5.959h-.996v-.993h.997v.993Zm0-5.959h-.996v-.993h.997v.993Zm0-5.958h-.996v-.994h.997v.994Zm0-5.959h-.996v-.993h.997v.993Zm0-5.959h-.996v-.993h.997v.993Zm0-5.959h-.996v-.993h.997v.993Zm0-5.959h-.996v-.993h.997v.993Zm0-5.958h-.996v-.994h.997v.994Zm0-5.959h-.996v-.993h.997v.993Zm0-5.959h-.996v-.993h.997v.993Zm0-5.959h-.996v-.993h.997v.993Zm0-5.959h-.996v-.993h.997v.993Zm0-5.959h-.996v-.993h.997v.993Zm0-5.958h-.996v-.993h.997v.993Zm0-5.96h-.996v-.992h.997v.993Zm0-5.958h-.996v-.993h.997v.993Zm0-5.959h-.996v-.993h.997v.993Zm0-5.959h-.996v-.993h.997v.993Zm0-5.958h-.996v-.994h.997v.994Zm0-5.96h-.996v-.992h.997v.993Zm0-5.958h-.996v-.993h.997v.993Zm0-5.959h-.996v-.993h.997v.993Zm0-5.959h-.996v-.993h.997v.993Zm0-5.958h-.996v-.994h.997v.994Zm0-5.96h-.996v-.992h.997v.993Zm0-5.958h-.996v-.993h.997v.993Zm0-5.959h-.996v-.993h.997v.993Zm0-5.959h-.996v-.993h.997v.993Zm0-5.958h-.996V9.93h.997v.994Zm0-5.96h-.996v-.992h.997v.993Zm5.982 208.559h-.997v-.993h.998v.993Zm0-5.959h-.997v-.993h.998v.993Zm0-5.959h-.997v-.993h.998v.993Zm0-5.958h-.997v-.994h.998v.994Zm0-5.959h-.997v-.993h.998v.993Zm0-5.959h-.997v-.993h.998v.993Zm0-5.959h-.997v-.993h.998v.993Zm0-5.959h-.997v-.993h.998v.993Zm0-5.958h-.997v-.994h.998v.994Zm0-5.959h-.997v-.993h.998v.993Zm0-5.959h-.997v-.993h.998v.993Zm0-5.959h-.997v-.993h.998v.993Zm0-5.959h-.997v-.993h.998v.993Zm0-5.958h-.997v-.994h.998v.994Zm0-5.959h-.997v-.993h.998v.993Zm0-5.959h-.997v-.993h.998v.993Zm0-5.959h-.997v-.993h.998v.993Zm0-5.959h-.997v-.993h.998v.993Zm0-5.959h-.997v-.993h.998v.993Zm0-5.958h-.997v-.993h.998v.993Zm0-5.96h-.997v-.992h.998v.993Zm0-5.958h-.997v-.993h.998v.993Zm0-5.959h-.997v-.993h.998v.993Zm0-5.959h-.997v-.993h.998v.993Zm0-5.958h-.997v-.994h.998v.994Zm0-5.96h-.997v-.992h.998v.993Zm0-5.958h-.997v-.993h.998v.993Zm0-5.959h-.997v-.993h.998v.993Zm0-5.959h-.997v-.993h.998v.993Zm0-5.958h-.997v-.994h.998v.994Zm0-5.96h-.997v-.992h.998v.993Zm0-5.958h-.997v-.993h.998v.993Zm0-5.959h-.997v-.993h.998v.993Zm0-5.959h-.997v-.993h.998v.993Zm0-5.958h-.997V9.93h.998v.994Zm0-5.96h-.997v-.992h.998v.993Zm5.982 208.559h-.997v-.993h.997v.993Zm0-5.959h-.997v-.993h.997v.993Zm0-5.959h-.997v-.993h.997v.993Zm0-5.958h-.997v-.994h.997v.994Zm0-5.959h-.997v-.993h.997v.993Zm0-5.959h-.997v-.993h.997v.993Zm0-5.959h-.997v-.993h.997v.993Zm0-5.959h-.997v-.993h.997v.993Zm0-5.958h-.997v-.994h.997v.994Zm0-5.959h-.997v-.993h.997v.993Zm0-5.959h-.997v-.993h.997v.993Zm0-5.959h-.997v-.993h.997v.993Zm0-5.959h-.997v-.993h.997v.993Zm0-5.958h-.997v-.994h.997v.994Zm0-5.959h-.997v-.993h.997v.993Zm0-5.959h-.997v-.993h.997v.993Zm0-5.959h-.997v-.993h.997v.993Zm0-5.959h-.997v-.993h.997v.993Zm0-5.959h-.997v-.993h.997v.993Zm0-5.958h-.997v-.993h.997v.993Zm0-5.96h-.997v-.992h.997v.993Zm0-5.958h-.997v-.993h.997v.993Zm0-5.959h-.997v-.993h.997v.993Zm0-5.959h-.997v-.993h.997v.993Zm0-5.958h-.997v-.994h.997v.994Zm0-5.96h-.997v-.992h.997v.993Zm0-5.958h-.997v-.993h.997v.993Zm0-5.959h-.997v-.993h.997v.993Zm0-5.959h-.997v-.993h.997v.993Zm0-5.958h-.997v-.994h.997v.994Zm0-5.96h-.997v-.992h.997v.993Zm0-5.958h-.997v-.993h.997v.993Zm0-5.959h-.997v-.993h.997v.993Zm0-5.959h-.997v-.993h.997v.993Zm0-5.958h-.997V9.93h.997v.994Zm0-5.96h-.997v-.992h.997v.993Zm5.982 208.559h-.997v-.993h.997v.993Zm0-5.959h-.997v-.993h.997v.993Zm0-5.959h-.997v-.993h.997v.993Zm0-5.958h-.997v-.994h.997v.994Zm0-5.959h-.997v-.993h.997v.993Zm0-5.959h-.997v-.993h.997v.993Zm0-5.959h-.997v-.993h.997v.993Zm0-5.959h-.997v-.993h.997v.993Zm0-5.958h-.997v-.994h.997v.994Zm0-5.959h-.997v-.993h.997v.993Zm0-5.959h-.997v-.993h.997v.993Zm0-5.959h-.997v-.993h.997v.993Zm0-5.959h-.997v-.993h.997v.993Zm0-5.958h-.997v-.994h.997v.994Zm0-5.959h-.997v-.993h.997v.993Zm0-5.959h-.997v-.993h.997v.993Zm0-5.959h-.997v-.993h.997v.993Zm0-5.959h-.997v-.993h.997v.993Zm0-5.959h-.997v-.993h.997v.993Zm0-5.958h-.997v-.993h.997v.993Zm0-5.96h-.997v-.992h.997v.993Zm0-5.958h-.997v-.993h.997v.993Zm0-5.959h-.997v-.993h.997v.993Zm0-5.959h-.997v-.993h.997v.993Zm0-5.958h-.997v-.994h.997v.994Zm0-5.96h-.997v-.992h.997v.993Zm0-5.958h-.997v-.993h.997v.993Zm0-5.959h-.997v-.993h.997v.993Zm0-5.959h-.997v-.993h.997v.993Zm0-5.958h-.997v-.994h.997v.994Zm0-5.96h-.997v-.992h.997v.993Zm0-5.958h-.997v-.993h.997v.993Zm0-5.959h-.997v-.993h.997v.993Zm0-5.959h-.997v-.993h.997v.993Zm0-5.958h-.997V9.93h.997v.994Zm0-5.96h-.997v-.992h.997v.993Zm5.981 208.559h-.997v-.993h.997v.993Zm0-5.959h-.997v-.993h.997v.993Zm0-5.959h-.997v-.993h.997v.993Zm0-5.958h-.997v-.994h.997v.994Zm0-5.959h-.997v-.993h.997v.993Zm0-5.959h-.997v-.993h.997v.993Zm0-5.959h-.997v-.993h.997v.993Zm0-5.959h-.997v-.993h.997v.993Zm0-5.958h-.997v-.994h.997v.994Zm0-5.959h-.997v-.993h.997v.993Zm0-5.959h-.997v-.993h.997v.993Zm0-5.959h-.997v-.993h.997v.993Zm0-5.959h-.997v-.993h.997v.993Zm0-5.958h-.997v-.994h.997v.994Zm0-5.959h-.997v-.993h.997v.993Zm0-5.959h-.997v-.993h.997v.993Zm0-5.959h-.997v-.993h.997v.993Zm0-5.959h-.997v-.993h.997v.993Zm0-5.959h-.997v-.993h.997v.993Zm0-5.958h-.997v-.993h.997v.993Zm0-5.96h-.997v-.992h.997v.993Zm0-5.958h-.997v-.993h.997v.993Zm0-5.959h-.997v-.993h.997v.993Zm0-5.959h-.997v-.993h.997v.993Zm0-5.958h-.997v-.994h.997v.994Zm0-5.96h-.997v-.992h.997v.993Zm0-5.958h-.997v-.993h.997v.993Zm0-5.959h-.997v-.993h.997v.993Zm0-5.959h-.997v-.993h.997v.993Zm0-5.958h-.997v-.994h.997v.994Zm0-5.96h-.997v-.992h.997v.993Zm0-5.958h-.997v-.993h.997v.993Zm0-5.959h-.997v-.993h.997v.993Zm0-5.959h-.997v-.993h.997v.993Zm0-5.958h-.997V9.93h.997v.994Zm0-5.96h-.997v-.992h.997v.993Zm5.982 208.559h-.997v-.993h.997v.993Zm0-5.959h-.997v-.993h.997v.993Zm0-5.959h-.997v-.993h.997v.993Zm0-5.958h-.997v-.994h.997v.994Zm0-5.959h-.997v-.993h.997v.993Zm0-5.959h-.997v-.993h.997v.993Zm0-5.959h-.997v-.993h.997v.993Zm0-5.959h-.997v-.993h.997v.993Zm0-5.958h-.997v-.994h.997v.994Zm0-5.959h-.997v-.993h.997v.993Zm0-5.959h-.997v-.993h.997v.993Zm0-5.959h-.997v-.993h.997v.993Zm0-5.959h-.997v-.993h.997v.993Zm0-5.958h-.997v-.994h.997v.994Zm0-5.959h-.997v-.993h.997v.993Zm0-5.959h-.997v-.993h.997v.993Zm0-5.959h-.997v-.993h.997v.993Zm0-5.959h-.997v-.993h.997v.993Zm0-5.959h-.997v-.993h.997v.993Zm0-5.958h-.997v-.993h.997v.993Zm0-5.96h-.997v-.992h.997v.993Zm0-5.958h-.997v-.993h.997v.993Zm0-5.959h-.997v-.993h.997v.993Zm0-5.959h-.997v-.993h.997v.993Zm0-5.958h-.997v-.994h.997v.994Zm0-5.96h-.997v-.992h.997v.993Zm0-5.958h-.997v-.993h.997v.993Zm0-5.959h-.997v-.993h.997v.993Zm0-5.959h-.997v-.993h.997v.993Zm0-5.958h-.997v-.994h.997v.994Zm0-5.96h-.997v-.992h.997v.993Zm0-5.958h-.997v-.993h.997v.993Zm0-5.959h-.997v-.993h.997v.993Zm0-5.959h-.997v-.993h.997v.993Zm0-5.958h-.997V9.93h.997v.994Zm0-5.96h-.997v-.992h.997v.993Zm5.982 208.559h-.997v-.993h.997v.993Zm0-5.959h-.997v-.993h.997v.993Zm0-5.959h-.997v-.993h.997v.993Zm0-5.958h-.997v-.994h.997v.994Zm0-5.959h-.997v-.993h.997v.993Zm0-5.959h-.997v-.993h.997v.993Zm0-5.959h-.997v-.993h.997v.993Zm0-5.959h-.997v-.993h.997v.993Zm0-5.958h-.997v-.994h.997v.994Zm0-5.959h-.997v-.993h.997v.993Zm0-5.959h-.997v-.993h.997v.993Zm0-5.959h-.997v-.993h.997v.993Zm0-5.959h-.997v-.993h.997v.993Zm0-17.876h-.997v-.993h.997v.993Zm0-5.959h-.997v-.993h.997v.993Zm0-5.959h-.997v-.993h.997v.993Zm0-5.959h-.997v-.993h.997v.993Zm0-5.958h-.997v-.993h.997v.993Zm0-5.96h-.997v-.992h.997v.993Zm0-5.958h-.997v-.993h.997v.993Zm0-5.959h-.997v-.993h.997v.993Zm0-5.959h-.997v-.993h.997v.993Zm0-5.958h-.997v-.994h.997v.994Zm0-5.96h-.997v-.992h.997v.993Zm0-5.958h-.997v-.993h.997v.993Zm0-5.959h-.997v-.993h.997v.993Zm0-5.959h-.997v-.993h.997v.993Zm0-5.958h-.997v-.994h.997v.994Zm0-5.96h-.997v-.992h.997v.993Zm0-5.958h-.997v-.993h.997v.993Zm0-5.959h-.997v-.993h.997v.993Zm0-5.959h-.997v-.993h.997v.993Zm0-5.958h-.997V9.93h.997v.994Zm0-5.96h-.997v-.992h.997v.993Zm5.981 208.559h-.997v-.993h.997v.993Zm0-5.959h-.997v-.993h.997v.993Zm0-5.959h-.997v-.993h.997v.993Zm0-5.958h-.997v-.994h.997v.994Zm0-5.959h-.997v-.993h.997v.993Zm0-5.959h-.997v-.993h.997v.993Zm0-5.959h-.997v-.993h.997v.993Zm0-5.959h-.997v-.993h.997v.993Zm0-5.958h-.997v-.994h.997v.994Zm0-5.959h-.997v-.993h.997v.993Zm0-5.959h-.997v-.993h.997v.993Zm0-29.794h-.997v-.993h.997v.993Zm0-5.959h-.997v-.993h.997v.993Zm0-5.959h-.997v-.993h.997v.993Zm0-5.959h-.997v-.993h.997v.993Zm0-5.958h-.997v-.993h.997v.993Zm0-5.96h-.997v-.992h.997v.993Zm0-5.958h-.997v-.993h.997v.993Zm0-5.959h-.997v-.993h.997v.993Zm0-5.959h-.997v-.993h.997v.993Zm0-5.958h-.997v-.994h.997v.994Zm0-5.96h-.997v-.992h.997v.993Zm0-5.958h-.997v-.993h.997v.993Zm0-5.959h-.997v-.993h.997v.993Zm0-5.959h-.997v-.993h.997v.993Zm0-5.958h-.997v-.994h.997v.994Zm0-5.96h-.997v-.992h.997v.993Zm0-5.958h-.997v-.993h.997v.993Zm0-5.959h-.997v-.993h.997v.993Zm0-5.959h-.997v-.993h.997v.993Zm0-5.958h-.997V9.93h.997v.994Zm0-5.96h-.997v-.992h.997v.993Zm5.982 208.559h-.997v-.993h.997v.993Zm0-5.959h-.997v-.993h.997v.993Zm0-5.959h-.997v-.993h.997v.993Zm0-5.958h-.997v-.994h.997v.994Zm0-5.959h-.997v-.993h.997v.993Zm0-5.959h-.997v-.993h.997v.993Zm0-5.959h-.997v-.993h.997v.993Zm0-5.959h-.997v-.993h.997v.993Zm0-5.958h-.997v-.994h.997v.994Zm0-5.959h-.997v-.993h.997v.993Zm0-5.959h-.997v-.993h.997v.993Zm0-29.794h-.997v-.993h.997v.993Zm0-5.959h-.997v-.993h.997v.993Zm0-5.959h-.997v-.993h.997v.993Zm0-5.959h-.997v-.993h.997v.993Zm0-35.752h-.997v-.994h.997v.994Zm0-5.96h-.997v-.992h.997v.993Zm0-5.958h-.997v-.993h.997v.993Zm0-5.959h-.997v-.993h.997v.993Zm0-5.959h-.997v-.993h.997v.993Zm0-5.958h-.997v-.994h.997v.994Zm0-5.96h-.997v-.992h.997v.993Zm0-5.958h-.997v-.993h.997v.993Zm0-5.959h-.997v-.993h.997v.993Zm0-5.959h-.997v-.993h.997v.993Zm0-5.958h-.997V9.93h.997v.994Zm0-5.96h-.997v-.992h.997v.993Zm5.981 208.559h-.997v-.993h.997v.993Zm0-5.959h-.997v-.993h.997v.993Zm0-5.959h-.997v-.993h.997v.993Zm0-5.958h-.997v-.994h.997v.994Zm0-5.959h-.997v-.993h.997v.993Zm0-5.959h-.997v-.993h.997v.993Zm0-5.959h-.997v-.993h.997v.993Zm0-5.959h-.997v-.993h.997v.993Zm0-5.958h-.997v-.994h.997v.994Zm0-5.959h-.997v-.993h.997v.993Zm0-5.959h-.997v-.993h.997v.993Zm0-29.794h-.997v-.993h.997v.993Zm0-5.959h-.997v-.993h.997v.993Zm0-5.959h-.997v-.993h.997v.993Zm0-47.67h-.997v-.993h.997v.993Zm0-5.959h-.997v-.993h.997v.993Zm0-5.959h-.997v-.993h.997v.993Zm0-5.959h-.997v-.993h.997v.993Zm0-5.958h-.997v-.994h.997v.994Zm0-5.96h-.997v-.992h.997v.993Zm0-5.958h-.997v-.993h.997v.993Zm0-5.959h-.997v-.993h.997v.993Zm0-5.959h-.997v-.993h.997v.993Zm0-5.958h-.997V9.93h.997v.994Zm0-5.96h-.997v-.992h.997v.993Zm5.982 208.559h-.997v-.993h.997v.993Zm0-5.959h-.997v-.993h.997v.993Zm0-5.959h-.997v-.993h.997v.993Zm0-5.958h-.997v-.994h.997v.994Zm0-5.959h-.997v-.993h.997v.993Zm0-5.959h-.997v-.993h.997v.993Zm0-5.959h-.997v-.993h.997v.993Zm0-5.959h-.997v-.993h.997v.993Zm0-5.958h-.997v-.994h.997v.994Zm0-5.959h-.997v-.993h.997v.993Zm0-5.959h-.997v-.993h.997v.993Zm0-29.794h-.997v-.993h.997v.993Zm0-5.959h-.997v-.993h.997v.993Zm5.982 95.341h-.997v-.993h.997v.993Zm0-5.959h-.997v-.993h.997v.993Zm0-5.959h-.997v-.993h.997v.993Zm0-5.958h-.997v-.994h.997v.994Zm0-5.959h-.997v-.993h.997v.993Zm0-5.959h-.997v-.993h.997v.993Zm0-5.959h-.997v-.993h.997v.993Zm0-5.959h-.997v-.993h.997v.993Zm0-5.958h-.997v-.994h.997v.994Zm0-5.959h-.997v-.993h.997v.993Zm0-5.959h-.997v-.993h.997v.993Zm0-29.794h-.997v-.993h.997v.993Zm0-5.959h-.997v-.993h.997v.993Zm5.981 95.341h-.997v-.993h.997v.993Zm0-5.959h-.997v-.993h.997v.993Zm0-5.959h-.997v-.993h.997v.993Zm0-5.958h-.997v-.994h.997v.994Zm0-5.959h-.997v-.993h.997v.993Zm0-5.959h-.997v-.993h.997v.993Zm0-5.959h-.997v-.993h.997v.993Zm0-5.959h-.997v-.993h.997v.993Zm0-5.958h-.997v-.994h.997v.994Zm0-5.959h-.997v-.993h.997v.993Zm0-5.959h-.997v-.993h.997v.993Zm0-29.794h-.997v-.993h.997v.993Zm0-5.959h-.997v-.993h.997v.993Zm5.982 95.341h-.997v-.993h.997v.993Zm0-5.959h-.997v-.993h.997v.993Zm0-5.959h-.997v-.993h.997v.993Zm0-5.958h-.997v-.994h.997v.994Zm0-5.959h-.997v-.993h.997v.993Zm0-5.959h-.997v-.993h.997v.993Zm0-5.959h-.997v-.993h.997v.993Zm0-5.959h-.997v-.993h.997v.993Zm0-5.958h-.997v-.994h.997v.994Zm0-5.959h-.997v-.993h.997v.993Zm0-5.959h-.997v-.993h.997v.993Zm0-29.794h-.997v-.993h.997v.993Zm0-5.959h-.997v-.993h.997v.993Zm5.981 95.341h-.996v-.993h.996v.993Zm0-5.959h-.996v-.993h.996v.993Zm0-5.959h-.996v-.993h.996v.993Zm0-5.958h-.996v-.994h.996v.994Zm0-5.959h-.996v-.993h.996v.993Zm0-5.959h-.996v-.993h.996v.993Zm0-5.959h-.996v-.993h.996v.993Zm0-5.959h-.996v-.993h.996v.993Zm0-5.958h-.996v-.994h.996v.994Zm0-5.959h-.996v-.993h.996v.993Zm0-5.959h-.996v-.993h.996v.993Zm0-29.794h-.996v-.993h.996v.993Zm0-5.959h-.996v-.993h.996v.993ZM81.75 102.789c-8.26 0-14.954-6.668-14.954-14.897 0-8.228 6.694-14.896 14.954-14.896 8.26 0 14.954 6.668 14.954 14.897 0 8.228-6.695 14.896-14.954 14.896Zm18.443 110.735h-.997v-.993h.997v.993Zm0-5.959h-.997v-.993h.997v.993Zm0-5.959h-.997v-.993h.997v.993Zm0-5.958h-.997v-.994h.997v.994Zm0-5.959h-.997v-.993h.997v.993Zm0-5.959h-.997v-.993h.997v.993Zm0-5.959h-.997v-.993h.997v.993Zm0-5.959h-.997v-.993h.997v.993Zm0-5.958h-.997v-.994h.997v.994Zm0-5.959h-.997v-.993h.997v.993Zm0-5.959h-.997v-.993h.997v.993Zm0-29.794h-.997v-.993h.997v.993Zm0-5.959h-.997v-.993h.997v.993Zm0-5.959h-.997v-.993h.997v.993Zm0-47.67h-.997v-.993h.997v.993Zm0-5.959h-.997v-.993h.997v.993Zm0-5.959h-.997v-.993h.997v.993Zm0-5.959h-.997v-.993h.997v.993Zm0-5.958h-.997v-.994h.997v.994Zm0-5.96h-.997v-.992h.997v.993Zm0-5.958h-.997v-.993h.997v.993Zm0-5.959h-.997v-.993h.997v.993Zm0-5.959h-.997v-.993h.997v.993Zm0-5.958h-.997V9.93h.997v.994Zm0-5.96h-.997v-.992h.997v.993Zm5.982 208.559h-.997v-.993h.997v.993Zm0-5.959h-.997v-.993h.997v.993Zm0-5.959h-.997v-.993h.997v.993Zm0-5.958h-.997v-.994h.997v.994Zm0-5.959h-.997v-.993h.997v.993Zm0-5.959h-.997v-.993h.997v.993Zm0-5.959h-.997v-.993h.997v.993Zm0-5.959h-.997v-.993h.997v.993Zm0-5.958h-.997v-.994h.997v.994Zm0-5.959h-.997v-.993h.997v.993Zm0-5.959h-.997v-.993h.997v.993Zm0-29.794h-.997v-.993h.997v.993Zm0-5.959h-.997v-.993h.997v.993Zm0-5.959h-.997v-.993h.997v.993Zm0-5.959h-.997v-.993h.997v.993Zm0-35.752h-.997v-.994h.997v.994Zm0-5.96h-.997v-.992h.997v.993Zm0-5.958h-.997v-.993h.997v.993Zm0-5.959h-.997v-.993h.997v.993Zm0-5.959h-.997v-.993h.997v.993Zm0-5.958h-.997v-.994h.997v.994Zm0-5.96h-.997v-.992h.997v.993Zm0-5.958h-.997v-.993h.997v.993Zm0-5.959h-.997v-.993h.997v.993Zm0-5.959h-.997v-.993h.997v.993Zm0-5.958h-.997V9.93h.997v.994Zm0-5.96h-.997v-.992h.997v.993Zm5.981 208.559h-.997v-.993h.997v.993Zm0-5.959h-.997v-.993h.997v.993Zm0-5.959h-.997v-.993h.997v.993Zm0-5.958h-.997v-.994h.997v.994Zm0-5.959h-.997v-.993h.997v.993Zm0-5.959h-.997v-.993h.997v.993Zm0-5.959h-.997v-.993h.997v.993Zm0-5.959h-.997v-.993h.997v.993Zm0-5.958h-.997v-.994h.997v.994Zm0-5.959h-.997v-.993h.997v.993Zm0-5.959h-.997v-.993h.997v.993Zm0-29.794h-.997v-.993h.997v.993Zm0-5.959h-.997v-.993h.997v.993Zm0-5.959h-.997v-.993h.997v.993Zm0-5.959h-.997v-.993h.997v.993Zm0-5.958h-.997v-.993h.997v.993Zm0-5.96h-.997v-.992h.997v.993Zm0-5.958h-.997v-.993h.997v.993Zm0-5.959h-.997v-.993h.997v.993Zm0-5.959h-.997v-.993h.997v.993Zm0-5.958h-.997v-.994h.997v.994Zm0-5.96h-.997v-.992h.997v.993Zm0-5.958h-.997v-.993h.997v.993Zm0-5.959h-.997v-.993h.997v.993Zm0-5.959h-.997v-.993h.997v.993Zm0-5.958h-.997v-.994h.997v.994Zm0-5.96h-.997v-.992h.997v.993Zm0-5.958h-.997v-.993h.997v.993Zm0-5.959h-.997v-.993h.997v.993Zm0-5.959h-.997v-.993h.997v.993Zm0-5.958h-.997V9.93h.997v.994Zm0-5.96h-.997v-.992h.997v.993Zm5.982 208.559h-.997v-.993h.997v.993Zm0-5.959h-.997v-.993h.997v.993Zm0-5.959h-.997v-.993h.997v.993Zm0-5.958h-.997v-.994h.997v.994Zm0-5.959h-.997v-.993h.997v.993Zm0-5.959h-.997v-.993h.997v.993Zm0-5.959h-.997v-.993h.997v.993Zm0-5.959h-.997v-.993h.997v.993Zm0-5.958h-.997v-.994h.997v.994Zm0-5.959h-.997v-.993h.997v.993Zm0-5.959h-.997v-.993h.997v.993Zm0-5.959h-.997v-.993h.997v.993Zm0-5.959h-.997v-.993h.997v.993Zm0-17.876h-.997v-.993h.997v.993Zm0-5.959h-.997v-.993h.997v.993Zm0-5.959h-.997v-.993h.997v.993Zm0-5.959h-.997v-.993h.997v.993Zm0-5.958h-.997v-.993h.997v.993Zm0-5.96h-.997v-.992h.997v.993Zm0-5.958h-.997v-.993h.997v.993Zm0-5.959h-.997v-.993h.997v.993Zm0-5.959h-.997v-.993h.997v.993Zm0-5.958h-.997v-.994h.997v.994Zm0-5.96h-.997v-.992h.997v.993Zm0-5.958h-.997v-.993h.997v.993Zm0-5.959h-.997v-.993h.997v.993Zm0-5.959h-.997v-.993h.997v.993Zm0-5.958h-.997v-.994h.997v.994Zm0-5.96h-.997v-.992h.997v.993Zm0-5.958h-.997v-.993h.997v.993Zm0-5.959h-.997v-.993h.997v.993Zm0-5.959h-.997v-.993h.997v.993Zm0-5.958h-.997V9.93h.997v.994Zm0-5.96h-.997v-.992h.997v.993Zm5.982 208.559h-.997v-.993h.997v.993Zm0-5.959h-.997v-.993h.997v.993Zm0-5.959h-.997v-.993h.997v.993Zm0-5.958h-.997v-.994h.997v.994Zm0-5.959h-.997v-.993h.997v.993Zm0-5.959h-.997v-.993h.997v.993Zm0-5.959h-.997v-.993h.997v.993Zm0-5.959h-.997v-.993h.997v.993Zm0-5.958h-.997v-.994h.997v.994Zm0-5.959h-.997v-.993h.997v.993Zm0-5.959h-.997v-.993h.997v.993Zm0-5.959h-.997v-.993h.997v.993Zm0-5.959h-.997v-.993h.997v.993Zm0-5.958h-.997v-.994h.997v.994Zm0-5.959h-.997v-.993h.997v.993Zm0-5.959h-.997v-.993h.997v.993Zm0-5.959h-.997v-.993h.997v.993Zm0-5.959h-.997v-.993h.997v.993Zm0-5.959h-.997v-.993h.997v.993Zm0-5.958h-.997v-.993h.997v.993Zm0-5.96h-.997v-.992h.997v.993Zm0-5.958h-.997v-.993h.997v.993Zm0-5.959h-.997v-.993h.997v.993Zm0-5.959h-.997v-.993h.997v.993Zm0-5.958h-.997v-.994h.997v.994Zm0-5.96h-.997v-.992h.997v.993Zm0-5.958h-.997v-.993h.997v.993Zm0-5.959h-.997v-.993h.997v.993Zm0-5.959h-.997v-.993h.997v.993Zm0-5.958h-.997v-.994h.997v.994Zm0-5.96h-.997v-.992h.997v.993Zm0-5.958h-.997v-.993h.997v.993Zm0-5.959h-.997v-.993h.997v.993Zm0-5.959h-.997v-.993h.997v.993Zm0-5.958h-.997V9.93h.997v.994Zm0-5.96h-.997v-.992h.997v.993Zm5.981 208.559h-.997v-.993h.997v.993Zm0-5.959h-.997v-.993h.997v.993Zm0-5.959h-.997v-.993h.997v.993Zm0-5.958h-.997v-.994h.997v.994Zm0-5.959h-.997v-.993h.997v.993Zm0-5.959h-.997v-.993h.997v.993Zm0-5.959h-.997v-.993h.997v.993Zm0-5.959h-.997v-.993h.997v.993Zm0-5.958h-.997v-.994h.997v.994Zm0-5.959h-.997v-.993h.997v.993Zm0-5.959h-.997v-.993h.997v.993Zm0-5.959h-.997v-.993h.997v.993Zm0-5.959h-.997v-.993h.997v.993Zm0-5.958h-.997v-.994h.997v.994Zm0-5.959h-.997v-.993h.997v.993Zm0-5.959h-.997v-.993h.997v.993Zm0-5.959h-.997v-.993h.997v.993Zm0-5.959h-.997v-.993h.997v.993Zm0-5.959h-.997v-.993h.997v.993Zm0-5.958h-.997v-.993h.997v.993Zm0-5.96h-.997v-.992h.997v.993Zm0-5.958h-.997v-.993h.997v.993Zm0-5.959h-.997v-.993h.997v.993Zm0-5.959h-.997v-.993h.997v.993Zm0-5.958h-.997v-.994h.997v.994Zm0-5.96h-.997v-.992h.997v.993Zm0-5.958h-.997v-.993h.997v.993Zm0-5.959h-.997v-.993h.997v.993Zm0-5.959h-.997v-.993h.997v.993Zm0-5.958h-.997v-.994h.997v.994Zm0-5.96h-.997v-.992h.997v.993Zm0-5.958h-.997v-.993h.997v.993Zm0-5.959h-.997v-.993h.997v.993Zm0-5.959h-.997v-.993h.997v.993Zm0-5.958h-.997V9.93h.997v.994Zm0-5.96h-.997v-.992h.997v.993Zm5.982 208.559h-.997v-.993h.997v.993Zm0-5.959h-.997v-.993h.997v.993Zm0-5.959h-.997v-.993h.997v.993Zm0-5.958h-.997v-.994h.997v.994Zm0-5.959h-.997v-.993h.997v.993Zm0-5.959h-.997v-.993h.997v.993Zm0-5.959h-.997v-.993h.997v.993Zm0-5.959h-.997v-.993h.997v.993Zm0-5.958h-.997v-.994h.997v.994Zm0-5.959h-.997v-.993h.997v.993Zm0-5.959h-.997v-.993h.997v.993Zm0-5.959h-.997v-.993h.997v.993Zm0-5.959h-.997v-.993h.997v.993Zm0-5.958h-.997v-.994h.997v.994Zm0-5.959h-.997v-.993h.997v.993Zm0-5.959h-.997v-.993h.997v.993Zm0-5.959h-.997v-.993h.997v.993Zm0-5.959h-.997v-.993h.997v.993Zm0-5.959h-.997v-.993h.997v.993Zm0-5.958h-.997v-.993h.997v.993Zm0-5.96h-.997v-.992h.997v.993Zm0-5.958h-.997v-.993h.997v.993Zm0-5.959h-.997v-.993h.997v.993Zm0-5.959h-.997v-.993h.997v.993Zm0-5.958h-.997v-.994h.997v.994Zm0-5.96h-.997v-.992h.997v.993Zm0-5.958h-.997v-.993h.997v.993Zm0-5.959h-.997v-.993h.997v.993Zm0-5.959h-.997v-.993h.997v.993Zm0-5.958h-.997v-.994h.997v.994Zm0-5.96h-.997v-.992h.997v.993Zm0-5.958h-.997v-.993h.997v.993Zm0-5.959h-.997v-.993h.997v.993Zm0-5.959h-.997v-.993h.997v.993Zm0-5.958h-.997V9.93h.997v.994Zm0-5.96h-.997v-.992h.997v.993Zm5.981 208.559h-.996v-.993h.996v.993Zm0-5.959h-.996v-.993h.996v.993Zm0-5.959h-.996v-.993h.996v.993Zm0-5.958h-.996v-.994h.996v.994Zm0-5.959h-.996v-.993h.996v.993Zm0-5.959h-.996v-.993h.996v.993Zm0-5.959h-.996v-.993h.996v.993Zm0-5.959h-.996v-.993h.996v.993Zm0-5.958h-.996v-.994h.996v.994Zm0-5.959h-.996v-.993h.996v.993Zm0-5.959h-.996v-.993h.996v.993Zm0-5.959h-.996v-.993h.996v.993Zm0-5.959h-.996v-.993h.996v.993Zm0-5.958h-.996v-.994h.996v.994Zm0-5.959h-.996v-.993h.996v.993Zm0-5.959h-.996v-.993h.996v.993Zm0-5.959h-.996v-.993h.996v.993Zm0-5.959h-.996v-.993h.996v.993Zm0-5.959h-.996v-.993h.996v.993Zm0-5.958h-.996v-.993h.996v.993Zm0-5.96h-.996v-.992h.996v.993Zm0-5.958h-.996v-.993h.996v.993Zm0-5.959h-.996v-.993h.996v.993Zm0-5.959h-.996v-.993h.996v.993Zm0-5.958h-.996v-.994h.996v.994Zm0-5.96h-.996v-.992h.996v.993Zm0-5.958h-.996v-.993h.996v.993Zm0-5.959h-.996v-.993h.996v.993Zm0-5.959h-.996v-.993h.996v.993Zm0-5.958h-.996v-.994h.996v.994Zm0-5.96h-.996v-.992h.996v.993Zm0-5.958h-.996v-.993h.996v.993Zm0-5.959h-.996v-.993h.996v.993Zm0-5.959h-.996v-.993h.996v.993Zm0-5.958h-.996V9.93h.996v.994Zm0-5.96h-.996v-.992h.996v.993Zm5.982 208.559h-.997v-.993h.997v.993Zm0-5.959h-.997v-.993h.997v.993Zm0-5.959h-.997v-.993h.997v.993Zm0-5.958h-.997v-.994h.997v.994Zm0-5.959h-.997v-.993h.997v.993Zm0-5.959h-.997v-.993h.997v.993Zm0-5.959h-.997v-.993h.997v.993Zm0-5.959h-.997v-.993h.997v.993Zm0-5.958h-.997v-.994h.997v.994Zm0-5.959h-.997v-.993h.997v.993Zm0-5.959h-.997v-.993h.997v.993Zm0-5.959h-.997v-.993h.997v.993Zm0-5.959h-.997v-.993h.997v.993Zm0-5.958h-.997v-.994h.997v.994Zm0-5.959h-.997v-.993h.997v.993Zm0-5.959h-.997v-.993h.997v.993Zm0-5.959h-.997v-.993h.997v.993Zm0-5.959h-.997v-.993h.997v.993Zm0-5.959h-.997v-.993h.997v.993Zm0-5.958h-.997v-.993h.997v.993Zm0-5.96h-.997v-.992h.997v.993Zm0-5.958h-.997v-.993h.997v.993Zm0-5.959h-.997v-.993h.997v.993Zm0-5.959h-.997v-.993h.997v.993Zm0-5.958h-.997v-.994h.997v.994Zm0-5.96h-.997v-.992h.997v.993Zm0-5.958h-.997v-.993h.997v.993Zm0-5.959h-.997v-.993h.997v.993Zm0-5.959h-.997v-.993h.997v.993Zm0-5.958h-.997v-.994h.997v.994Zm0-5.96h-.997v-.992h.997v.993Zm0-5.958h-.997v-.993h.997v.993Zm0-5.959h-.997v-.993h.997v.993Zm0-17.876h-.997v-.993h.997v.993Zm5.982 208.558h-.997v-.993h.997v.993Zm0-5.959h-.997v-.993h.997v.993Zm0-5.959h-.997v-.993h.997v.993Zm0-5.958h-.997v-.994h.997v.994Zm0-5.959h-.997v-.993h.997v.993Zm0-5.959h-.997v-.993h.997v.993Zm0-5.959h-.997v-.993h.997v.993Zm0-5.959h-.997v-.993h.997v.993Zm0-5.958h-.997v-.994h.997v.994Zm0-5.959h-.997v-.993h.997v.993Zm0-5.959h-.997v-.993h.997v.993Zm0-5.959h-.997v-.993h.997v.993Zm0-5.959h-.997v-.993h.997v.993Zm0-5.958h-.997v-.994h.997v.994Zm0-5.959h-.997v-.993h.997v.993Zm0-5.959h-.997v-.993h.997v.993Zm0-5.959h-.997v-.993h.997v.993Zm0-5.959h-.997v-.993h.997v.993Zm0-5.959h-.997v-.993h.997v.993Zm0-5.958h-.997v-.993h.997v.993Zm0-5.96h-.997v-.992h.997v.993Zm0-5.958h-.997v-.993h.997v.993Zm0-5.959h-.997v-.993h.997v.993Zm0-5.959h-.997v-.993h.997v.993Zm0-5.958h-.997v-.994h.997v.994Zm0-5.96h-.997v-.992h.997v.993Zm0-5.958h-.997v-.993h.997v.993Zm0-5.959h-.997v-.993h.997v.993Zm0-5.959h-.997v-.993h.997v.993Zm0-5.958h-.997v-.994h.997v.994Zm0-5.96h-.997v-.992h.997v.993Zm0-5.958h-.997v-.993h.997v.993Zm0-5.959h-.997v-.993h.997v.993Zm0-17.876h-.997v-.993h.997v.993Zm5.981 202.599h-.997v-.993h.997v.993Zm0-5.959h-.997v-.993h.997v.993Zm0-5.958h-.997v-.994h.997v.994Zm0-5.959h-.997v-.993h.997v.993Zm0-5.959h-.997v-.993h.997v.993Zm0-5.959h-.997v-.993h.997v.993Zm0-5.959h-.997v-.993h.997v.993Zm0-5.958h-.997v-.994h.997v.994Zm0-5.959h-.997v-.993h.997v.993Zm0-5.959h-.997v-.993h.997v.993Zm0-5.959h-.997v-.993h.997v.993Zm0-5.959h-.997v-.993h.997v.993Zm0-5.958h-.997v-.994h.997v.994Zm0-5.959h-.997v-.993h.997v.993Zm0-5.959h-.997v-.993h.997v.993Zm0-5.959h-.997v-.993h.997v.993Zm0-5.959h-.997v-.993h.997v.993Zm0-5.959h-.997v-.993h.997v.993Zm0-5.958h-.997v-.993h.997v.993Zm0-5.96h-.997v-.992h.997v.993Zm0-5.958h-.997v-.993h.997v.993Zm0-5.959h-.997v-.993h.997v.993Zm0-5.959h-.997v-.993h.997v.993Zm0-5.958h-.997v-.994h.997v.994Zm0-5.96h-.997v-.992h.997v.993Zm0-5.958h-.997v-.993h.997v.993Zm0-5.959h-.997v-.993h.997v.993Zm0-5.959h-.997v-.993h.997v.993Zm0-5.958h-.997v-.994h.997v.994Zm0-5.96h-.997v-.992h.997v.993Zm0-5.958h-.997v-.993h.997v.993Zm0-5.959h-.997v-.993h.997v.993Zm0-5.959h-.997v-.993h.997v.993Zm0-5.958h-.997V9.93h.997v.994Z"/><defs><filter id="b" width="198.753" height="251.76" x="-17.876" y="-4.966" color-interpolation-filters="sRGB" filterUnits="userSpaceOnUse"><feFlood flood-opacity="0" result="BackgroundImageFix"/><feColorMatrix in="SourceAlpha" result="hardAlpha" values="0 0 0 0 0 0 0 0 0 0 0 0 0 0 0 0 0 0 127 0"/><feMorphology in="SourceAlpha" radius="5.959" result="effect1_dropShadow_9620_49755"/><feOffset dy="11.918"/><feGaussianBlur stdDeviation="11.918"/><feColorMatrix values="0 0 0 0 0.0980392 0 0 0 0 0.109804 0 0 0 0 0.12549 0 0 0 0.18 0"/><feBlend in2="BackgroundImageFix" result="effect1_dropShadow_9620_49755"/><feBlend in="SourceGraphic" in2="effect1_dropShadow_9620_49755" result="shape"/></filter><filter id="c" width="399.346" height="398.33" x="-156.294" y="110.707" color-interpolation-filters="sRGB" filterUnits="userSpaceOnUse"><feFlood flood-opacity="0" result="BackgroundImageFix"/><feBlend in="SourceGraphic" in2="BackgroundImageFix" result="shape"/><feGaussianBlur result="effect1_foregroundBlur_9620_49755" stdDeviation="33.27"/></filter><filter id="d" width="398.684" height="397.67" x="-69.355" y="-297.765" color-interpolation-filters="sRGB" filterUnits="userSpaceOnUse"><feFlood flood-opacity="0" result="BackgroundImageFix"/><feBlend in="SourceGraphic" in2="BackgroundImageFix" result="shape"/><feGaussianBlur result="effect1_foregroundBlur_9620_49755" stdDeviation="33.27"/></filter><radialGradient id="e" cx="0" cy="0" r="1" gradientTransform="rotate(68.661 21.868 -24.3) scale(411.633 429.071)" gradientUnits="userSpaceOnUse"><stop stop-color="#fff" stop-opacity=".25"/><stop offset=".542" stop-color="#fff" stop-opacity="0"/></radialGradient></defs></svg>