<svg xmlns="http://www.w3.org/2000/svg" width="25" height="24" fill="none"><path fill="#D1D3D4" fill-rule="evenodd" d="M9.56 12 5.336 7.775c.096-.143.291-.328.672-.518.6-.3 1.48-.507 2.493-.507s1.894.207 2.493.507c.644.322.757.628.757.743v4H9.56Zm-1.504.616L3.97 8.53A.75.75 0 0 1 3.75 8c0-1.946 1.053-3.65 2.643-4.843C7.983 1.965 10.144 1.25 12.5 1.25c2.356 0 4.517.715 6.107 1.907C20.197 4.35 21.25 6.054 21.25 8a.75.75 0 0 1-.22.53l-4.086 4.086c.345.36.556.847.556 1.384v6a2 2 0 0 1-2 2h-6a2 2 0 0 1-2-2v-6c0-.537.212-1.024.556-1.384ZM15.439 12l4.226-4.225c-.096-.143-.291-.328-.672-.518-.6-.3-1.48-.507-2.493-.507s-1.894.207-2.493.507c-.644.322-.757.628-.757.743v4h2.19Zm-1.189 2a.75.75 0 0 1-.75.75h-2a.75.75 0 0 1 0-1.5h2a.75.75 0 0 1 .75.75Z" clip-rule="evenodd"/></svg>