<svg xmlns="http://www.w3.org/2000/svg" width="51" height="51" fill="none"><path fill="#191C20" d="M6.86 9.246a.17.17 0 0 0-.123-.035.162.162 0 0 0-.106.072l-.195.266a.164.164 0 0 0-.031.117c.006.043.031.078.071.106l2.78 2.018-4.176-.212c-.072-.011-.132.017-.178.083l-.186.255a.164.164 0 0 0-.031.117c.006.043.031.078.071.106l3.63 2.636a.164.164 0 0 0 .117.031.159.159 0 0 0 .103-.065l.194-.266a.167.167 0 0 0 .032-.12.153.153 0 0 0-.063-.107l-2.756-2 4.144.197c.077.003.134-.02.175-.077l.194-.266a.153.153 0 0 0 .029-.12.172.172 0 0 0-.069-.106l-3.623-2.63H6.86ZM9.544 9.583c.166.19.295.335.39.435.429.464.873.704 1.325.724.452.02.904-.168 1.356-.563.447-.392.693-.816.73-1.265.04-.453-.143-.922-.544-1.408-.174-.212-.297-.361-.375-.45a13.72 13.72 0 0 0-.392-.423c-.42-.452-.867-.69-1.333-.707-.467-.02-.916.16-1.348.538-.435.38-.673.804-.713 1.27-.043.467.135.94.527 1.414.083.103.209.25.375.438l.002-.003ZM9.74 6.9c.27-.235.558-.344.864-.32.307.022.619.197.933.526.184.195.307.329.372.403.06.07.178.21.352.424.287.352.418.684.404.99-.017.306-.16.581-.432.819-.272.237-.561.346-.87.323-.31-.023-.618-.197-.93-.526-.095-.1-.218-.238-.367-.41a17.602 17.602 0 0 1-.357-.418c-.287-.352-.418-.684-.401-.993.02-.309.163-.58.435-.821l-.003.003ZM12.057 4.947c.023.04.055.066.095.077a.15.15 0 0 0 .12-.017l1.145-.655 2.009 3.503a.15.15 0 0 0 .215.06l.309-.178a.169.169 0 0 0 .08-.097.155.155 0 0 0-.015-.123l-2.009-3.503 1.14-.653a.169.169 0 0 0 .08-.097.155.155 0 0 0-.015-.123l-.143-.249a.17.17 0 0 0-.097-.083.168.168 0 0 0-.126.02L11.97 4.475a.15.15 0 0 0-.074.097.17.17 0 0 0 .02.123l.143.252h-.003ZM20.443 5.897l.432-.111c.114-.03.18-.11.195-.235l.377-4.662-.005-.077a.13.13 0 0 0-.07-.083.14.14 0 0 0-.105-.015l-.346.089a.175.175 0 0 0-.103.069.217.217 0 0 0-.04.094l-.324 4.107L18.18 1.64a.193.193 0 0 0-.212-.074l-.346.089a.14.14 0 0 0-.083.063.12.12 0 0 0-.015.103l.032.068 2.593 3.89c.074.103.172.14.292.109l.003.008ZM23.259 5.25a.16.16 0 0 0 .114.04l2.888-.14c.046 0 .083-.02.112-.048a.16.16 0 0 0 .04-.115l-.012-.269a.15.15 0 0 0-.046-.114.156.156 0 0 0-.117-.035l-2.387.115-.074-1.557 2.18-.106c.046 0 .084-.02.112-.049a.16.16 0 0 0 .04-.114l-.011-.255a.15.15 0 0 0-.052-.117.16.16 0 0 0-.114-.04l-2.18.106-.072-1.503 2.332-.112c.052 0 .089-.02.114-.048a.153.153 0 0 0 .035-.115l-.012-.26a.15.15 0 0 0-.051-.117.16.16 0 0 0-.115-.04L23.15.493a.155.155 0 0 0-.111.048c-.03.032-.04.072-.04.124l.217 4.478c0 .046.02.083.049.112l-.006-.006ZM27.303 5.213l.346.055c.046.008.086 0 .123-.026a.15.15 0 0 0 .066-.106l.275-1.752 1.187.186.713 1.878a.501.501 0 0 0 .083.152.238.238 0 0 0 .152.071l.326.052c.037.005.071 0 .106-.026a.127.127 0 0 0 .06-.089.19.19 0 0 0-.009-.077l-.761-1.97c.32-.036.584-.154.787-.348.203-.195.335-.464.386-.807.072-.461-.02-.839-.274-1.128-.255-.289-.644-.475-1.165-.558L28.047.46a.147.147 0 0 0-.12.025.169.169 0 0 0-.063.112l-.696 4.43a.147.147 0 0 0 .026.12c.026.035.06.055.106.063l.003.003Zm1.165-4.101 1.119.175c.675.105.967.44.878 1.007-.089.567-.47.796-1.145.69l-1.119-.175.267-1.697ZM31.538 6.08l.347.112a.146.146 0 0 0 .12-.009.16.16 0 0 0 .077-.094l1.362-4.282a.146.146 0 0 0-.008-.12.16.16 0 0 0-.094-.077l-.347-.112a.146.146 0 0 0-.12.009.16.16 0 0 0-.077.094l-1.363 4.282a.146.146 0 0 0 .009.12.16.16 0 0 0 .094.077ZM36.444 5.966c.04.02.083.023.126.011a.141.141 0 0 0 .091-.08l.12-.246a.159.159 0 0 0 .012-.129.155.155 0 0 0-.089-.091l-1.943-.936.695-1.443 2.067.996a.159.159 0 0 0 .129.012.149.149 0 0 0 .088-.083l.12-.25a.159.159 0 0 0 .012-.128.155.155 0 0 0-.089-.092L35.26 2.291a.148.148 0 0 0-.12-.008.155.155 0 0 0-.092.088l-1.946 4.041a.148.148 0 0 0-.008.12.166.166 0 0 0 .082.09l.31.148c.04.02.083.023.126.011a.142.142 0 0 0 .091-.08l.804-1.671 1.944.936h-.006ZM36.487 8.341a.16.16 0 0 0 .068.1l.304.204c.037.025.077.034.12.025a.161.161 0 0 0 .1-.068l2.496-3.735a.151.151 0 0 0 .025-.12.16.16 0 0 0-.068-.1l-.304-.204c-.037-.025-.077-.034-.12-.025a.161.161 0 0 0-.1.068l-2.496 3.735a.151.151 0 0 0-.025.12ZM37.918 9.294c0 .043.02.078.054.11l2.152 1.93a.148.148 0 0 0 .115.044c.043 0 .077-.02.108-.055l.178-.2a.163.163 0 0 0 .049-.114c0-.04-.023-.075-.06-.11l-1.778-1.596 1.042-1.16 1.626 1.46a.148.148 0 0 0 .114.043c.043 0 .077-.02.109-.054l.169-.189a.156.156 0 0 0 .045-.12c0-.043-.02-.077-.054-.109l-1.626-1.46 1.005-1.119 1.737 1.56a.154.154 0 0 0 .117.046.158.158 0 0 0 .106-.057l.175-.195a.17.17 0 0 0 .049-.12c0-.043-.02-.077-.055-.109l-2.112-1.894a.148.148 0 0 0-.114-.043c-.043 0-.08.023-.115.06L37.958 9.18a.148.148 0 0 0-.043.114h.003ZM44.715 9.28a.146.146 0 0 0-.103-.066.167.167 0 0 0-.123.035l-3.63 2.638a.146.146 0 0 0-.065.103.149.149 0 0 0 .032.118l.935 1.287c.272.375.544.636.816.785.272.149.555.194.853.14.297-.055.627-.203.984-.45.115-.077.26-.18.444-.314.183-.135.323-.238.43-.32.494-.379.778-.782.846-1.211.07-.43-.1-.925-.506-1.483l-.916-1.262h.003Zm.764 2.576c-.049.289-.252.57-.612.844-.21.163-.344.266-.404.31-.054.04-.197.136-.424.291-.263.18-.498.292-.7.338a.804.804 0 0 1-.576-.083c-.18-.1-.36-.275-.547-.533l-.615-.844 2.945-2.14.595.815c.275.378.39.713.34 1.002h-.002ZM16.447 43.108c.02-.031.026-.066.02-.103a.136.136 0 0 0-.057-.089l-.295-.2c-.083-.057-.151-.057-.208 0l-2.562 2.544.744-2.432a.249.249 0 0 0 .006-.138.208.208 0 0 0-.089-.12l-.212-.143c-.085-.06-.177-.054-.274.014l-1.978 1.597 1.408-3.325c.032-.072.009-.135-.071-.19l-.295-.2c-.032-.02-.066-.025-.103-.02a.136.136 0 0 0-.089.058c-.014.023-.029.045-.037.066l-1.74 4.146c-.052.115-.026.206.071.272l.223.15c.095.062.19.06.284-.015l2.166-1.692-.764 2.645c-.037.111-.008.203.092.269l.223.151c.094.063.189.052.28-.034l3.209-3.154.048-.06v.003ZM18.58 43.669c-.538-.206-1.025-.217-1.457-.037-.432.18-.767.555-1.005 1.127a33.16 33.16 0 0 0-.415 1.082c-.209.598-.214 1.1-.023 1.511.195.41.57.722 1.13.936.556.212 1.043.232 1.46.055.418-.175.747-.556.99-1.14.107-.254.181-.432.221-.54.043-.112.106-.292.195-.544.203-.584.206-1.088.003-1.511-.204-.424-.57-.736-1.105-.942l.006.003Zm.449 2.23c-.086.251-.149.423-.183.517-.032.086-.103.255-.21.51-.18.418-.408.69-.686.818-.28.13-.59.13-.927 0-.338-.128-.57-.334-.693-.618-.126-.283-.114-.638.032-1.07.045-.129.108-.3.189-.515.083-.218.151-.39.203-.513.177-.417.409-.69.692-.815.28-.129.593-.126.93 0 .335.129.564.332.687.615.126.283.115.638-.031 1.07h-.003ZM22.755 44.831l-1.657-.258a.158.158 0 0 0-.12.026.168.168 0 0 0-.063.112l-.69 4.433a.146.146 0 0 0 .026.12c.026.034.06.054.106.06l.346.055c.046.008.086 0 .123-.026a.155.155 0 0 0 .066-.106l.272-1.752 1.188.187.715 1.877a.503.503 0 0 0 .083.152.238.238 0 0 0 .152.071l.326.052c.037.005.072 0 .106-.026a.127.127 0 0 0 .06-.089.19.19 0 0 0-.009-.077l-.764-1.97c.32-.036.584-.154.787-.348.204-.195.332-.464.387-.81.071-.461-.02-.839-.278-1.128-.257-.289-.644-.475-1.165-.558l.003.003Zm.764 1.571c-.088.567-.469.796-1.144.69l-1.12-.175.264-1.697 1.119.175c.675.106.967.44.878 1.004l.003.003ZM28.284 49.218a.16.16 0 0 0-.123-.04l-2.278.08-.143-4.05a.145.145 0 0 0-.049-.11.148.148 0 0 0-.114-.04l-.364.01a.145.145 0 0 0-.111.05.148.148 0 0 0-.04.114l.157 4.49c0 .046.017.083.049.112a.148.148 0 0 0 .114.04l2.802-.098a.155.155 0 0 0 .115-.048.141.141 0 0 0 .043-.115l-.009-.274a.16.16 0 0 0-.049-.12ZM32.712 46.397a21.004 21.004 0 0 0-.129-.521c-.157-.604-.42-1.02-.79-1.251-.37-.229-.89-.266-1.563-.106l-1.516.358a.16.16 0 0 0-.1.069.145.145 0 0 0-.015.125l1.03 4.365a.16.16 0 0 0 .07.1.145.145 0 0 0 .12.017l1.55-.366c.45-.106.796-.255 1.037-.45a1.26 1.26 0 0 0 .457-.732c.066-.295.055-.656-.034-1.082a13.536 13.536 0 0 0-.117-.53v.004Zm-.513 1.436a.82.82 0 0 1-.297.498c-.16.129-.395.226-.701.3l-1.016.241-.836-3.543.982-.232c.455-.109.807-.083 1.053.072.246.154.43.452.544.893.068.257.114.42.131.492.015.066.052.235.106.504.066.314.077.572.04.778l-.005-.003ZM34.924 42.953a.163.163 0 0 0-.091-.083.148.148 0 0 0-.12.012l-.327.163a.162.162 0 0 0-.083.092.149.149 0 0 0 .012.12l2.003 4.02c.02.041.051.07.092.084.04.014.08.009.12-.011l.326-.164a.162.162 0 0 0 .083-.091.149.149 0 0 0-.011-.12l-2.004-4.022ZM40.405 42.716a16.04 16.04 0 0 0-.307-.446 15.96 15.96 0 0 0-.314-.435c-.37-.501-.77-.79-1.197-.868-.429-.077-.927.086-1.49.484l-1.277.899a.146.146 0 0 0-.066.103.165.165 0 0 0 .032.123l2.58 3.669c.027.037.061.06.104.066.043.008.08 0 .117-.029l1.302-.919c.378-.266.644-.535.796-.804a1.25 1.25 0 0 0 .152-.85c-.049-.298-.195-.63-.435-.993h.003Zm-.338 1.648c-.1.178-.28.358-.541.541l-.853.601-2.095-2.976.825-.581c.38-.269.718-.378 1.004-.326.29.051.567.26.836.627.16.211.263.349.303.406.04.057.135.2.286.43.178.265.286.503.326.706a.812.812 0 0 1-.091.572ZM4.184 30.009a.806.806 0 1 0 0 1.614.806.806 0 1 0 0-1.614ZM47.162 30.009a.806.806 0 1 0 0 1.614.806.806 0 1 0 0-1.614Z"/><g filter="url(#a)"><rect width="29.892" height="29.931" x="10.281" y="10.334" fill="#E7E7E7" rx="14.946"/></g><rect width="29.393" height="29.432" x="10.531" y="10.583" stroke="url(#b)" stroke-width=".499" rx="14.697"/><defs><linearGradient id="b" x1="25.227" x2="25.227" y1="10.334" y2="40.265" gradientUnits="userSpaceOnUse"><stop offset=".422" stop-color="#fff" stop-opacity="0"/><stop offset="1" stop-color="#fff" stop-opacity=".35"/></linearGradient><filter id="a" width="29.893" height="31.926" x="10.281" y="10.334" color-interpolation-filters="sRGB" filterUnits="userSpaceOnUse"><feFlood flood-opacity="0" result="BackgroundImageFix"/><feBlend in="SourceGraphic" in2="BackgroundImageFix" result="shape"/><feColorMatrix in="SourceAlpha" result="hardAlpha" values="0 0 0 0 0 0 0 0 0 0 0 0 0 0 0 0 0 0 127 0"/><feOffset dy="1.995"/><feGaussianBlur stdDeviation=".998"/><feComposite in2="hardAlpha" k2="-1" k3="1" operator="arithmetic"/><feColorMatrix values="0 0 0 0 0 0 0 0 0 0 0 0 0 0 0 0 0 0 0.25 0"/><feBlend in2="shape" result="effect1_innerShadow_9620_49755"/></filter></defs></svg>