<svg xmlns="http://www.w3.org/2000/svg" width="51" height="50" fill="none"><path fill="#fff" d="M12.83 9.217c-.096.064-.19.054-.28-.03l-3.227-3.22-.054-.056a.133.133 0 0 1-.02-.105.133.133 0 0 1 .058-.088l.284-.19c.08-.053.149-.052.204.006l2.61 2.62-.747-2.51c-.039-.107-.01-.193.086-.258l.203-.135c.092-.061.185-.056.277.016l2.026 1.656-1.42-3.415c-.032-.074-.005-.139.08-.195l.277-.185a.133.133 0 0 1 .104-.02.133.133 0 0 1 .089.058.386.386 0 0 1 .036.067l1.73 4.22c.048.113.022.203-.078.27l-.208.139c-.096.064-.192.059-.287-.017l-2.204-1.748.764 2.709c.037.114.008.204-.089.268l-.213.143ZM18.328 6.278c-.565.21-1.057.224-1.475.043-.42-.186-.75-.575-.99-1.168a18.864 18.864 0 0 1-.211-.552 18.163 18.163 0 0 1-.197-.55c-.202-.597-.2-1.107.004-1.529.209-.423.585-.736 1.128-.937.543-.202 1.03-.21 1.46-.023.43.187.763.572 1 1.157.102.249.174.43.216.543.04.108.104.295.192.558.205.607.21 1.117.012 1.531-.195.408-.575.717-1.14.927Zm-.201-.541c.348-.13.587-.337.718-.623.13-.29.123-.655-.021-1.096-.088-.264-.148-.44-.18-.527a19.314 19.314 0 0 0-.207-.516c-.178-.428-.412-.71-.7-.846-.287-.135-.604-.139-.952-.01-.348.13-.588.34-.722.632-.13.29-.12.655.028 1.094.042.128.104.302.186.524.081.217.148.39.2.519.175.43.405.712.693.848.286.131.605.131.957 0ZM20.994 5.358a.15.15 0 0 1-.115-.026.175.175 0 0 1-.058-.112l-.61-4.498c-.007-.05.002-.092.026-.123a.14.14 0 0 1 .103-.063l1.681-.228c.524-.071.95-.003 1.277.205.331.203.529.54.593 1.008.047.349-.001.647-.145.896a1.365 1.365 0 0 1-.667.568l1.31 1.695c.018.026.028.05.031.073a.133.133 0 0 1-.028.102.134.134 0 0 1-.09.054l-.304.042a.265.265 0 0 1-.172-.026.495.495 0 0 1-.122-.124l-1.252-1.626-1.226.166.243 1.791a.161.161 0 0 1-.032.124.175.175 0 0 1-.112.057l-.33.045Zm1.313-2.739c.693-.094 1-.432.921-1.016-.079-.583-.465-.828-1.159-.733l-1.157.157.237 1.75 1.158-.158ZM25.517 4.925a.15.15 0 0 1-.108-.049.175.175 0 0 1-.034-.12L25.691.22a.15.15 0 0 1 .049-.108.14.14 0 0 1 .114-.041l.347.024a.14.14 0 0 1 .108.056.15.15 0 0 1 .034.114l-.287 4.113 2.317.16c.05.004.089.023.114.057a.14.14 0 0 1 .041.115l-.018.263a.16.16 0 0 1-.057.115.175.175 0 0 1-.12.033l-2.816-.196ZM29.03 5.232a.15.15 0 0 1-.097-.07.175.175 0 0 1-.009-.125L30.128.66A.16.16 0 0 1 30.2.557a.14.14 0 0 1 .12-.017l1.515.416c.674.186 1.12.472 1.335.858.218.382.247.878.089 1.488-.031.13-.077.306-.137.525-.06.219-.111.395-.153.527-.125.423-.29.75-.493.982-.198.23-.45.371-.76.426-.307.055-.687.02-1.139-.104l-1.548-.426Zm1.667-.14c.313.086.573.112.78.077a.827.827 0 0 0 .514-.298c.136-.164.253-.404.349-.719.083-.265.133-.432.152-.499.02-.071.06-.238.123-.5.114-.449.096-.804-.053-1.066-.143-.266-.447-.462-.912-.59l-.999-.275-.986 3.586 1.032.284ZM35.013 7.452a.15.15 0 0 1-.077-.091.176.176 0 0 1 .022-.124l2.24-3.956a.15.15 0 0 1 .091-.076.14.14 0 0 1 .121.012l.303.171c.044.025.072.057.082.095.01.038.003.079-.022.123l-2.24 3.957a.16.16 0 0 1-.1.079.15.15 0 0 1-.118-.019l-.302-.171ZM36.447 8.241a.15.15 0 0 1-.061-.102.176.176 0 0 1 .04-.118l2.816-3.561c.031-.04.067-.063.106-.067a.14.14 0 0 1 .117.03l1.233.975c.549.434.847.871.895 1.311.051.436-.115.904-.499 1.404a16.4 16.4 0 0 1-.33.43c-.141.178-.257.32-.347.427-.28.34-.56.576-.837.711-.271.134-.56.166-.865.096-.305-.07-.641-.25-1.008-.54l-1.26-.996Zm1.59.522c.255.201.484.326.688.375.21.048.407.023.59-.074.19-.098.39-.273.602-.526.18-.212.29-.346.334-.4.046-.058.149-.196.308-.412.28-.37.403-.704.368-1.003-.029-.3-.232-.6-.61-.9l-.813-.642L37.198 8.1l.84.664ZM2.336 34.014c-.046-.112-.021-.212.073-.3l3.555-3.13.065-.04a.134.134 0 0 1 .106.001c.038.02.064.047.078.081l.126.31c.019.047.02.088.005.125a.155.155 0 0 1-.054.089l-3.167 2.77 4.204-.212a.167.167 0 0 1 .099.02c.038.02.066.053.085.1l.126.31a.133.133 0 0 1-.002.105.133.133 0 0 1-.075.075.331.331 0 0 1-.073.023l-4.73.23c-.13.002-.217-.053-.262-.164l-.16-.393ZM4.104 37.75a.15.15 0 0 1-.027-.115.176.176 0 0 1 .075-.1l3.776-2.521c.042-.029.083-.039.121-.031a.139.139 0 0 1 .103.065l1.586 2.377a.147.147 0 0 1 .025.125.147.147 0 0 1-.071.106l-.208.14a.14.14 0 0 1-.12.02c-.038-.007-.072-.032-.1-.075L7.948 35.77l-1.29.86 1.232 1.845a.147.147 0 0 1 .025.125.147.147 0 0 1-.071.106l-.197.131a.16.16 0 0 1-.125.026c-.039-.008-.072-.033-.1-.075L6.19 36.943l-1.336.892 1.348 2.018a.147.147 0 0 1 .025.125.147.147 0 0 1-.071.106l-.209.139a.16.16 0 0 1-.125.025.175.175 0 0 1-.1-.075L4.104 37.75ZM7.007 41.719a.15.15 0 0 1-.05-.108.175.175 0 0 1 .053-.113l3.174-3.245c.036-.036.074-.055.113-.055a.14.14 0 0 1 .113.043l1.213 1.186c.378.37.585.747.622 1.134.043.386-.1.748-.43 1.086-.247.252-.513.397-.797.436-.285.04-.57-.02-.858-.177l-.533 2.075a.172.172 0 0 1-.038.07.133.133 0 0 1-.098.04.134.134 0 0 1-.099-.038l-.218-.214a.264.264 0 0 1-.086-.152.494.494 0 0 1 .023-.172l.514-1.987-.884-.865-1.264 1.292a.16.16 0 0 1-.118.05.175.175 0 0 1-.113-.053l-.239-.233Zm2.967-.647c.5.49.956.524 1.368.103.412-.42.367-.876-.133-1.365l-.835-.817-1.235 1.262.835.817ZM10.92 45.169a.15.15 0 0 1-.066-.098.175.175 0 0 1 .035-.121l2.634-3.706a.15.15 0 0 1 .098-.066.139.139 0 0 1 .12.025l.283.2c.041.03.065.065.072.103.006.04-.005.08-.035.12l-2.634 3.707a.161.161 0 0 1-.108.068.15.15 0 0 1-.115-.03l-.283-.202ZM12.918 46.495a.15.15 0 0 1-.079-.088.175.175 0 0 1 .019-.124l2.119-4.015c.023-.045.054-.074.092-.085a.14.14 0 0 1 .12.009l2.497 1.317a.147.147 0 0 1 .082.098.147.147 0 0 1-.012.127l-.12.228a.16.16 0 0 1-.099.082c-.037.011-.079.005-.124-.019l-2.06-1.087-.768 1.457 1.936 1.023a.147.147 0 0 1 .082.098c.016.04.013.08-.009.121l-.123.234a.16.16 0 0 1-.098.081.175.175 0 0 1-.124-.018l-1.937-1.022-.883 1.672a.16.16 0 0 1-.098.082.175.175 0 0 1-.124-.018l-.289-.153ZM16.64 48.245a.15.15 0 0 1-.09-.078.175.175 0 0 1 .002-.125l1.565-4.269a.15.15 0 0 1 .078-.09.139.139 0 0 1 .12-.007l.327.12c.048.017.08.043.097.08a.16.16 0 0 1-.002.124l-1.565 4.27a.161.161 0 0 1-.087.093.15.15 0 0 1-.118.001l-.327-.12ZM18.833 48.996a.15.15 0 0 1-.1-.064.175.175 0 0 1-.017-.124l.936-4.442a.16.16 0 0 1 .065-.108.14.14 0 0 1 .12-.024l2.795.589c.05.01.085.034.106.072a.147.147 0 0 1 .023.125l-.052.245a.14.14 0 0 1-.07.099c-.033.022-.075.027-.124.017l-2.32-.49-.32 1.518 2.17.457c.05.01.085.035.106.072a.147.147 0 0 1 .023.126l-.049.23a.16.16 0 0 1-.071.107c-.033.021-.075.026-.125.016l-2.17-.457-.33 1.571 2.373.5c.05.01.085.035.106.072a.147.147 0 0 1 .023.126l-.051.245a.161.161 0 0 1-.072.106.175.175 0 0 1-.125.016l-2.85-.6ZM23.826 49.827a.15.15 0 0 1-.111-.04.176.176 0 0 1-.043-.119l-.035-4.539c0-.051.013-.09.041-.118a.14.14 0 0 1 .11-.05l1.572-.012c.7-.006 1.206.148 1.519.46.313.309.476.778.49 1.408.006.135.01.315.012.542.002.228 0 .41-.003.55-.006.44-.075.8-.207 1.079-.128.274-.332.48-.614.617-.282.136-.657.206-1.125.21l-1.606.012Zm1.567-.589c.324-.002.581-.048.77-.138a.827.827 0 0 0 .415-.427c.086-.196.133-.458.14-.787.006-.278.01-.452.01-.521-.001-.075-.007-.246-.019-.515-.012-.463-.126-.8-.341-1.012-.21-.216-.556-.323-1.038-.319l-1.036.008.028 3.72 1.071-.009ZM30.472 49.388a.134.134 0 0 1-.105-.01.134.134 0 0 1-.07-.081l-.01-.077.288-4.809c.005-.108.06-.179.166-.212l.425-.135c.106-.033.192-.007.258.08l3 3.768.036.069a.125.125 0 0 1-.017.107.133.133 0 0 1-.08.07l-.312.098a.198.198 0 0 1-.123.002.219.219 0 0 1-.078-.063l-.673-.837-2.194.694-.063 1.07c-.011.086-.055.141-.13.165l-.318.1Zm.53-1.947 1.815-.574-1.66-2.093L31 47.441ZM37.023 46.848a.176.176 0 0 1-.124.02.175.175 0 0 1-.093-.085l-1.958-3.612-1.18.64a.175.175 0 0 1-.123.02.176.176 0 0 1-.093-.085l-.13-.238a.16.16 0 0 1-.019-.124.16.16 0 0 1 .08-.099l2.934-1.59a.147.147 0 0 1 .127-.014c.038.012.07.04.093.085l.13.238c.022.04.026.083.013.127a.15.15 0 0 1-.078.09l-1.173.636 1.958 3.612a.16.16 0 0 1 .013.127.175.175 0 0 1-.084.093l-.293.159ZM42.715 42.686c-.426.426-.867.644-1.322.654-.46.006-.921-.21-1.387-.649a19.134 19.134 0 0 1-.422-.413c-.18-.18-.317-.32-.408-.418-.433-.459-.644-.922-.635-1.391.014-.472.225-.913.635-1.322.41-.41.848-.62 1.317-.63.469-.01.932.202 1.391.635.197.183.338.317.423.403.082.082.218.224.408.427.44.466.655.928.649 1.387-.007.452-.223.891-.649 1.317Zm-.408-.408c.262-.262.393-.55.393-.865-.003-.318-.162-.647-.477-.988a20.95 20.95 0 0 0-.383-.403c-.072-.072-.207-.2-.403-.384-.34-.314-.67-.473-.988-.477-.318-.003-.608.127-.87.389s-.394.554-.394.875c.004.318.164.645.482.983.092.098.221.231.389.398.163.164.296.293.398.389.337.317.665.478.983.481.315 0 .605-.133.87-.398ZM45.294 39.625a.15.15 0 0 1-.094.071.176.176 0 0 1-.123-.027l-3.838-2.423c-.044-.028-.07-.06-.078-.099a.14.14 0 0 1 .018-.12l.905-1.434c.282-.447.608-.729.978-.846.369-.124.753-.06 1.153.193.297.188.495.417.594.687.098.27.1.562.006.875l2.141.086c.031.003.056.01.076.023.031.02.051.049.06.087a.133.133 0 0 1-.017.105l-.163.258a.264.264 0 0 1-.13.115.493.493 0 0 1-.173.014l-2.05-.085-.661 1.046 1.528.965c.04.025.064.06.074.104a.175.175 0 0 1-.028.122l-.178.283Zm-1.255-2.766c.373-.592.311-1.044-.186-1.359-.498-.314-.934-.175-1.307.417l-.624.987 1.494.943.623-.988ZM47.962 34.912a.15.15 0 0 1-.077.091.176.176 0 0 1-.125 0l-4.28-1.514a.16.16 0 0 1-.097-.08.139.139 0 0 1-.009-.12l.634-1.79c.163-.462.399-.773.705-.93.306-.157.639-.172.997-.045.245.086.43.216.556.388.121.171.192.346.212.525.158-.155.356-.262.593-.32.237-.06.48-.045.73.044.244.086.447.222.607.406.163.18.264.401.305.661.04.26.007.541-.1.843l-.651 1.841Zm-2.043-2.625c.1-.284.114-.523.04-.716-.079-.195-.234-.334-.465-.416-.227-.08-.426-.067-.597.04-.169.102-.304.298-.406.586l-.432 1.22 1.429.505.431-1.22Zm2.147.686c.099-.28.102-.524.009-.734a.815.815 0 0 0-.498-.45.801.801 0 0 0-.669.037c-.204.104-.355.297-.454.576l-.455 1.285 1.612.57.455-1.284ZM3.922 20.394a.804.804 0 1 0 0-1.607.804.804 0 0 0 0 1.607ZM46.717 18.784a.803.803 0 1 0 0 1.607.803.803 0 1 0 0-1.607Z"/><mask id="a" width="31" height="31" x="10" y="10" maskUnits="userSpaceOnUse" style="mask-type:alpha"><rect width="29.908" height="29.794" x="10.795" y="10.996" fill="#000" rx="14.897"/></mask><g mask="url(#a)"><rect width="29.908" height="29.794" x="10.795" y="10.996" fill="#fff" rx="14.897"/><g clip-path="url(#b)"><ellipse cx="25.75" cy="25.893" fill="#fff" rx="14.954" ry="14.897"/><g filter="url(#c)" opacity=".8"><ellipse cx="14.728" cy="14.589" fill="#FFD800" rx="14.728" ry="14.589" transform="matrix(-.28922 -.95726 .93696 -.34945 15.97 36.224)"/></g><g filter="url(#d)" opacity=".8"><ellipse cx="12.504" cy="12.131" fill="#0300FF" rx="12.504" ry="12.131" transform="matrix(-.4843 -.8749 .7996 -.60053 14.331 38.568)"/></g><g filter="url(#e)" opacity=".8"><path fill="#BE00FF" d="M40.262 4.781c6.647 5.416 1.585 32.684-.986 30.892-1.568-1.093-3.422-10.34-8.345-14.303-3.147-2.533-8.78-.685-12.369-.423C9.36 21.617 33.56-.68 40.262 4.78Z"/></g></g><g filter="url(#f)"><rect width="29.908" height="29.794" x="10.795" y="10.996" fill="#000" fill-opacity=".01" rx="14.897"/></g><rect width="29.412" height="29.297" x="11.043" y="11.244" stroke="url(#g)" stroke-width=".497" rx="14.649"/></g><defs><filter id="c" width="42.944" height="44.293" x="3.909" y="-5.119" color-interpolation-filters="sRGB" filterUnits="userSpaceOnUse"><feFlood flood-opacity="0" result="BackgroundImageFix"/><feBlend in="SourceGraphic" in2="BackgroundImageFix" result="shape"/><feGaussianBlur result="effect1_foregroundBlur_9620_49755" stdDeviation="3.575"/></filter><filter id="d" width="37.175" height="40.591" x="-.612" y=".048" color-interpolation-filters="sRGB" filterUnits="userSpaceOnUse"><feFlood flood-opacity="0" result="BackgroundImageFix"/><feBlend in="SourceGraphic" in2="BackgroundImageFix" result="shape"/><feGaussianBlur result="effect1_foregroundBlur_9620_49755" stdDeviation="3.575"/></filter><filter id="e" width="41.351" height="46.14" x="9.35" y="-3.232" color-interpolation-filters="sRGB" filterUnits="userSpaceOnUse"><feFlood flood-opacity="0" result="BackgroundImageFix"/><feBlend in="SourceGraphic" in2="BackgroundImageFix" result="shape"/><feGaussianBlur result="effect1_foregroundBlur_9620_49755" stdDeviation="3.575"/></filter><filter id="f" width="29.908" height="31.78" x="10.795" y="10.996" color-interpolation-filters="sRGB" filterUnits="userSpaceOnUse"><feFlood flood-opacity="0" result="BackgroundImageFix"/><feBlend in="SourceGraphic" in2="BackgroundImageFix" result="shape"/><feColorMatrix in="SourceAlpha" result="hardAlpha" values="0 0 0 0 0 0 0 0 0 0 0 0 0 0 0 0 0 0 127 0"/><feOffset dy="1.986"/><feGaussianBlur stdDeviation=".993"/><feComposite in2="hardAlpha" k2="-1" k3="1" operator="arithmetic"/><feColorMatrix values="0 0 0 0 0 0 0 0 0 0 0 0 0 0 0 0 0 0 0.5 0"/><feBlend in2="shape" result="effect1_innerShadow_9620_49755"/></filter><linearGradient id="g" x1="25.749" x2="25.749" y1="10.996" y2="40.79" gradientUnits="userSpaceOnUse"><stop offset=".422" stop-color="#fff" stop-opacity="0"/><stop offset="1" stop-color="#fff" stop-opacity=".35"/></linearGradient><clipPath id="b"><rect width="29.908" height="29.794" x="10.796" y="10.996" fill="#fff" rx="14.897"/></clipPath></defs></svg>