<svg width="41" height="40" viewBox="0 0 41 40" fill="none" xmlns="http://www.w3.org/2000/svg">
  <path fill-rule="evenodd" clip-rule="evenodd" d="M4.61612 4.11612C5.10427 3.62796 5.89573 3.62796 6.38388 4.11612L36.3839 34.1161C36.872 34.6043 36.872 35.3957 36.3839 35.8839C35.8957 36.372 35.1043 36.372 34.6161 35.8839L31.6141 32.8819C30.3272 33.6957 28.8019 34.1667 27.1667 34.1667H13.8333C9.23096 34.1667 5.5 30.4357 5.5 25.8333V19.1667C5.5 15.8142 7.47967 12.924 10.3338 11.6015L4.61612 5.88388C4.12796 5.39573 4.12796 4.60427 4.61612 4.11612ZM20.5 27.5001C17.7386 27.5001 15.5 25.2615 15.5 22.5001C15.5 20.9329 16.221 19.5341 17.3495 18.6173L24.3828 25.6506C23.466 26.7791 22.0672 27.5001 20.5 27.5001ZM35.4999 19.1667C35.4999 14.5643 31.7689 10.8333 27.1665 10.8333H26.9565C26.2164 7.95795 23.6063 5.83333 20.4999 5.83333C18.0434 5.83333 15.8972 7.16194 14.7407 9.13976L34.7946 29.1936C35.2481 28.1658 35.4999 27.029 35.4999 25.8333V19.1667ZM22.1667 11.6667C22.1667 12.5871 21.4205 13.3333 20.5 13.3333C19.5795 13.3333 18.8333 12.5871 18.8333 11.6667C18.8333 10.7462 19.5795 10 20.5 10C21.4205 10 22.1667 10.7462 22.1667 11.6667Z" fill="#9BA3AE"/>
</svg>
