<svg width="24" height="24" viewBox="0 0 24 24" fill="none" xmlns="http://www.w3.org/2000/svg">
  <path fill-rule="evenodd" clip-rule="evenodd" d="M12 0C5.37258 0 0 5.37258 0 12C0 18.6274 5.37258 24 12 24C18.6274 24 24 18.6274 24 12C24 5.37258 18.6274 0 12 0ZM17.4092 9.33561C17.7786 8.9251 17.7453 8.29281 17.3348 7.92335C16.9243 7.55389 16.292 7.58717 15.9226 7.99768L10.7642 13.7292C10.646 13.8605 10.4461 13.8768 10.3082 13.7665L7.95723 11.8858C7.52597 11.5408 6.89667 11.6107 6.55166 12.042C6.20665 12.4732 6.27658 13.1025 6.70784 13.4475L9.05879 15.3283C10.024 16.1004 11.4239 15.9859 12.2508 15.0672L17.4092 9.33561Z" fill="currentColor"/>
</svg>
