<svg width="22" height="22" viewBox="0 0 22 22" fill="none" xmlns="http://www.w3.org/2000/svg">
<path fill-rule="evenodd" clip-rule="evenodd" d="M11 20.1667C16.0626 20.1667 20.1667 16.0627 20.1667 11C20.1667 5.93743 16.0626 1.83337 11 1.83337C5.93738 1.83337 1.83333 5.93743 1.83333 11C1.83333 16.0627 5.93738 20.1667 11 20.1667ZM11.6875 6.41671C11.6875 6.03701 11.3797 5.72921 11 5.72921C10.6203 5.72921 10.3125 6.03701 10.3125 6.41671V11C10.3125 11.296 10.5019 11.5587 10.7826 11.6523L13.5326 12.5689C13.8928 12.689 14.2821 12.4943 14.4022 12.1341C14.5223 11.7739 14.3276 11.3846 13.9674 11.2645L11.6875 10.5045V6.41671Z" fill="currentColor"/>
</svg>
