<svg width="24" height="24" viewBox="0 0 24 24" fill="none" xmlns="http://www.w3.org/2000/svg">
  <path fill-rule="evenodd" clip-rule="evenodd" d="M12 0C5.37258 0 0 5.37258 0 12C0 18.6274 5.37258 24 12 24C18.6274 24 24 18.6274 24 12C24 5.37258 18.6274 0 12 0ZM9.87894 8.46443C9.48842 8.0739 8.85525 8.0739 8.46473 8.46443C8.0742 8.85495 8.0742 9.48812 8.46473 9.87864L10.5861 12L8.46473 14.1213C8.0742 14.5118 8.0742 15.145 8.46473 15.5355C8.85525 15.9261 9.48842 15.9261 9.87894 15.5355L12.0003 13.4142L14.1216 15.5355C14.5121 15.926 15.1453 15.926 15.5358 15.5355C15.9263 15.145 15.9263 14.5118 15.5358 14.1213L13.4145 12L15.5358 9.87868C15.9263 9.48815 15.9263 8.85499 15.5358 8.46446C15.1453 8.07394 14.5121 8.07394 14.1216 8.46446L12.0003 10.5858L9.87894 8.46443Z" fill="currentColor"/>
</svg>
