<svg width="24" height="24" viewBox="0 0 24 24" fill="none" xmlns="http://www.w3.org/2000/svg">
  <path fill-rule="evenodd" clip-rule="evenodd" d="M3.00391 19.0917L3.00391 4.90833C3.00391 3.3021 4.30601 2 5.91224 2L18.0956 2C19.7018 2 21.0039 3.30211 21.0039 4.90833V12.7953C21.0039 12.9486 20.9918 13.1005 20.9682 13.25H17.0034C14.38 13.25 12.2534 15.3766 12.2534 18V21.9643C12.1041 21.9879 11.9523 22 11.7992 22H5.91224C4.30601 22 3.00391 20.6979 3.00391 19.0917ZM13.7534 21.2457C13.7882 21.2141 13.8223 21.1816 13.8557 21.1482L20.1521 14.8518C20.1853 14.8186 20.2177 14.7846 20.2491 14.75H17.0034C15.2085 14.75 13.7534 16.2051 13.7534 18L13.7534 21.2457Z" fill="currentColor"/>
</svg>
