<svg width="43" height="33" viewBox="0 0 43 33" fill="none" xmlns="http://www.w3.org/2000/svg">
<path d="M11.9583 10.0043C14.8348 10.0043 17.1667 7.76593 17.1667 5.00481C17.1667 2.2437 14.8348 0.00537109 11.9583 0.00537109C9.08185 0.00537109 6.75 2.2437 6.75 5.00481C6.75 7.76593 9.08185 10.0043 11.9583 10.0043Z" fill="#191C20"/>
<path d="M40.3229 14.8237L34.9729 11.4001C31.8601 9.40812 27.788 9.8078 25.1219 12.3669L17.5447 19.6402C14.8787 22.1994 10.8066 22.599 7.69382 20.6071L3.57768 17.9731C2.24661 17.1213 0.5 18.0772 0.5 19.6575V24.0027C0.5 28.4205 4.08133 32.0018 8.49911 32.0018H34.1676C38.5854 32.0018 42.1667 28.4205 42.1667 24.0027V18.1925C42.1667 16.8287 41.4717 15.5588 40.3229 14.8237Z" fill="#191C20"/>
</svg>
