<svg width="32" height="32" viewBox="0 0 32 32" fill="none" xmlns="http://www.w3.org/2000/svg">
<path d="M30.7386 9.774C29.9301 7.86578 28.7786 6.15808 27.3103 4.68971C25.8419 3.22135 24.1278 2.06994 22.226 1.26137C20.2531 0.420457 18.1573 0 15.9968 0C13.8363 0 11.7404 0.420457 9.76753 1.2549C7.85931 2.06347 6.15161 3.21488 4.68324 4.68324C3.21488 6.15161 2.06347 7.86578 1.2549 9.76754C0.420457 11.7469 0 13.8427 0 15.9968C0 18.1573 0.420457 20.2531 1.2549 22.226C2.06347 24.1342 3.21488 25.8419 4.68324 27.3103C6.15161 28.7787 7.86578 29.9301 9.76753 30.7386C11.7404 31.5731 13.8363 31.9935 15.9968 31.9935C18.1573 31.9935 20.2531 31.5731 22.226 30.7386C24.1342 29.9301 25.8419 28.7787 27.3103 27.3103C28.7786 25.8419 29.9301 24.1278 30.7386 22.226C31.5731 20.2531 31.9935 18.1573 31.9935 15.9968C32 13.8427 31.5731 11.7469 30.7386 9.774ZM10.6861 14.4961C11.3523 11.941 13.681 10.0457 16.4496 10.0457H27.5561C28.2676 11.43 28.7269 12.9307 28.908 14.4961H10.6861ZM28.908 17.5039C28.7269 19.0693 28.2676 20.57 27.5561 21.9543H16.4431C13.681 21.9543 11.3523 20.059 10.6796 17.5039H28.908ZM6.8114 6.8114C9.26299 4.35981 12.5296 3.00788 15.9968 3.00788C19.4639 3.00788 22.7305 4.35981 25.1821 6.8114C25.2597 6.88902 25.3309 6.96018 25.4021 7.0378H16.4431C14.0497 7.0378 11.7987 7.96927 10.1104 9.66404C8.77784 10.9966 7.91752 12.6719 7.6135 14.4961H3.09197C3.42187 11.5917 4.71558 8.90722 6.8114 6.8114ZM15.9968 28.9921C12.5231 28.9921 9.26299 27.6402 6.8114 25.1886C4.71558 23.0928 3.42187 20.4019 3.09197 17.5039H7.6135C7.91752 19.3281 8.77784 21.0034 10.1104 22.336C11.8051 24.0307 14.0497 24.9622 16.4431 24.9622H25.4085C25.3374 25.0398 25.2597 25.1174 25.1886 25.1886C22.7305 27.6402 19.4704 28.9921 15.9968 28.9921Z" fill="currentColor"/>
</svg>
