<svg xmlns="http://www.w3.org/2000/svg" width="41" height="40" fill="none"><path fill="currentColor" d="M23.838 15.77a.623.623 0 0 0 .832.104 122.664 122.664 0 0 1 5.37-3.588 12.779 12.779 0 0 1 3.066 6.483c1.715-2.462 6.565-8.806 2.39-11.978-3.568-2.652-11.052 5.27-11.796 8.424a.607.607 0 0 0 .138.555ZM26.748 19.982a.64.64 0 0 0 .087 1.179 144.44 144.44 0 0 1 6.15 1.976 12.692 12.692 0 0 1-3.17 6.448c2.996-.208 10.982-.364 10.878-5.599-.156-4.437-11-5.373-13.945-4.004ZM24.912 25.355a.658.658 0 0 0-.572 0 .641.641 0 0 0-.294.798 108.121 108.121 0 0 1 2.287 6.05c-3.62 1.958-6.999 1.525-6.999 1.525 2.01 2.218 7.102 8.372 11.139 5.044 3.36-2.895-2.65-11.978-5.56-13.416ZM19.577 27.245a.607.607 0 0 0-.364-.433.623.623 0 0 0-.797.277 135.667 135.667 0 0 1-3.308 5.547 12.681 12.681 0 0 1-5.561-4.542c-.485 2.964-2.113 10.782 2.997 11.857 4.365.85 7.708-9.517 7.033-12.706ZM14.778 24.263a.642.642 0 0 0 .104-.554.624.624 0 0 0-.71-.468 133.5 133.5 0 0 1-6.392.866 12.8 12.8 0 0 1 .087-7.176C5.25 18.387-1.886 21.975.47 26.655c2.044 3.935 12.247.122 14.308-2.392ZM14.12 18.63a.59.59 0 0 0 .502-.26.607.607 0 0 0-.069-.832 112.42 112.42 0 0 1-4.66-4.472 12.681 12.681 0 0 1 5.665-4.403c-2.772-1.127-10.03-4.49-12.23.26-1.802 4.056 7.553 9.655 10.792 9.707ZM18.624 14.851a.641.641 0 0 0 .624-.59c.086-1.42.277-3.865.589-6.413A12.656 12.656 0 0 1 26.8 9.53C25.97 6.652 24.08-1.113 19.005.135c-4.296 1.109-2.875 11.908-.883 14.49a.572.572 0 0 0 .502.226Z"/></svg>