<svg xmlns="http://www.w3.org/2000/svg" width="20" height="14" fill="none"><path fill="#191C20" fill-rule="evenodd" d="M12 4h1a1 1 0 0 1 1 1v6a1 1 0 0 1-1 1h-1a1 1 0 0 1-1-1V5a1 1 0 0 1 1-1ZM7.5 6h1a1 1 0 0 1 1 1v4a1 1 0 0 1-1 1h-1a1 1 0 0 1-1-1V7a1 1 0 0 1 1-1ZM3 7.5h1a1 1 0 0 1 1 1V11a1 1 0 0 1-1 1H3a1 1 0 0 1-1-1V8.5a1 1 0 0 1 1-1ZM16.5 2h1a1 1 0 0 1 1 1v8a1 1 0 0 1-1 1h-1a1 1 0 0 1-1-1V3a1 1 0 0 1 1-1Z" clip-rule="evenodd"/><path fill="#191C20" fill-rule="evenodd" d="M12 4h1a1 1 0 0 1 1 1v6a1 1 0 0 1-1 1h-1a1 1 0 0 1-1-1V5a1 1 0 0 1 1-1ZM7.5 6h1a1 1 0 0 1 1 1v4a1 1 0 0 1-1 1h-1a1 1 0 0 1-1-1V7a1 1 0 0 1 1-1ZM3 7.5h1a1 1 0 0 1 1 1V11a1 1 0 0 1-1 1H3a1 1 0 0 1-1-1V8.5a1 1 0 0 1 1-1Z" clip-rule="evenodd"/></svg>