<svg width="18" height="18" viewBox="0 0 18 18" fill="none" xmlns="http://www.w3.org/2000/svg">
<path fill-rule="evenodd" clip-rule="evenodd" d="M2.18164 13.0874L2.18164 4.36244C2.18164 2.75621 3.48375 1.4541 5.08997 1.4541L12.3608 1.4541C13.967 1.4541 15.2691 2.75621 15.2691 4.36244V8.97443C15.2691 9.1982 15.2434 9.41931 15.1934 9.63379H12.3608C10.4534 9.63379 8.90716 11.18 8.90716 13.0874V15.92C8.69268 15.97 8.47157 15.9958 8.2478 15.9958H5.08998C3.48375 15.9958 2.18164 14.6937 2.18164 13.0874ZM9.99779 15.4104C10.1054 15.3293 10.2079 15.2403 10.3043 15.1439L14.4173 11.0309C14.5137 10.9345 14.6026 10.8321 14.6837 10.7244H12.3608C11.0557 10.7244 9.99779 11.7824 9.99779 13.0874V15.4104Z" fill="currentColor"/>
</svg>
