<svg width="20" height="20" viewBox="0 0 20 20" fill="none" xmlns="http://www.w3.org/2000/svg">
<path fill-rule="evenodd" clip-rule="evenodd" d="M18.3337 10.0003C18.3337 14.6027 14.6027 18.3337 10.0003 18.3337C5.39795 18.3337 1.66699 14.6027 1.66699 10.0003C1.66699 5.39795 5.39795 1.66699 10.0003 1.66699C14.6027 1.66699 18.3337 5.39795 18.3337 10.0003ZM14.1694 8.61114C14.1694 10.9123 12.3039 12.7778 10.0027 12.7778C7.70155 12.7778 5.83607 10.9123 5.83607 8.61114C5.83607 6.30995 7.70155 4.44447 10.0027 4.44447C12.3039 4.44447 14.1694 6.30995 14.1694 8.61114ZM10.2279 9.30632C10.995 9.30632 11.6168 8.68449 11.6168 7.91743C11.6168 7.15037 10.995 6.52854 10.2279 6.52854C9.46083 6.52854 8.839 7.15037 8.839 7.91743C8.839 8.68449 9.46083 9.30632 10.2279 9.30632Z" fill="currentColor"/>
</svg>
