<svg width="29" height="10" viewBox="0 0 29 10" fill="none" xmlns="http://www.w3.org/2000/svg">
<path d="M6.11914 9H0.119141V7.81055H2.48047V1.99805H2.38086L0.107422 3.49219V2.11523L2.48633 0.544922H3.86914V7.81055H6.11914V9ZM12.1953 9L11.5859 6.7793H8.90234L8.28711 9H6.86914L9.47656 0.544922H11.1055L13.7129 9H12.1953ZM10.2207 2.02734L9.21875 5.6543H11.2754L10.2793 2.02734H10.2207ZM16.7715 9H15.3535V0.544922H20.5508V1.78125H16.7715V4.32422H20.2168V5.50781H16.7715V9ZM25.1445 9.18164C23.2461 9.18164 21.9512 8.18555 21.9512 6.72656C21.9512 5.68359 22.6484 4.83984 23.7383 4.58203V4.48242C22.8535 4.25977 22.291 3.53906 22.291 2.63672C22.291 1.30664 23.4746 0.363281 25.1445 0.363281C26.8145 0.363281 27.998 1.30664 27.998 2.63672C27.998 3.53906 27.4414 4.25391 26.5449 4.48242V4.58203C27.623 4.81641 28.3379 5.67773 28.3379 6.72656C28.3379 8.18555 27.043 9.18164 25.1445 9.18164ZM25.1445 4.05469C26.0176 4.05469 26.6035 3.5332 26.6035 2.75977C26.6035 1.99219 26.0176 1.4707 25.1445 1.4707C24.2656 1.4707 23.6855 1.99219 23.6855 2.75977C23.6855 3.5332 24.2656 4.05469 25.1445 4.05469ZM25.1445 8.0625C26.1758 8.0625 26.8848 7.46484 26.8848 6.60352C26.8848 5.73633 26.1758 5.14453 25.1445 5.14453C24.1133 5.14453 23.4043 5.73633 23.4043 6.60352C23.4043 7.46484 24.1133 8.0625 25.1445 8.0625Z" fill="white"/>
</svg>
