<svg width="20" height="20" viewBox="0 0 20 20" fill="none" xmlns="http://www.w3.org/2000/svg">
<path d="M17.5 15.8333V14.4617C17.5 13.7802 17.0851 13.1674 16.4523 12.9143L14.7572 12.2362C13.9524 11.9143 13.0352 12.263 12.6475 13.0383L12.5 13.3333C12.5 13.3333 10.4167 12.9167 8.75 11.25C7.08333 9.58333 6.66667 7.5 6.66667 7.5L6.96168 7.35249C7.73698 6.96484 8.08571 6.04761 7.76379 5.2428L7.08574 3.54768C6.83263 2.91492 6.21979 2.5 5.53828 2.5H4.16667C3.24619 2.5 2.5 3.24619 2.5 4.16667C2.5 11.5305 8.46954 17.5 15.8333 17.5C16.7538 17.5 17.5 16.7538 17.5 15.8333Z" fill="currentColor"/>
</svg>
