<svg width="15" height="15" viewBox="0 0 15 15" fill="none" xmlns="http://www.w3.org/2000/svg">
<path d="M1.00195 8.36719H6.36328V13.7285C6.36328 14.2734 6.81152 14.7305 7.36523 14.7305C7.91895 14.7305 8.36719 14.2734 8.36719 13.7285V8.36719H13.7285C14.2734 8.36719 14.7305 7.91895 14.7305 7.36523C14.7305 6.81152 14.2734 6.36328 13.7285 6.36328H8.36719V1.00195C8.36719 0.457031 7.91895 0 7.36523 0C6.81152 0 6.36328 0.457031 6.36328 1.00195V6.36328H1.00195C0.457031 6.36328 0 6.81152 0 7.36523C0 7.91895 0.457031 8.36719 1.00195 8.36719Z" fill="#1C1C1E"/>
</svg>
