<svg width="20" height="20" viewBox="0 0 20 20" fill="none" xmlns="http://www.w3.org/2000/svg">
<path d="M3.9384 3.88371e-06L4.00001 7.69841e-06L4.06161 3.88371e-06C4.71574 -5.8582e-05 5.30346 -0.000114493 5.77916 0.0638424C6.29852 0.133668 6.83134 0.295802 7.26777 0.732241C7.70421 1.16868 7.86635 1.70149 7.93617 2.22085C8.00013 2.69656 8.00007 3.28427 8.00001 3.9384L8.00001 4.00001L8.00001 4.06162C8.00007 4.71574 8.00013 5.30346 7.93617 5.77916C7.86635 6.29852 7.70421 6.83134 7.26777 7.26777C6.83134 7.70421 6.29852 7.86635 5.77916 7.93617C5.30346 8.00013 4.71574 8.00007 4.06162 8.00001L4.00001 8.00001L3.9384 8.00001C3.28427 8.00007 2.69656 8.00013 2.22085 7.93617C1.70149 7.86635 1.16868 7.70421 0.732241 7.26777C0.295802 6.83134 0.133668 6.29852 0.0638424 5.77916C-0.000114493 5.30346 -5.8582e-05 4.71574 3.88371e-06 4.06161L7.69841e-06 4.00001L3.88371e-06 3.9384C-5.8582e-05 3.28428 -0.000114493 2.69656 0.0638424 2.22085C0.133668 1.70149 0.295802 1.16868 0.732241 0.732241C1.16868 0.295802 1.70149 0.133668 2.22085 0.0638424C2.69656 -0.000114493 3.28428 -5.8582e-05 3.9384 3.88371e-06Z" fill="black"/>
<path d="M3.9384 12L4.00001 12L4.06161 12C4.71574 11.9999 5.30346 11.9999 5.77916 12.0638C6.29852 12.1337 6.83134 12.2958 7.26777 12.7322C7.70421 13.1687 7.86635 13.7015 7.93617 14.2209C8.00013 14.6966 8.00007 15.2843 8.00001 15.9384L8.00001 16L8.00001 16.0616C8.00007 16.7157 8.00013 17.3035 7.93617 17.7792C7.86635 18.2985 7.70421 18.8313 7.26777 19.2678C6.83134 19.7042 6.29852 19.8663 5.77916 19.9362C5.30346 20.0001 4.71574 20.0001 4.06162 20L4.00001 20L3.9384 20C3.28427 20.0001 2.69656 20.0001 2.22085 19.9362C1.70149 19.8663 1.16868 19.7042 0.732241 19.2678C0.295802 18.8313 0.133668 18.2985 0.0638424 17.7792C-0.000114493 17.3035 -5.8582e-05 16.7157 3.88371e-06 16.0616L7.69841e-06 16L3.88371e-06 15.9384C-5.8582e-05 15.2843 -0.000114493 14.6966 0.0638424 14.2209C0.133668 13.7015 0.295802 13.1687 0.732241 12.7322C1.16868 12.2958 1.70149 12.1337 2.22085 12.0638C2.69656 11.9999 3.28428 11.9999 3.9384 12Z" fill="black"/>
<path fill-rule="evenodd" clip-rule="evenodd" d="M-8.74228e-08 10C-3.91405e-08 9.44772 0.447715 9 1 9L7 9C7.55228 9 8 9.44772 8 10C8 10.5523 7.55228 11 7 11L1 11C0.447715 11 -1.35705e-07 10.5523 -8.74228e-08 10Z" fill="black"/>
<path fill-rule="evenodd" clip-rule="evenodd" d="M10 0C10.5523 0 11 0.447715 11 1V6C11 6.55228 10.5523 7 10 7C9.44772 7 9 6.55228 9 6V1C9 0.447715 9.44772 0 10 0Z" fill="black"/>
<path d="M15.9384 3.88371e-06L16 7.69841e-06L16.0616 3.88371e-06C16.7157 -5.8582e-05 17.3035 -0.000114493 17.7792 0.0638424C18.2985 0.133668 18.8313 0.295802 19.2678 0.732241C19.7042 1.16868 19.8663 1.70149 19.9362 2.22085C20.0001 2.69656 20.0001 3.28427 20 3.9384L20 4.00001L20 4.06162C20.0001 4.71574 20.0001 5.30346 19.9362 5.77916C19.8663 6.29852 19.7042 6.83134 19.2678 7.26777C18.8313 7.70421 18.2985 7.86635 17.7792 7.93617C17.3035 8.00013 16.7157 8.00007 16.0616 8.00001L16 8.00001L15.9384 8.00001C15.2843 8.00007 14.6966 8.00013 14.2209 7.93617C13.7015 7.86635 13.1687 7.70421 12.7322 7.26777C12.2958 6.83134 12.1337 6.29852 12.0638 5.77916C11.9999 5.30346 11.9999 4.71574 12 4.06161L12 4.00001L12 3.9384C11.9999 3.28428 11.9999 2.69656 12.0638 2.22085C12.1337 1.70149 12.2958 1.16868 12.7322 0.732241C13.1687 0.295802 13.7015 0.133668 14.2209 0.0638424C14.6966 -0.000114493 15.2843 -5.8582e-05 15.9384 3.88371e-06Z" fill="black"/>
<path fill-rule="evenodd" clip-rule="evenodd" d="M12.9384 9C12.9589 9.00001 12.9794 9.00001 13 9.00001H19C19.5523 9.00001 20 9.44772 20 10C20 10.5523 19.5523 11 19 11H13C12.2646 11 11.8137 11.0021 11.4873 11.046C11.2005 11.0846 11.1526 11.1394 11.1469 11.1459C11.1467 11.1462 11.1466 11.1463 11.1465 11.1465C11.1463 11.1466 11.1462 11.1467 11.1459 11.1469C11.1394 11.1526 11.0846 11.2005 11.046 11.4873C11.0021 11.8137 11 12.2646 11 13C11 13.5523 10.5523 14 10 14C9.44772 14 9.00001 13.5523 9.00001 13C9.00001 12.9794 9.00001 12.9589 9 12.9384C8.99994 12.2843 8.99989 11.6966 9.06384 11.2209C9.13367 10.7015 9.2958 10.1687 9.73224 9.73224C10.1687 9.2958 10.7015 9.13367 11.2209 9.06384C11.6966 8.99989 12.2843 8.99994 12.9384 9ZM17.5125 14.0461C17.1862 14.0021 16.7354 14 16 14C15.4477 14 15 13.5523 15 13C15 12.4477 15.4477 12 16 12C16.0206 12 16.0412 12 16.0617 12C16.7157 11.9999 17.3036 11.9999 17.7794 12.0639C18.299 12.1339 18.8319 12.2964 19.2683 12.7334C19.7045 13.1702 19.8664 13.7033 19.9362 14.223C20.0001 14.6992 20.0001 15.2876 20 15.9428C20 15.9632 20 15.9838 20 16.0043C20 16.0249 20 16.0455 20 16.0659C20.0001 16.7211 20.0001 17.3095 19.9362 17.7857C19.8664 18.3054 19.7045 18.8385 19.2683 19.2753C18.64 19.9045 17.7921 19.9766 17.0302 19.9996C16.4781 20.0162 16.0171 19.5822 16.0005 19.0302C15.9838 18.4781 16.4178 18.0171 16.9698 18.0005C17.3416 17.9892 17.5612 17.9636 17.7034 17.9272C17.8181 17.8979 17.8442 17.8712 17.8522 17.863C17.8525 17.8627 17.8528 17.8624 17.8531 17.8621C17.8532 17.862 17.8534 17.8618 17.8536 17.8616C17.8604 17.8556 17.9154 17.8071 17.954 17.5196C17.9979 17.1925 18 16.7407 18 16.0043C18 15.268 17.9979 14.8162 17.954 14.4891C17.9154 14.2016 17.8604 14.1531 17.8536 14.1471C17.8534 14.1469 17.8532 14.1467 17.8531 14.1466C17.8529 14.1465 17.8528 14.1463 17.8526 14.146C17.8468 14.1395 17.799 14.0846 17.5125 14.0461ZM13 12C13.5523 12 14 12.4477 14 13V14.5C14 14.7576 14.0333 14.8814 14.051 14.9279C14.0822 14.9397 14.152 14.9601 14.2866 14.9753C14.468 14.9958 14.6924 15 15 15C16.1046 15 17 15.8954 17 17C17 17.5523 16.5523 18 16 18C15.4477 18 15 17.5523 15 17C14.6995 17 14.3698 16.9975 14.0621 16.9627C13.7549 16.928 13.3946 16.8543 13.0565 16.6656C12.2542 16.2178 12 15.394 12 14.5V13C12 12.4477 12.4477 12 13 12ZM10 14.7692C10.5523 14.7692 11 15.217 11 15.7692V18.5385C11 19.0908 10.5523 19.5385 10 19.5385C9.44772 19.5385 9.00001 19.0908 9.00001 18.5385V15.7692C9.00001 15.217 9.44772 14.7692 10 14.7692ZM12 19C12 18.4477 12.4477 18 13 18H14C14.5523 18 15 18.4477 15 19C15 19.5523 14.5523 20 14 20H13C12.4477 20 12 19.5523 12 19Z" fill="black"/>
</svg>
