<svg xmlns="http://www.w3.org/2000/svg" width="41" height="41" viewBox="0 0 41 41" fill="none">
  <g clip-path="url(#clip0_37950_98658)">
    <path fill-rule="evenodd" clip-rule="evenodd" d="M0.498047 0.379395H15.026V14.87H0.498047V0.379395ZM36.735 36.7282H40.4395V40.3794H36.735V36.7282ZM29.6159 36.7217H33.3203V40.2001H29.6159H29.6126H25.9115V33.0868H29.4987V29.4813H33.1478V22.293H36.8522V25.8268H40.3809V29.478H36.8522V33.1292H33.2031H33.1478H29.6159V36.7217ZM18.6165 29.4226H22.2038V25.7714H18.7337V22.1202H22.2038V18.469H18.6751V22.1202H14.9674V18.469H18.6133V7.62634H22.3177V18.4658H25.9049V22.117H29.4336V18.4658H33.138V22.117H29.6159V25.7681H25.9115V32.9564H22.321V40.2034H18.6165V29.4226ZM36.6732 18.4658H40.3776V22.117H36.6732V18.4658ZM7.73438 18.4658H11.4388V22.117H7.73438V18.4658ZM0.498047 18.4658H4.20247V22.117H0.498047V18.4658ZM18.6165 0.379395H22.321V4.03058H18.6165V0.379395ZM0.439453 25.8268H14.9674V40.3175H0.439453V25.8268ZM3.9681 29.3476H11.4388V36.7999H3.9681V29.3476ZM25.8496 0.379395H40.3776V14.87H25.8496V0.379395ZM29.3815 3.90018H36.8522V11.3525H29.3815V3.90018ZM4.02669 3.90018H11.4974V11.3525H4.02669V3.90018Z" fill="url(#paint0_linear_37950_98658)"/>
  </g>
  <defs>
    <linearGradient id="paint0_linear_37950_98658" x1="20.4395" y1="0.379395" x2="20.4395" y2="40.3794" gradientUnits="userSpaceOnUse">
      <stop stop-color="white"/>
      <stop offset="1" stop-color="white" stop-opacity="0.8"/>
    </linearGradient>
    <clipPath id="clip0_37950_98658">
      <rect width="40" height="40" fill="white" transform="translate(0.439453 0.379395)"/>
    </clipPath>
  </defs>
</svg>