<svg width="24" height="24" viewBox="0 0 24 24" fill="none" xmlns="http://www.w3.org/2000/svg">
  <path d="M20.7439 15.7206L19.8911 15.1984V15.1984L20.7439 15.7206ZM19.7894 17.2794L20.6422 17.8016V17.8016L19.7894 17.2794ZM3.25609 8.27942L2.40328 7.7572H2.40328L3.25609 8.27942ZM4.21064 6.72057L5.06345 7.24279L4.21064 6.72057ZM6.81852 6.06172L7.29663 5.18342L7.29662 5.18342L6.81852 6.06172ZM3.95487 10.7383L3.47676 11.6166H3.47676L3.95487 10.7383ZM17.1815 17.9383L16.7034 18.8166L16.7034 18.8166L17.1815 17.9383ZM20.0451 13.2617L19.567 14.14L20.0451 13.2617ZM4.21064 17.2794L3.35782 17.8016H3.35782L4.21064 17.2794ZM3.25609 15.7206L4.1089 15.1984H4.1089L3.25609 15.7206ZM19.7894 6.72058L20.6422 6.19837V6.19837L19.7894 6.72058ZM20.7439 8.27943L19.8911 8.80164V8.80164L20.7439 8.27943ZM20.0451 10.7383L20.5232 11.6166L20.0451 10.7383ZM17.1815 6.06174L17.6596 6.94004L17.6596 6.94004L17.1815 6.06174ZM3.95487 13.2617L4.43298 14.14H4.43298L3.95487 13.2617ZM6.81851 17.9383L6.34041 17.06L6.34041 17.06L6.81851 17.9383ZM17.08 6.11698L16.6019 5.23868L16.6019 5.23868L17.08 6.11698ZM6.92 6.11697L6.44189 6.99527L6.44189 6.99527L6.92 6.11697ZM17.08 17.883L17.5581 17.0047L17.5581 17.0047L17.08 17.883ZM6.92 17.883L7.3981 18.7613L7.39811 18.7613L6.92 17.883ZM11.0455 4H12.9545V2H11.0455V4ZM12.9545 20H11.0455V22H12.9545V20ZM11.0455 20C10.4871 20 10.1364 19.5872 10.1364 19.2H8.13635C8.13635 20.801 9.49505 22 11.0455 22V20ZM13.8636 19.2C13.8636 19.5872 13.5129 20 12.9545 20V22C14.5049 22 15.8636 20.801 15.8636 19.2H13.8636ZM12.9545 4C13.5129 4 13.8636 4.4128 13.8636 4.8H15.8636C15.8636 3.19898 14.5049 2 12.9545 2V4ZM11.0455 2C9.49505 2 8.13635 3.19898 8.13635 4.8H10.1364C10.1364 4.4128 10.4871 4 11.0455 4V2ZM19.8911 15.1984L18.9365 16.7572L20.6422 17.8016L21.5967 16.2428L19.8911 15.1984ZM4.1089 8.80163L5.06345 7.24279L3.35783 6.19836L2.40328 7.7572L4.1089 8.80163ZM5.06345 7.24279C5.29924 6.85772 5.87226 6.68519 6.34041 6.94003L7.29662 5.18342C5.93856 4.44415 4.1764 4.86157 3.35783 6.19836L5.06345 7.24279ZM4.43298 9.85996C3.99603 9.62211 3.89609 9.14917 4.1089 8.80163L2.40328 7.7572C1.56172 9.13152 2.08749 10.8603 3.47676 11.6166L4.43298 9.85996ZM18.9365 16.7572C18.7008 17.1423 18.1277 17.3148 17.6596 17.06L16.7034 18.8166C18.0614 19.5558 19.8236 19.1384 20.6422 17.8016L18.9365 16.7572ZM21.5967 16.2428C22.4383 14.8685 21.9125 13.1397 20.5232 12.3834L19.567 14.14C20.004 14.3779 20.1039 14.8508 19.8911 15.1984L21.5967 16.2428ZM5.06345 16.7572L4.1089 15.1984L2.40328 16.2428L3.35782 17.8016L5.06345 16.7572ZM18.9365 7.2428L19.8911 8.80164L21.5967 7.75722L20.6422 6.19837L18.9365 7.2428ZM19.8911 8.80164C20.1039 9.14918 20.004 9.62212 19.567 9.85997L20.5232 11.6166C21.9125 10.8603 22.4383 9.13153 21.5967 7.75721L19.8911 8.80164ZM17.6596 6.94004C18.1277 6.6852 18.7008 6.85773 18.9365 7.2428L20.6422 6.19837C19.8236 4.86158 18.0614 4.44416 16.7034 5.18344L17.6596 6.94004ZM4.1089 15.1984C3.89609 14.8508 3.99603 14.3779 4.43298 14.14L3.47676 12.3834C2.08749 13.1397 1.56172 14.8685 2.40328 16.2428L4.1089 15.1984ZM3.35782 17.8016C4.1764 19.1384 5.93856 19.5558 7.29662 18.8166L6.34041 17.06C5.87226 17.3148 5.29924 17.1423 5.06345 16.7572L3.35782 17.8016ZM17.5581 6.99528L17.6596 6.94004L16.7034 5.18344L16.6019 5.23868L17.5581 6.99528ZM6.34041 6.94002L6.44189 6.99527L7.39811 5.23867L7.29663 5.18342L6.34041 6.94002ZM17.6596 17.06L17.5581 17.0047L16.6019 18.7613L16.7034 18.8166L17.6596 17.06ZM6.4419 17.0047L6.34041 17.06L7.29662 18.8166L7.3981 18.7613L6.4419 17.0047ZM3.47676 11.6166C3.78055 11.7819 3.78055 12.2181 3.47676 12.3834L4.43298 14.14C6.12847 13.2171 6.12848 10.7829 4.43298 9.85996L3.47676 11.6166ZM7.39811 18.7613C7.73092 18.5802 8.13635 18.8211 8.13635 19.2H10.1364C10.1364 17.3037 8.10741 16.0981 6.44189 17.0047L7.39811 18.7613ZM15.8636 19.2C15.8636 18.8211 16.2691 18.5802 16.6019 18.7613L17.5581 17.0047C15.8926 16.0981 13.8636 17.3037 13.8636 19.2H15.8636ZM20.5232 12.3834C20.2195 12.2181 20.2195 11.7819 20.5232 11.6166L19.567 9.85997C17.8715 10.7829 17.8715 13.2171 19.567 14.14L20.5232 12.3834ZM6.44189 6.99527C8.10741 7.90191 10.1364 6.6963 10.1364 4.8H8.13635C8.13635 5.17893 7.73092 5.41984 7.39811 5.23867L6.44189 6.99527ZM16.6019 5.23868C16.2691 5.41985 15.8636 5.17893 15.8636 4.8H13.8636C13.8636 6.6963 15.8926 7.90192 17.5581 6.99528L16.6019 5.23868ZM14 12C14 13.1046 13.1046 14 12 14V16C14.2091 16 16 14.2091 16 12H14ZM12 14C10.8954 14 10 13.1046 10 12H8.00001C8.00001 14.2091 9.79087 16 12 16V14ZM10 12C10 10.8954 10.8954 10 12 10V8C9.79087 8 8.00001 9.79086 8.00001 12H10ZM12 10C13.1046 10 14 10.8954 14 12H16C16 9.79086 14.2091 8 12 8V10Z" fill="currentColor"/>
</svg>
