<svg width="31" height="34" viewBox="0 0 31 34" fill="none" xmlns="http://www.w3.org/2000/svg">
<path fill-rule="evenodd" clip-rule="evenodd" d="M4.38747 4.85107L12.7847 0.94024C14.5224 0.130923 16.506 0.130922 18.2437 0.940239L26.6076 4.83556C29.0534 5.97466 30.6589 8.53484 30.4875 11.3338C29.8302 22.0698 26.9011 26.9231 18.9831 32.5537C16.8935 34.0396 14.1371 34.036 12.046 32.5524C4.15234 26.9524 1.11452 22.1667 0.510275 11.2961C0.355717 8.51557 1.95858 5.98228 4.38747 4.85107ZM21.4407 14.4897C21.8953 13.9702 21.8426 13.1805 21.3231 12.7259C20.8035 12.2713 20.0138 12.3239 19.5592 12.8435L14.776 18.31C14.6292 18.4778 14.3763 18.5002 14.2022 18.3609L11.2808 16.0239C10.7417 15.5926 9.95512 15.68 9.52386 16.2191C9.0926 16.7581 9.18 17.5448 9.71908 17.976L12.6404 20.3131C13.8593 21.2882 15.6297 21.1309 16.6575 19.9562L21.4407 14.4897Z" fill="currentColor"/>
</svg>
