<svg width="24" height="24" viewBox="0 0 24 24" fill="none" xmlns="http://www.w3.org/2000/svg">
<path fill-rule="evenodd" clip-rule="evenodd" d="M14.0416 1.26258C14.1218 1.26427 14.182 1.33623 14.1698 1.41553C14.0708 2.00969 14.0061 2.38967 13.9242 2.66868C13.8477 2.92952 13.7796 3.01384 13.7265 3.06094C13.6681 3.11277 13.5772 3.16922 13.3129 3.20574C13.0235 3.24574 12.6285 3.24992 11.9995 3.24992C11.3704 3.24992 10.9754 3.24574 10.686 3.20574C10.4218 3.16922 10.3308 3.11277 10.2724 3.06094C10.2193 3.01384 10.1513 2.92953 10.0747 2.66868C9.99296 2.39014 9.92832 2.01096 9.82957 1.41849C9.81781 1.33739 9.87948 1.26422 9.96141 1.2625C10.5588 1.24999 11.2181 1.24999 11.9437 1.25H11.9438H11.9438H12.0553H12.0554H12.0555C12.7827 1.24999 13.4432 1.24999 14.0416 1.26258ZM8.05962 1.38505C8.19637 1.36667 8.32081 1.46348 8.3406 1.60003L8.34665 1.64173L8.3491 1.65746L8.35612 1.69961C8.44652 2.24219 8.52515 2.71416 8.63584 3.09132C8.75495 3.49714 8.93355 3.8782 9.27733 4.18321C9.6329 4.49868 10.0424 4.63121 10.4811 4.69184C10.8947 4.749 11.4051 4.75015 11.9999 4.75015C12.5947 4.75015 13.1051 4.749 13.5187 4.69184C13.9573 4.63121 14.3669 4.49868 14.7225 4.18321C15.0662 3.8782 15.2448 3.49714 15.3639 3.09132C15.4746 2.71416 15.5533 2.24219 15.6437 1.69962L15.6507 1.65747L15.6599 1.59788C15.6806 1.46236 15.8045 1.36679 15.9404 1.38505C16.9767 1.52438 17.8301 1.81988 18.5052 2.49502C19.1803 3.17016 19.4759 4.02357 19.6152 5.05984C19.75 6.06293 19.75 7.34189 19.75 8.94448V15.056C19.75 16.6586 19.75 17.9375 19.6152 18.9406C19.4759 19.9769 19.1803 20.8303 18.5052 21.5054C17.8301 22.1806 16.9767 22.4761 15.9404 22.6154C14.9373 22.7503 13.6583 22.7502 12.0557 22.7502H11.9443C10.3417 22.7502 9.0627 22.7503 8.05962 22.6154C7.02335 22.4761 6.16994 22.1806 5.4948 21.5054C4.81966 20.8303 4.52415 19.9769 4.38483 18.9406C4.24997 17.9375 4.24998 16.6586 4.25 15.056V15.056V15.056L4.25 8.94446V8.94445V8.94444C4.24998 7.34187 4.24997 6.06291 4.38483 5.05984C4.52415 4.02357 4.81966 3.17016 5.4948 2.49502C6.16994 1.81988 7.02335 1.52438 8.05962 1.38505ZM10.25 20C10.25 19.5858 10.5858 19.25 11 19.25H13C13.4142 19.25 13.75 19.5858 13.75 20C13.75 20.4142 13.4142 20.75 13 20.75H11C10.5858 20.75 10.25 20.4142 10.25 20Z" fill="#657080"/>
</svg>
