<svg xmlns="http://www.w3.org/2000/svg" width="76" height="84" fill="none"><mask id="a" width="76" height="84" x="0" y="0" maskUnits="userSpaceOnUse" style="mask-type:alpha"><path fill="#030303" d="M29.34 2.704a17.004 17.004 0 0 1 17.32 0l20.18 11.902c5.359 3.161 8.66 9.003 8.66 15.324v23.806c0 6.321-3.301 12.163-8.66 15.324L46.66 80.962a17.004 17.004 0 0 1-17.32 0L9.16 69.06C3.801 65.899.5 60.057.5 53.735V29.93c0-6.321 3.301-12.163 8.66-15.324L29.34 2.704Z"/></mask><g mask="url(#a)"><path fill="#F9F9F9" d="M-7-4h89v88.644H-7z"/><path stroke="#183C4A" d="M27.539 40.671c-2.456 1.35-4.107 2.968-3.857 4.215.495 2.468 7.259 3.158 15.106 1.542 7.848-1.616 13.808-4.927 13.314-7.395-.273-1.357-2.441-2.177-5.643-2.37"/><path fill="#183C4A" fill-rule="evenodd" d="M37.785 32.007c-5.437 0-9.855 4.468-9.855 9.993 0 5.526 4.418 9.993 9.855 9.993s9.856-4.467 9.856-9.993c0-5.525-4.419-9.993-9.856-9.993ZM26.93 42c0-6.065 4.854-10.993 10.855-10.993 6.002 0 10.856 4.928 10.856 10.993s-4.854 10.993-10.856 10.993c-6.001 0-10.855-4.928-10.855-10.993Z" clip-rule="evenodd"/><path fill="#183C4A" d="M28.256 37.448a.5.5 0 1 0 .06.998l-.06-.998Zm5.53 2.526-.322-.382.322.382Zm-6.402 2.742a.5.5 0 0 0 .804.595l-.804-.595Zm.932-4.27c1.407-.084 3.328-.08 4.58.18.311.065.56.141.742.225.19.088.257.161.273.187l.003.006v-.002l-.001-.001v.003l-.002.01a.246.246 0 0 1-.015.045c-.041.096-.158.26-.432.493l.645.764c.325-.275.575-.56.705-.86.142-.328.136-.673-.05-.978-.165-.272-.439-.451-.707-.575a4.513 4.513 0 0 0-.957-.296c-1.388-.288-3.418-.284-4.844-.2l.06 1Zm5.148 1.146c-1.41 1.19-2.444 1.42-3.34 1.602-.45.09-.936.18-1.397.391-.481.22-.921.562-1.343 1.131l.804.595c.329-.444.639-.672.954-.816.336-.154.695-.223 1.18-.321.98-.199 2.197-.476 3.787-1.818l-.645-.764ZM34.837 52.355a.5.5 0 0 0 .897-.443l-.897.443Zm3.449-3.768-.056-.497.056.497Zm8.5-1.527a.5.5 0 1 0 0-1v1Zm-11.052 4.852c-.206-.418-.308-1.03-.04-1.552.255-.5.935-1.084 2.648-1.276l-.112-.994c-1.887.212-2.958.896-3.427 1.814-.458.896-.26 1.855.035 2.45l.896-.442Zm2.608-2.828c2.277-.257 3.594-.646 4.42-1.065.843-.427 1.168-.893 1.38-1.108l-.712-.702c-.288.292-.464.586-1.12.918-.674.342-1.857.713-4.08.963l.112.994Zm5.8-2.173c-.008.008.053-.045.297-.067.22-.02.495-.007.796.024.299.03.599.075.868.115.246.037.51.077.683.077v-1c-.079 0-.251-.023-.536-.066-.263-.039-.587-.088-.914-.121a5.365 5.365 0 0 0-.986-.025c-.287.026-.663.1-.92.36l.712.703ZM43.079 32.88a.5.5 0 1 0-1 0h1Zm-3.971 4.754.256.43-.256-.43Zm0 4.321-.158.474.157-.474Zm8.455-1.713a.5.5 0 0 0 .446-.895l-.446.895Zm-5.484-7.361c0 .696-.402 1.545-1.053 2.371-.641.813-1.464 1.528-2.175 1.953l.513.858c.823-.492 1.736-1.29 2.447-2.192.701-.889 1.268-1.958 1.268-2.99h-1Zm-3.228 4.324c-1.264.755-1.673 1.926-1.541 2.976.125.998.757 1.956 1.64 2.248l.315-.949c-.419-.139-.871-.694-.963-1.424-.085-.678.157-1.452 1.062-1.993l-.513-.858Zm.099 5.224c.667.222 1.339-.114 1.883-.453.292-.182.6-.4.91-.618.314-.22.637-.446.977-.658 1.35-.84 2.9-1.426 4.843-.458l.446-.895c-2.396-1.193-4.337-.417-5.817.504-.367.229-.71.469-1.024.69-.319.223-.6.423-.863.586-.564.35-.859.414-1.04.353l-.315.95Z"/><path stroke="#DADADA" stroke-linejoin="round" d="M29.34 2.704a17.004 17.004 0 0 1 17.32 0l20.18 11.902c5.359 3.161 8.66 9.003 8.66 15.324v23.806c0 6.321-3.301 12.163-8.66 15.324L46.66 80.962a17.004 17.004 0 0 1-17.32 0L9.16 69.06C3.801 65.899.5 60.057.5 53.735V29.93c0-6.321 3.301-12.163 8.66-15.324L29.34 2.704Z"/></g></svg>