<svg width="20" height="20" viewBox="0 0 20 20" fill="none" xmlns="http://www.w3.org/2000/svg">
<path fill-rule="evenodd" clip-rule="evenodd" d="M8.306 3.4716C9.04405 2.17613 10.9546 2.17613 11.6927 3.4716L18.0861 14.6937C18.8034 15.9527 17.8698 17.5 16.3928 17.5H3.60592C2.1289 17.5 1.19527 15.9527 1.91257 14.6937L8.306 3.4716ZM10.8326 14.1667C10.8326 14.6269 10.4595 15 9.9993 15C9.53906 15 9.16596 14.6269 9.16596 14.1667C9.16596 13.7064 9.53906 13.3333 9.9993 13.3333C10.4595 13.3333 10.8326 13.7064 10.8326 14.1667ZM10.6243 7.5C10.6243 7.15482 10.3445 6.875 9.9993 6.875C9.65412 6.875 9.3743 7.15482 9.3743 7.5V11.6667C9.3743 12.0118 9.65412 12.2917 9.9993 12.2917C10.3445 12.2917 10.6243 12.0118 10.6243 11.6667V7.5Z" fill="currentColor"/>
</svg>
