<svg xmlns="http://www.w3.org/2000/svg" width="16" height="14" fill="none"><path fill="#191C20" d="M8.132 8.94c.64 0 1.26.168 1.808.488l.222.13a.297.297 0 0 1 .06.466l-1.894 1.889a.299.299 0 0 1-.421 0l-1.882-1.877a.297.297 0 0 1 .058-.465l.22-.13a3.571 3.571 0 0 1 1.829-.502ZM8.133 5.47a7.04 7.04 0 0 1 4.362 1.505l.176.138c.14.11.153.318.026.443l-1.13 1.128a.299.299 0 0 1-.39.028l-.137-.102a4.858 4.858 0 0 0-2.907-.96c-1.06 0-2.08.34-2.923.971l-.138.103a.299.299 0 0 1-.39-.027L3.552 7.57a.297.297 0 0 1 .026-.443l.175-.138a7.04 7.04 0 0 1 4.38-1.52Z"/><path fill="#191C20" d="M8.133 2c2.524 0 4.939.89 6.85 2.523l.163.14c.132.112.14.313.017.435l-1.127 1.124a.298.298 0 0 1-.402.018l-.14-.117A8.33 8.33 0 0 0 8.133 4.18a8.33 8.33 0 0 0-5.377 1.955l-.14.118a.299.299 0 0 1-.402-.017L1.087 5.112a.297.297 0 0 1 .017-.436l.162-.139A10.513 10.513 0 0 1 8.133 2Z"/></svg>