<svg xmlns="http://www.w3.org/2000/svg" width="46" height="46" fill="none"><g clip-path="url(#a)"><path fill="#fff" d="M26.78 17.5c.855-3.634 9.319-12.727 13.358-9.693 4.7 3.643-.782 10.957-2.714 13.785 0 0-.387-3.914-3.469-7.464a155.657 155.657 0 0 0-6.063 4.13.718.718 0 0 1-1.07-.333.752.752 0 0 1-.043-.425Zm3.45 5.487a.684.684 0 0 0-.387.525.732.732 0 0 0 .092.51.71.71 0 0 0 .405.314c1.564.468 4.204 1.292 6.946 2.266-.81 4.664-3.57 7.408-3.57 7.408 3.376-.225 12.402-.403 12.282-6.424-.175-5.104-12.438-6.181-15.769-4.599Zm-2.07 6.163a.697.697 0 0 0-.8.122.725.725 0 0 0-.167.805 159.065 159.065 0 0 1 2.585 6.948c-4.094 2.257-7.92 1.76-7.92 1.76 2.272 2.548 8.03 9.628 12.576 5.788 3.818-3.315-2.981-13.757-6.275-15.424Zm-6.027 2.19a.706.706 0 0 0-.414-.505.688.688 0 0 0-.51-.026.703.703 0 0 0-.391.335c-.8 1.442-2.18 3.877-3.736 6.378-4.278-1.855-6.283-5.217-6.283-5.217-.543 3.4-2.401 12.4 3.385 13.636 4.922.973 8.722-10.948 7.95-14.6Zm-5.428-3.445a.746.746 0 0 0-.17-1.063.698.698 0 0 0-.501-.108c-1.61.262-4.343.684-7.232 1.002-1.242-4.57.092-8.25.092-8.25C5.941 21.152-2.127 25.282.522 30.648c2.319 4.532 13.846.131 16.183-2.753Zm-.745-6.471a.68.68 0 0 0 .58-.29.74.74 0 0 0-.092-.975 139.368 139.368 0 0 1-5.272-5.132c2.742-3.83 6.403-5.057 6.403-5.057-3.128-1.31-11.325-5.178-13.8.29-2.042 4.664 8.51 11.107 12.181 11.164Zm5.106-4.336a.711.711 0 0 0 .472-.204.735.735 0 0 0 .218-.47c.101-1.658.322-4.458.662-7.399 4.656-.206 7.876 1.948 7.876 1.948C29.355 7.657 27.22-1.277 21.48.147c-4.858 1.283-3.238 13.7-1.003 16.669a.72.72 0 0 0 .589.272Z"/></g><defs><clipPath id="a"><path fill="#fff" d="M0 0h46v46H0z"/></clipPath></defs></svg>