<svg xmlns="http://www.w3.org/2000/svg" width="24" height="24" fill="none"><path fill="#FF5A76" fill-rule="evenodd" d="M2.25 5A2.75 2.75 0 0 1 5 2.25h5.25A2.75 2.75 0 0 1 13 5v1.8a.2.2 0 0 1-.2.2h-1.1a.2.2 0 0 1-.2-.2V5c0-.69-.56-1.25-1.25-1.25H5c-.69 0-1.25.56-1.25 1.25v14c0 .69.56 1.25 1.25 1.25h5.25c.69 0 1.25-.56 1.25-1.25v-1.8c0-.11.09-.2.2-.2h1.1c.11 0 .2.09.2.2V19a2.75 2.75 0 0 1-2.75 2.75H5A2.75 2.75 0 0 1 2.25 19V5Z" clip-rule="evenodd"/><path fill="#FF5A76" d="M9.268 11.267a.75.75 0 0 0 0 1.5v-1.5Zm12.06 1.5a.75.75 0 0 0 0-1.5v1.5Zm-4.856 3.203a.75.75 0 0 0 1.06 1.06l-1.06-1.06ZM21.5 12l.53.53a.75.75 0 0 0 0-1.06l-.53.53Zm-3.967-5.03a.75.75 0 1 0-1.061 1.06l1.06-1.06Zm1.718 7.28.53.53-.53-.53Zm-9.983-1.483h12.06v-1.5H9.268v1.5Zm7.204-4.737 4.497 4.5 1.061-1.06-4.497-4.5-1.061 1.06Zm1.06 9 2.25-2.25-1.061-1.06-2.25 2.25 1.062 1.06Zm2.25-2.25 2.248-2.25-1.06-1.06-2.25 2.25 1.062 1.06Z"/></svg>