<svg xmlns="http://www.w3.org/2000/svg" width="64" height="90" fill="none"><path fill="#fff" fill-rule="evenodd" d="M64 14.2C64 8.738 59.91 4 54.5 4H46v4h8.5c2.873 0 5.5 2.604 5.5 6.2v65.6c0 3.596-2.627 6.2-5.5 6.2h-45C6.627 86 4 83.396 4 79.8V14.2C4 10.604 6.627 8 9.5 8H18V4H9.5C4.09 4 0 8.738 0 14.2v65.6C0 85.262 4.09 90 9.5 90h45c5.41 0 9.5-4.738 9.5-10.2V14.2Z" clip-rule="evenodd"/><rect width="16" height="8.122" x="24" y="2" stroke="#fff" stroke-width="3.6" rx="2"/><path stroke="#fff" stroke-linecap="round" stroke-linejoin="round" stroke-width="4" d="M16 61.336h32M24 71.336h16"/><path fill="#fff" d="M35.285 38.085a.492.492 0 0 0-.081.654 96.6 96.6 0 0 1 2.787 4.223 9.876 9.876 0 0 1-5.036 2.41c1.912 1.35 6.84 5.163 9.305 1.88 2.06-2.806-4.094-8.69-6.544-9.276a.467.467 0 0 0-.431.11ZM32.012 40.373a.502.502 0 0 0-.48-.273.495.495 0 0 0-.435.342 114.72 114.72 0 0 1-1.535 4.835 9.813 9.813 0 0 1-5.01-2.492c.162 2.356.283 8.636 4.35 8.554 3.447-.122 4.174-8.65 3.11-10.965ZM27.838 38.93a.521.521 0 0 0 0-.45.5.5 0 0 0-.62-.231 83.351 83.351 0 0 1-4.699 1.798c-1.521-2.847-1.185-5.504-1.185-5.504-1.723 1.58-6.504 5.585-3.918 8.76 2.248 2.642 9.304-2.085 10.422-4.373ZM26.37 34.734a.47.47 0 0 0 .337-.286.496.496 0 0 0-.216-.627c-.97-.558-2.612-1.511-4.308-2.601a9.948 9.948 0 0 1 3.527-4.373c-2.302-.381-8.375-1.662-9.21 2.357-.66 3.432 7.393 6.061 9.87 5.53ZM28.686 30.96a.496.496 0 0 0 .431.083.495.495 0 0 0 .363-.558c-.174-1.118-.457-3.011-.672-5.027a9.828 9.828 0 0 1 5.574.068c-1.13-2.057-3.918-7.67-7.554-5.817-3.056 1.608-.094 9.63 1.858 11.252ZM33.063 30.443a.468.468 0 0 0 .202.395.468.468 0 0 0 .646-.054 87.966 87.966 0 0 1 3.474-3.665 9.957 9.957 0 0 1 3.42 4.455c.876-2.18 3.488-7.887-.202-9.617-3.15-1.417-7.5 5.939-7.54 8.486ZM35.998 33.985a.507.507 0 0 0 .136.334c.085.09.2.146.322.156 1.104.068 3.003.218 4.982.463a10.05 10.05 0 0 1-1.306 5.476c2.236-.654 8.268-2.138 7.299-6.13-.862-3.378-9.251-2.26-11.258-.694a.448.448 0 0 0-.175.395Z"/></svg>