<svg xmlns="http://www.w3.org/2000/svg" width="32" height="32" fill="none"><path fill="url(#a)" d="M12.498 19.44a.75.75 0 1 0-.996 1.12l.996-1.12Zm8 1.12a.75.75 0 1 0-.996-1.12l.996 1.12Zm1.418-7.227a.583.583 0 0 1-.583.583v1.5c1.15 0 2.084-.932 2.084-2.083h-1.5Zm-.583.583a.583.583 0 0 1-.583-.583h-1.5c0 1.15.933 2.083 2.083 2.083v-1.5Zm-.583-.583c0-.322.261-.583.583-.583v-1.5c-1.15 0-2.083.933-2.083 2.083h1.5Zm.583-.583c.322 0 .584.261.584.583h1.5c0-1.15-.933-2.083-2.084-2.083v1.5Zm7.25 3.25c0 6.95-5.634 12.583-12.583 12.583v1.5c7.778 0 14.083-6.305 14.083-14.083h-1.5ZM16 28.583C9.05 28.583 3.416 22.95 3.416 16h-1.5c0 7.778 6.306 14.083 14.084 14.083v-1.5ZM3.416 16C3.416 9.05 9.05 3.416 16 3.416v-1.5C8.222 1.917 1.916 8.223 1.916 16h1.5ZM16 3.416c6.95 0 12.583 5.634 12.583 12.584h1.5c0-7.778-6.305-14.084-14.083-14.084v1.5Zm-4.75 9.917a.583.583 0 0 1-.584.583v1.5c1.151 0 2.084-.932 2.084-2.083h-1.5Zm-.584.583a.583.583 0 0 1-.583-.583h-1.5c0 1.15.933 2.083 2.083 2.083v-1.5Zm-.583-.583c0-.322.261-.583.583-.583v-1.5c-1.15 0-2.083.933-2.083 2.083h1.5Zm.583-.583c.323 0 .584.261.584.583h1.5c0-1.15-.933-2.083-2.084-2.083v1.5ZM12 20l-.498.56v.001l.002.001.002.003.007.006a1.285 1.285 0 0 0 .09.073c.057.046.138.108.242.18.207.144.506.331.89.517a7.471 7.471 0 0 0 3.265.742v-1.5a5.97 5.97 0 0 1-2.61-.591 5.134 5.134 0 0 1-.688-.4 3.276 3.276 0 0 1-.202-.15l-.005-.005h.002v.002l-.497.56Zm4 2.083c1.386 0 2.497-.37 3.265-.742.383-.186.682-.373.89-.517a4.808 4.808 0 0 0 .338-.26l.003-.002h.001v-.001L20 20l-.498-.561.001-.001.001-.001-.005.004a3.323 3.323 0 0 1-.201.151 5.136 5.136 0 0 1-.688.4 5.97 5.97 0 0 1-2.61.591v1.5Z"/><defs><linearGradient id="a" x1="2.667" x2="29.333" y1="13.852" y2="13.852" gradientUnits="userSpaceOnUse"><stop stop-color="#FF6848"/><stop offset="1" stop-color="#4940E0"/></linearGradient></defs></svg>