<svg xmlns="http://www.w3.org/2000/svg" width="25" height="24" fill="none"><path fill="#DADADA" fill-rule="evenodd" d="M23 12c0 5.799-4.701 10.5-10.5 10.5S2 17.799 2 12 6.701 1.5 12.5 1.5 23 6.201 23 12Zm-10.5 2.68a.5.5 0 0 1-.5-.5v-1.795c0-.376.3-.65.636-.671.521-.033.984-.25 1.318-.578.342-.337.546-.787.546-1.277 0-1-.868-1.859-2-1.859-.267 0-.53.05-.775.145a2.015 2.015 0 0 0-.65.41c-.184.174-.329.379-.427.602a1.744 1.744 0 0 0-.148.702.5.5 0 0 1-1 0c0-.38.08-.755.232-1.104.154-.349.377-.664.657-.928s.61-.472.972-.613A3.13 3.13 0 0 1 12.5 7c1.63 0 3 1.253 3 2.859 0 .777-.326 1.479-.845 1.99a3.045 3.045 0 0 1-1.655.83v1.5a.5.5 0 0 1-.5.5Zm.55 1.22a.601.601 0 1 0-.602.6h.006c.33 0 .595-.268.595-.6Z" clip-rule="evenodd"/></svg>