<svg xmlns="http://www.w3.org/2000/svg" width="18" height="18" fill="none"><path fill="currentColor" fill-rule="evenodd" d="M9 0a9 9 0 1 0 0 18A9 9 0 0 0 9 0Zm-.528 11.383c.051.05.119.076.203.076h.621c.17 0 .275-.101.317-.304 0-.118.009-.296.025-.532.026-.296.119-.562.28-.799.16-.245.4-.54.722-.887.389-.414.68-.778.874-1.09.195-.313.292-.685.292-1.116 0-.38-.101-.74-.304-1.077-.203-.347-.516-.626-.938-.837-.423-.211-.942-.317-1.56-.317-.582 0-1.102.118-1.559.355a2.64 2.64 0 0 0-1.052.938A2.532 2.532 0 0 0 6 7.073c0 .085.026.152.076.203.06.05.127.076.203.076h.558c.186 0 .296-.093.33-.279.093-.532.295-.92.608-1.166.321-.253.718-.38 1.192-.38.439 0 .824.114 1.153.342.33.228.495.537.495.925a.752.752 0 0 1-.013.165 1.317 1.317 0 0 1-.266.66c-.144.202-.368.46-.672.773a7.888 7.888 0 0 0-.926 1.102c-.21.33-.325.719-.342 1.167v.52c0 .084.026.152.076.202Zm-.127 2.041a.32.32 0 0 0 .216.076h.786a.32.32 0 0 0 .215-.076.293.293 0 0 0 .09-.215v-.736a.294.294 0 0 0-.09-.215.294.294 0 0 0-.215-.089H8.56a.294.294 0 0 0-.216.089.32.32 0 0 0-.076.215v.736a.32.32 0 0 0 .076.215Z" clip-rule="evenodd"/></svg>