<svg
  width="60"
  height="60"
  fill="none"
  xmlns="http://www.w3.org/2000/svg"
>
  <circle
    cx="30"
    cy="30"
    r="30"
    fill="url(#a)"
  />
  <mask
    id="b"
    style="mask-type:alpha"
    maskUnits="userSpaceOnUse"
    x="0"
    y="0"
    width="30"
    height="60"
  >
    <path
      fill="#C4C4C4"
      d="M0 0h30v60H0z"
    />
  </mask>
  <g mask="url(#b)">
    <circle
      cx="30"
      cy="30"
      r="30"
      fill="#000"
    />
  </g>
  <path
    fill-rule="evenodd"
    clip-rule="evenodd"
    d="M38.317 23.507c.831.746.916 2.041.188 2.893l-7.653 8.966a4.587 4.587 0 0 1-6.427.586l-4.674-3.834a2.085 2.085 0 0 1-.313-2.881 1.967 1.967 0 0 1 2.811-.32l4.675 3.833a.655.655 0 0 0 .918-.084l7.653-8.966a1.966 1.966 0 0 1 2.822-.193Z"
    fill="#fff"
  />
  <defs>
    <linearGradient
      id="a"
      x1="30"
      y1="0"
      x2="30"
      y2="60"
      gradientUnits="userSpaceOnUse"
    >
      <stop stop-color="#F66751" />
      <stop
        offset="1"
        stop-color="#5743D6"
      />
    </linearGradient>
  </defs>
</svg>
