<svg
  width="25"
  height="24"
  viewBox="0 0 25 24"
  fill="none"
  xmlns="http://www.w3.org/2000/svg"
>
  <path
    fill-rule="evenodd"
    clip-rule="evenodd"
    d="M12.5 22.5C18.299 22.5 23 17.799 23 12C23 6.20101 18.299 1.5 12.5 1.5C6.70101 1.5 2 6.20101 2 12C2 17.799 6.70101 22.5 12.5 22.5ZM16.94 9.43369C17.1335 9.23668 17.1307 8.92011 16.9337 8.72662C16.7366 8.53312 16.4201 8.53597 16.2266 8.73299L10.858 14.1992L8.77706 12.0351C8.58566 11.836 8.26914 11.8298 8.07009 12.0212C7.87103 12.2126 7.86482 12.5291 8.05622 12.7282L10.4938 15.2632C10.5874 15.3606 10.7164 15.416 10.8515 15.4167C10.9866 15.4174 11.1162 15.3634 11.2109 15.267L16.94 9.43369Z"
    fill="#4940E0"
  />
</svg>
