<svg
  width="20"
  height="20"
  viewBox="0 0 20 20"
  fill="none"
  xmlns="http://www.w3.org/2000/svg"
>
  <path
    d="M13.75 5.1875V2H10.0312C9.15104 2 8.4375 2.71354 8.4375 3.59375V13.1562C8.4375 14.0365 9.15104 14.75 10.0312 14.75H16.4062C17.2865 14.75 18 14.0365 18 13.1562V6.25H14.8424C14.2281 6.25 13.75 5.77187 13.75 5.1875ZM14.8125 2V5.1875H18L14.8125 2ZM7.375 13.6875V6.25H2.59375C1.71354 6.25 1 6.96354 1 7.84375V17.4062C1 18.2865 1.71354 19 2.59375 19H8.96875C9.84896 19 10.5625 18.2865 10.5625 17.4062V15.8125H9.5C8.32793 15.8125 7.375 14.8596 7.375 13.6875Z"
    fill="white"
  />
</svg>
