<svg width="60" height="60" fill="none" xmlns="http://www.w3.org/2000/svg"><g clip-path="url(#a)"><circle cx="30" cy="30" r="30" fill="url(#b)"/><mask id="c" style="mask-type:alpha" maskUnits="userSpaceOnUse" x="0" y="0" width="30" height="60"><path fill="#C4C4C4" d="M0 0h30v60H0z"/></mask><g mask="url(#c)"><circle cx="30" cy="30" r="30" fill="#000"/></g><path d="M38.486 23.636a1.5 1.5 0 1 0-2.122-2.121l2.122 2.121ZM21.515 36.364a1.5 1.5 0 1 0 2.121 2.121l-2.121-2.12Zm14.85 2.121a1.5 1.5 0 1 0 2.12-2.121l-2.12 2.121Zm-12.729-16.97a1.5 1.5 0 1 0-2.121 2.121l2.121-2.121Zm12.728 0-14.849 14.85 2.121 2.12 14.85-14.849-2.122-2.121Zm2.122 14.849-14.85-14.85-2.121 2.122 14.85 14.85 2.12-2.122Z" fill="#fff"/></g><defs><linearGradient id="b" x1="30" y1="0" x2="30" y2="60" gradientUnits="userSpaceOnUse"><stop stop-color="#F66751"/><stop offset="1" stop-color="#5743D6"/></linearGradient><clipPath id="a"><path fill="#fff" d="M0 0h60v60H0z"/></clipPath></defs></svg>