<svg
  width="16"
  height="16"
  viewBox="0 0 16 16"
  fill="none"
  xmlns="http://www.w3.org/2000/svg"
>
  <path
    fill-rule="evenodd"
    clip-rule="evenodd"
    d="M8 15.5C12.1421 15.5 15.5 12.1421 15.5 8C15.5 3.85786 12.1421 0.5 8 0.5C3.85786 0.5 0.5 3.85786 0.5 8C0.5 12.1421 3.85786 15.5 8 15.5ZM6.27042 5.56309C6.07516 5.36783 5.75858 5.36783 5.56332 5.56309C5.36805 5.75835 5.36805 6.07493 5.56332 6.27019L7.2931 7.99997L5.56332 9.72975C5.36805 9.92502 5.36805 10.2416 5.56332 10.4369C5.75858 10.6321 6.07516 10.6321 6.27042 10.4369L8.0002 8.70708L9.72998 10.4369C9.92525 10.6321 10.2418 10.6321 10.4371 10.4369C10.6324 10.2416 10.6324 9.92502 10.4371 9.72975L8.70731 7.99997L10.4371 6.27019C10.6324 6.07493 10.6324 5.75835 10.4371 5.56309C10.2418 5.36783 9.92525 5.36783 9.72998 5.56309L8.0002 7.29287L6.27042 5.56309Z"
    fill="#FF6471"
  />
</svg>
