<svg xmlns="http://www.w3.org/2000/svg" width="77" height="85" fill="none"><path stroke="#DADADA" stroke-linejoin="round" d="M29.84 3.37a17.004 17.004 0 0 1 17.32 0l20.18 11.903C72.699 18.434 76 24.276 76 30.598v23.805c0 6.321-3.301 12.163-8.66 15.324L47.16 81.629a17.004 17.004 0 0 1-17.32 0L9.66 69.727C4.301 66.566 1 60.724 1 54.402V30.598c0-6.321 3.301-12.163 8.66-15.324L29.84 3.371Z"/><mask id="a" width="75" height="83" x="1" y="1" maskUnits="userSpaceOnUse" style="mask-type:alpha"><path fill="#030303" d="M29.84 3.37a17.004 17.004 0 0 1 17.32 0l20.18 11.903C72.699 18.434 76 24.276 76 30.598v23.805c0 6.321-3.301 12.163-8.66 15.324L47.16 81.629a17.004 17.004 0 0 1-17.32 0L9.66 69.727C4.301 66.566 1 60.724 1 54.402V30.598c0-6.321 3.301-12.163 8.66-15.324L29.84 3.371Z"/></mask><g mask="url(#a)"><path fill="#F9F9F9" d="M-6.16-2.319h89v88.644h-89z"/></g></svg>