<svg
  width="24"
  height="24"
  viewBox="0 0 24 24"
  fill="none"
  xmlns="http://www.w3.org/2000/svg"
>
  <path
    d="M13.5609 3.5C13.837 3.5 14.0609 3.27614 14.0609 3C14.0609 2.72386 13.837 2.5 13.5609 2.5V3.5ZM13.5609 21.5C13.837 21.5 14.0609 21.2761 14.0609 21C14.0609 20.7239 13.837 20.5 13.5609 20.5V21.5ZM5.00012 3.5H13.5609V2.5H5.00012V3.5ZM13.5609 20.5H5.00012V21.5H13.5609V20.5ZM3.50012 19V5H2.50012V19H3.50012ZM5.00012 20.5C4.17169 20.5 3.50012 19.8284 3.50012 19H2.50012C2.50012 20.3807 3.61941 21.5 5.00012 21.5V20.5ZM5.00012 2.5C3.61941 2.5 2.50012 3.61929 2.50012 5H3.50012C3.50012 4.17157 4.17169 3.5 5.00012 3.5V2.5Z"
    fill="white"
  />
  <path
    d="M9.09839 11.5166C8.82225 11.5166 8.59839 11.7405 8.59839 12.0166C8.59839 12.2928 8.82225 12.5166 9.09839 12.5166L9.09839 11.5166ZM20.8321 12.5166C21.1082 12.5166 21.3321 12.2928 21.3321 12.0166C21.3321 11.7405 21.1082 11.5166 20.8321 11.5166L20.8321 12.5166ZM16.2653 16.1514C16.0728 16.3494 16.0772 16.6659 16.2752 16.8585C16.4732 17.051 16.7897 17.0466 16.9822 16.8486L16.2653 16.1514ZM20.9999 12L21.3583 12.3486C21.5471 12.1545 21.5471 11.8455 21.3583 11.6514L20.9999 12ZM16.9822 7.15142C16.7897 6.95345 16.4732 6.94903 16.2752 7.14154C16.0772 7.33406 16.0728 7.65061 16.2653 7.84858L16.9822 7.15142ZM18.8118 14.25L19.1703 14.5986L19.1703 14.5986L18.8118 14.25ZM9.09839 12.5166L20.8321 12.5166L20.8321 11.5166L9.09839 11.5166L9.09839 12.5166ZM16.2653 7.84858L20.6414 12.3486L21.3583 11.6514L16.9822 7.15142L16.2653 7.84858ZM16.9822 16.8486L19.1703 14.5986L18.4534 13.9014L16.2653 16.1514L16.9822 16.8486ZM19.1703 14.5986L21.3583 12.3486L20.6414 11.6514L18.4534 13.9014L19.1703 14.5986Z"
    fill="white"
  />
</svg>
