<svg
  width="142"
  height="24"
  viewBox="0 0 142 24"
  fill="none"
  xmlns="http://www.w3.org/2000/svg"
>
  <path
    d="M47.2083 5.44737L43.6826 19.1654H41.3946L38.4097 9.72191L35.4144 19.1654H33.1263L29.6006 5.44737H31.9719L34.4575 15.3069L37.1824 5.44737H39.6265L42.3514 15.3069L44.8371 5.44737H47.2083Z"
    fill="#183C4A"
  />
  <path
    d="M48.29 12.3116C48.29 7.90187 50.2245 5.15619 54.0518 5.15619C57.8791 5.15619 59.7928 7.90187 59.7928 12.3116C59.7928 16.7214 57.8479 19.467 54.0518 19.467C50.2557 19.467 48.29 16.7214 48.29 12.3116ZM57.4215 12.3116C57.4215 10.5852 57.0471 7.35066 54.0518 7.35066C51.0565 7.35066 50.6613 10.5852 50.6613 12.3116C50.6613 14.0381 51.0461 17.2726 54.0518 17.2726C57.0575 17.2726 57.4215 14.0381 57.4215 12.3116Z"
    fill="#183C4A"
  />
  <path
    d="M69.4443 19.1654L66.7818 13.5596H64.4313V19.1654H62.06V5.44737H66.8858C70.2139 5.44737 72.0547 6.48741 72.0547 9.4307C72.0547 11.6252 71.0979 12.8004 69.3091 13.2892L72.0755 19.1654H69.4443ZM64.4313 11.3548H66.7818C68.7994 11.3548 69.7251 10.8451 69.7251 9.5035C69.7251 8.16186 68.7474 7.66264 66.7818 7.66264H64.4313V11.3548Z"
    fill="#183C4A"
  />
  <path
    d="M74.5612 5.44737H76.9325V16.9189H83.7135V19.1654H74.5612V5.44737Z"
    fill="#183C4A"
  />
  <path
    d="M85.9496 5.44737H89.8497C93.9578 5.44737 96.6099 8.14106 96.6099 12.3532C96.6099 16.5653 93.9578 19.1654 89.8497 19.1654H85.9496V5.44737ZM90.0161 16.9189C92.6266 16.9189 94.2387 15.0365 94.2387 12.3532C94.2387 9.66991 92.5538 7.70424 90.0161 7.70424H88.3209V16.9189H90.0161Z"
    fill="#183C4A"
  />
  <path
    d="M98.586 12.27C98.586 8.01624 100.957 5.21855 104.639 5.21855C107.26 5.21855 109.496 6.64339 110.203 9.33708L107.988 10.0131C107.541 8.72346 106.885 7.47542 104.639 7.47542C102.393 7.47542 100.957 9.49308 100.957 12.27C100.957 15.0469 102.309 17.1477 104.639 17.1477C106.969 17.1477 107.717 15.7541 108.009 14.5476L110.203 15.2341C109.558 17.8757 107.437 19.4046 104.639 19.4046C100.957 19.4046 98.586 16.5861 98.586 12.27Z"
    fill="#183C4A"
  />
  <path
    d="M112.106 12.3116C112.106 7.90187 114.041 5.15619 117.858 5.15619C121.675 5.15619 123.599 7.90187 123.599 12.3116C123.599 16.7214 121.664 19.467 117.858 19.467C114.051 19.467 112.106 16.7214 112.106 12.3116ZM121.228 12.3116C121.228 10.5852 120.863 7.35066 117.858 7.35066C114.852 7.35066 114.467 10.5852 114.467 12.3116C114.467 14.0381 114.863 17.2726 117.858 17.2726C120.853 17.2726 121.228 14.0381 121.228 12.3116Z"
    fill="#183C4A"
  />
  <path
    d="M126.376 5.44737H128.747V19.1654H126.376V5.44737Z"
    fill="#183C4A"
  />
  <path
    d="M141.675 5.44737V19.1654H139.303L133.968 10.2315V19.1654H131.607V5.44737H133.968L139.303 14.7037V5.44737H141.675Z"
    fill="#183C4A"
  />
  <path
    d="M14.3121 9.46189C14.3727 9.53243 14.4574 9.57789 14.5497 9.58943C14.642 9.60096 14.7353 9.57774 14.8114 9.52429C15.5186 9.02507 16.725 8.19305 18.0355 7.37142C19.0079 8.46561 19.6467 9.81539 19.8763 11.2611C20.9059 9.7843 23.818 5.97778 21.3116 4.07452C19.1691 2.48327 14.6762 7.23622 14.2289 9.12908C14.2144 9.18712 14.2144 9.24785 14.2289 9.3059C14.2434 9.36395 14.272 9.41753 14.3121 9.46189Z"
    fill="#183C4A"
  />
  <path
    d="M16.0594 11.9893C15.992 12.0237 15.9362 12.0773 15.8991 12.1432C15.862 12.2092 15.8452 12.2846 15.8507 12.3601C15.8563 12.4356 15.884 12.5078 15.9303 12.5676C15.9767 12.6274 16.0397 12.6723 16.1114 12.6965C16.9434 12.9461 18.3474 13.3725 19.8035 13.8821C19.5552 15.3282 18.8942 16.6718 17.9002 17.751C19.6995 17.6262 24.494 17.5326 24.4316 14.3917C24.338 11.7292 17.8274 11.1676 16.0594 11.9893Z"
    fill="#183C4A"
  />
  <path
    d="M14.9569 15.2133C14.9034 15.1875 14.8447 15.1741 14.7853 15.1741C14.7259 15.1741 14.6672 15.1875 14.6137 15.2133C14.5309 15.2577 14.4672 15.3309 14.4347 15.419C14.4021 15.5072 14.4029 15.6041 14.4369 15.6917C14.7697 16.4926 15.3105 17.8654 15.8098 19.3214C13.6361 20.4967 11.608 20.2367 11.608 20.2367C12.8145 21.5679 15.8722 25.26 18.2954 23.2632C20.3131 21.5263 16.7042 16.0765 14.9569 15.2133Z"
    fill="#183C4A"
  />
  <path
    d="M11.7537 16.347C11.7411 16.2892 11.7147 16.2353 11.6766 16.19C11.6386 16.1446 11.5901 16.1093 11.5353 16.087C11.4492 16.0497 11.3522 16.0462 11.2636 16.077C11.1751 16.1078 11.1013 16.1708 11.0568 16.2534C10.6304 17.0022 9.90241 18.271 9.07038 19.5815C7.71834 19.0137 6.55905 18.0675 5.73188 16.8566C5.44067 18.6351 4.46304 23.3256 7.53113 23.9704C10.152 24.48 12.1593 18.2606 11.7537 16.347Z"
    fill="#183C4A"
  />
  <path
    d="M8.87275 14.558C8.90784 14.511 8.9317 14.4566 8.94252 14.3989C8.95334 14.3412 8.95081 14.2818 8.93515 14.2252C8.91279 14.1332 8.85636 14.053 8.77723 14.0009C8.6981 13.9488 8.60215 13.9286 8.50874 13.9444C7.65591 14.0796 6.21026 14.298 4.67101 14.4644C4.27715 13.0536 4.29519 11.5596 4.72301 10.1587C3.15256 11.0323 -1.13237 13.1852 0.282076 15.9933C1.50931 18.3542 7.63511 16.0661 8.87275 14.558Z"
    fill="#183C4A"
  />
  <path
    d="M8.47752 11.178C8.53684 11.1793 8.59557 11.1658 8.64828 11.1385C8.70098 11.1113 8.74598 11.0712 8.77913 11.0219C8.83742 10.9492 8.8656 10.8569 8.85786 10.764C8.85012 10.6712 8.80705 10.5848 8.73753 10.5227C8.09271 9.94031 7.02147 8.94188 5.93984 7.83945C6.79561 6.64993 7.9765 5.73267 9.34075 5.19777C7.6767 4.52174 3.31896 2.50408 1.99812 5.35377C0.916481 7.78745 6.53266 11.1468 8.47752 11.178Z"
    fill="#183C4A"
  />
  <path
    d="M11.1816 8.91066C11.2767 8.9084 11.3676 8.87101 11.4367 8.80572C11.5058 8.74042 11.5483 8.65183 11.556 8.55705C11.608 7.70422 11.7224 6.23777 11.9096 4.70892C13.3713 4.63577 14.8231 4.98607 16.0906 5.71776C15.5914 3.9913 14.4577 -0.668045 11.4104 0.0807789C8.83115 0.7464 9.68397 7.2258 10.88 8.77545C10.9148 8.82156 10.9607 8.85812 11.0135 8.88175C11.0662 8.90539 11.124 8.91533 11.1816 8.91066Z"
    fill="#183C4A"
  />
</svg>
