<svg
  width="64"
  height="64"
  viewBox="0 0 64 64"
  fill="none"
  xmlns="http://www.w3.org/2000/svg"
>
  <g opacity="0.5">
    <path
      d="M16.4635 16.3552C16.1511 16.0428 15.6446 16.0428 15.3321 16.3552C15.0197 16.6676 15.0197 17.1742 15.3321 17.4866L16.4635 16.3552ZM46.4163 48.5707C46.7287 48.8831 47.2352 48.8831 47.5476 48.5707C47.8601 48.2583 47.8601 47.7518 47.5476 47.4393L46.4163 48.5707ZM15.3321 17.4866L46.4163 48.5707L47.5476 47.4393L16.4635 16.3552L15.3321 17.4866Z"
      fill="#183C4A"
    />
    <path
      fill-rule="evenodd"
      clip-rule="evenodd"
      d="M19.1897 19.7252C15.2183 19.7307 12 22.9519 12 26.9252V38.0053C12 41.9818 15.2236 45.2053 19.2 45.2053H44.6141C44.6326 45.2053 44.651 45.2052 44.6694 45.2051L43.0696 43.6053H19.2C16.1072 43.6053 13.6 41.0981 13.6 38.0053V26.9252C13.6 23.8311 16.1092 21.3234 19.2033 21.3252L20.7906 21.3261L19.1897 19.7252ZM25.788 26.3236C24.0811 27.9432 23.0166 30.2334 23.0166 32.7722C23.0166 37.6808 26.9959 41.6601 31.9045 41.6601C34.4433 41.6601 36.7335 40.5957 38.3531 38.8887L37.2212 37.7569C35.8916 39.1745 34.0015 40.0601 31.9045 40.0601C27.8795 40.0601 24.6166 36.7972 24.6166 32.7722C24.6166 30.6752 25.5022 28.7851 26.9199 27.4554L25.788 26.3236ZM28.2137 26.4866L27.0518 25.3247C28.447 24.4137 30.114 23.8842 31.9045 23.8842C36.8132 23.8842 40.7925 27.8635 40.7925 32.7722C40.7925 34.5628 40.263 36.2297 39.352 37.6249L38.1901 36.463C38.8271 35.3805 39.1925 34.119 39.1925 32.7722C39.1925 28.7472 35.9295 25.4842 31.9045 25.4842C30.5577 25.4842 29.2962 25.8496 28.2137 26.4866ZM27.1884 27.724C27.1201 27.7869 27.053 27.8514 26.9871 27.9173C25.6994 29.2049 24.9761 30.9513 24.9761 32.7723C24.9761 33.2141 25.3342 33.5723 25.7761 33.5723C26.2179 33.5723 26.5761 33.2141 26.5761 32.7723C26.5761 31.3756 27.1309 30.0362 28.1184 29.0487C28.1844 28.9827 28.2519 28.9186 28.321 28.8566L27.1884 27.724ZM29.6922 27.9651L28.5011 26.7739C29.5138 26.2099 30.6622 25.9063 31.842 25.9063C32.2838 25.9063 32.642 26.2645 32.642 26.7063C32.642 27.1481 32.2838 27.5063 31.842 27.5063C31.0939 27.5063 30.3622 27.6655 29.6922 27.9651ZM45.2918 43.5647C48.065 43.2302 50.2141 40.8687 50.2141 38.0053V26.9215C50.2141 23.8271 47.7049 21.3043 44.6101 21.2863C43.834 21.2818 43.0079 21.2787 42.0733 21.2787H42.0723L23.0509 21.3237L21.4537 19.7265L21.7608 19.7267L21.762 19.7267L23.2469 19.7232L25.4792 16.9086C25.9344 16.3346 26.6269 16 27.3596 16L36.5485 16C37.2966 16 38.0018 16.3488 38.4559 16.9433L40.5478 19.6823L42.0704 19.6787L42.0723 19.6787C43.011 19.6787 43.8405 19.6818 44.6194 19.6864C48.5937 19.7095 51.8141 22.9466 51.8141 26.9215V38.0053C51.8141 41.2774 49.6314 44.0397 46.6426 44.9156L45.2918 43.5647ZM27.3596 17.6L36.5485 17.6C36.7979 17.6 37.033 17.7163 37.1843 17.9144L38.5382 19.6871L25.2929 19.7184L26.7328 17.9029C26.8845 17.7115 27.1154 17.6 27.3596 17.6Z"
      fill="#183C4A"
    />
  </g>
</svg>
