<svg xmlns="http://www.w3.org/2000/svg" width="35" height="35" fill="none"><path fill="#fff" fill-rule="evenodd" d="M5 9v4.667A1.333 1.333 0 0 0 6.333 15H11l-2.667-2.667h-.666v-.666L5 9Zm11.819 3.333-1.152-1.152V7.667A.667.667 0 0 1 16.333 7h1.334a.667.667 0 0 1 .666.667v4a.667.667 0 0 1-.666.666h-.848Zm-3.152 5.334 2 2v.666H11a.667.667 0 0 1-.667-.666v-1.334a.667.667 0 0 1 .667-.666h2.667Zm7.333 8h-2a.667.667 0 0 1-.667-.667v-2h-2a.667.667 0 0 1-.666-.667v-2h.666L21 25v.667Zm.667 0H21v2.666h-4.667a.667.667 0 0 0-.666.667v1.333a.667.667 0 0 0 .666.667h4a.666.666 0 0 0 .667-.667v-2h2.667v2a.667.667 0 0 0 .666.667H27l-2.667-2.667h-.666v-.666l-2-2Zm4.666-3.819v-1.515h2a.667.667 0 0 0 .667-.666v-1.334a.667.667 0 0 0-.667-.666h-6.181l4.181 4.181ZM13 8.515 11.485 7h.182A1.333 1.333 0 0 1 13 8.333v.182ZM7.471 20.138a.667.667 0 0 1-.471.195H5.667A.667.667 0 0 1 5 19.667v-1.334a.667.667 0 0 1 .667-.666H7a.667.667 0 0 1 .667.666v1.334c0 .176-.07.346-.196.471ZM6.333 23h5.334A1.334 1.334 0 0 1 13 24.333v5.334A1.334 1.334 0 0 1 11.667 31H6.333A1.334 1.334 0 0 1 5 29.667v-5.334A1.333 1.333 0 0 1 6.333 23Zm1.334 5.333h2.666v-2.666H7.667v2.666ZM22.333 7h5.334A1.333 1.333 0 0 1 29 8.333v5.334A1.334 1.334 0 0 1 27.667 15h-5.334A1.334 1.334 0 0 1 21 13.667V8.333A1.334 1.334 0 0 1 22.333 7Zm1.334 5.333h2.666V9.667h-2.666v2.666Z" clip-rule="evenodd"/><path stroke="#fff" stroke-linecap="round" stroke-width="3" d="M2.121 2 33 32.879"/></svg>