<svg xmlns="http://www.w3.org/2000/svg" width="24" height="24" fill="none"><path fill="currentColor" d="M4 9h4a1 1 0 0 0 1-1V4a1 1 0 0 0-1-1H4a1 1 0 0 0-1 1v4a1 1 0 0 0 1 1Zm1-4h2v2H5V5Zm-1.5 8h1a.5.5 0 0 0 .5-.5v-1a.5.5 0 0 0-.5-.5h-1a.5.5 0 0 0-.5.5v1a.5.5 0 0 0 .5.5ZM8 15H4a1 1 0 0 0-1 1v4a1 1 0 0 0 1 1h4a1 1 0 0 0 1-1v-4a1 1 0 0 0-1-1Zm-1 4H5v-2h2v2Zm10.5 2h3a.5.5 0 0 0 .5-.5v-3a.5.5 0 0 0-.5-.5h-1a.5.5 0 0 0-.5.5V19h-2v1.5a.5.5 0 0 0 .5.5ZM20 3h-4a1 1 0 0 0-1 1v4a1 1 0 0 0 1 1h4a1 1 0 0 0 1-1V4a1 1 0 0 0-1-1Zm-1 4h-2V5h2v2ZM7.5 11a.5.5 0 0 0-.5.5v1a.5.5 0 0 0 .5.5H11v-2H7.5Zm3.5 3.5a.5.5 0 0 0 .5.5H13v1.5a.5.5 0 0 0 .5.5H15v-4h-4v1.5Zm0 5v1a.5.5 0 0 0 .5.5h3a.5.5 0 0 0 .5-.5V19h-3.5a.5.5 0 0 0-.5.5Zm9.5-8.5h-5a.5.5 0 0 0-.5.5V13h2v1.5a.5.5 0 0 0 .5.5h1a.5.5 0 0 0 .5-.5V13h1.5a.5.5 0 0 0 .5-.5v-1a.5.5 0 0 0-.5-.5ZM17 19v-2h-2v2h2ZM11.5 7h1a.5.5 0 0 0 .5-.5v-3a.5.5 0 0 0-.5-.5h-1a.5.5 0 0 0-.5.5v3a.5.5 0 0 0 .5.5Zm1.5 3.5v-1a.5.5 0 0 0-.5-.5h-1a.5.5 0 0 0-.5.5V11h1.5a.5.5 0 0 0 .5-.5Z"/></svg>