<svg
  width="32"
  height="32"
  viewBox="0 0 32 32"
  fill="none"
  xmlns="http://www.w3.org/2000/svg"
>
  <path
    d="M24.7449 26.0649L25.2371 26.6309L24.7449 26.0649ZM19.2498 11.9998C19.2498 13.7948 17.7948 15.2498 15.9998 15.2498V16.7498C18.6232 16.7498 20.7498 14.6232 20.7498 11.9998H19.2498ZM15.9998 15.2498C14.2049 15.2498 12.7498 13.7948 12.7498 11.9998H11.2498C11.2498 14.6232 13.3765 16.7498 15.9998 16.7498V15.2498ZM12.7498 11.9998C12.7498 10.2049 14.2049 8.74984 15.9998 8.74984V7.24984C13.3765 7.24984 11.2498 9.37648 11.2498 11.9998H12.7498ZM15.9998 8.74984C17.7948 8.74984 19.2498 10.2049 19.2498 11.9998H20.7498C20.7498 9.37648 18.6232 7.24984 15.9998 7.24984V8.74984ZM3.4165 15.9998C3.4165 9.05025 9.05025 3.4165 15.9998 3.4165V1.9165C8.22183 1.9165 1.9165 8.22183 1.9165 15.9998H3.4165ZM15.9998 3.4165C22.9494 3.4165 28.5832 9.05025 28.5832 15.9998H30.0832C30.0832 8.22183 23.7778 1.9165 15.9998 1.9165V3.4165ZM15.9998 20.7498C19.6817 20.7498 22.8239 23.0684 24.0424 26.3276L25.4475 25.8023C24.0169 21.976 20.3277 19.2498 15.9998 19.2498V20.7498ZM28.5832 15.9998C28.5832 19.7915 26.9071 23.1909 24.2528 25.499L25.2371 26.6309C28.205 24.05 30.0832 20.2438 30.0832 15.9998H28.5832ZM24.2528 25.499C22.0431 27.4206 19.1581 28.5832 15.9998 28.5832V30.0832C19.5335 30.0832 22.7648 28.7808 25.2371 26.6309L24.2528 25.499ZM7.95723 26.3276C9.1758 23.0684 12.318 20.7498 15.9998 20.7498V19.2498C11.672 19.2498 7.9828 21.976 6.55222 25.8023L7.95723 26.3276ZM15.9998 28.5832C12.8415 28.5832 9.95662 27.4206 7.74687 25.499L6.76258 26.6309C9.23489 28.7808 12.4662 30.0832 15.9998 30.0832V28.5832ZM7.74687 25.499C5.09261 23.1908 3.4165 19.7915 3.4165 15.9998H1.9165C1.9165 20.2438 3.79466 24.05 6.76258 26.6309L7.74687 25.499Z"
    fill="url(#paint0_linear_9620_81622)"
  />
  <defs>
    <linearGradient
      id="paint0_linear_9620_81622"
      x1="2.6665"
      y1="13.8519"
      x2="29.3332"
      y2="13.8519"
      gradientUnits="userSpaceOnUse"
    >
      <stop stop-color="#FF6848" />
      <stop
        offset="1"
        stop-color="#4940E0"
      />
    </linearGradient>
  </defs>
</svg>
