<svg xmlns="http://www.w3.org/2000/svg" width="32" height="32" fill="none"><path fill="url(#a)" d="m24.745 26.065.492.566-.492-.566ZM19.25 12A3.25 3.25 0 0 1 16 15.25v1.5A4.75 4.75 0 0 0 20.75 12h-1.5ZM16 15.25A3.25 3.25 0 0 1 12.75 12h-1.5A4.75 4.75 0 0 0 16 16.75v-1.5ZM12.75 12A3.25 3.25 0 0 1 16 8.75v-1.5A4.75 4.75 0 0 0 11.25 12h1.5ZM16 8.75A3.25 3.25 0 0 1 19.25 12h1.5A4.75 4.75 0 0 0 16 7.25v1.5ZM3.416 16C3.416 9.05 9.05 3.416 16 3.416v-1.5C8.222 1.917 1.916 8.223 1.916 16h1.5ZM16 3.416c6.95 0 12.583 5.634 12.583 12.584h1.5c0-7.778-6.305-14.084-14.083-14.084v1.5Zm0 17.334a8.587 8.587 0 0 1 8.042 5.578l1.405-.526A10.087 10.087 0 0 0 16 19.25v1.5ZM28.583 16c0 3.791-1.676 7.19-4.33 9.499l.984 1.132A14.053 14.053 0 0 0 30.083 16h-1.5Zm-4.33 9.499A12.532 12.532 0 0 1 16 28.583v1.5c3.534 0 6.765-1.302 9.237-3.452l-.984-1.132Zm-16.296.829A8.587 8.587 0 0 1 16 20.75v-1.5a10.087 10.087 0 0 0-9.448 6.552l1.405.526ZM16 28.583A12.532 12.532 0 0 1 7.747 25.5l-.984 1.132A14.032 14.032 0 0 0 16 30.083v-1.5ZM7.747 25.5a12.553 12.553 0 0 1-4.33-9.5h-1.5c0 4.245 1.878 8.051 4.846 10.632l.984-1.132Z"/><defs><linearGradient id="a" x1="2.667" x2="29.333" y1="13.852" y2="13.852" gradientUnits="userSpaceOnUse"><stop stop-color="#FF6848"/><stop offset="1" stop-color="#4940E0"/></linearGradient></defs></svg>